<?xml version="1.0" encoding="UTF-8"?>
<svg version="1.1" xmlns="http://www.w3.org/2000/svg" width="428" height="392">
<path d="M0 0 C1.17179526 -0.00260775 2.34359053 -0.00521549 3.55089474 -0.00790226 C4.8546584 -0.00567154 6.15842207 -0.00344082 7.50169373 -0.0011425 C8.88777743 -0.00229336 10.27386083 -0.00388065 11.65994358 -0.00586975 C15.48669062 -0.01006787 19.31341292 -0.00797021 23.14016008 -0.00488353 C27.2601746 -0.0026316 31.38018471 -0.006108 35.50019836 -0.00886345 C43.57837234 -0.01332237 51.65653706 -0.01234414 59.73471141 -0.00945081 C66.29694238 -0.00719725 72.85917074 -0.00688404 79.42140198 -0.00797462 C80.81954772 -0.00820447 80.81954772 -0.00820447 82.24593884 -0.00843897 C84.13916357 -0.00875868 86.03238831 -0.00908289 87.92561305 -0.00941156 C105.70040581 -0.01226671 123.47519342 -0.00897878 141.24998534 -0.00361119 C156.51903069 0.00085688 171.78806844 0.00008096 187.05711365 -0.00452995 C204.76601633 -0.0098751 222.47491449 -0.01199202 240.18381786 -0.00891769 C242.07028389 -0.00859912 243.95674992 -0.00828475 245.84321594 -0.00797462 C246.77152129 -0.00782035 247.69982664 -0.00766607 248.65626246 -0.00750712 C255.2146141 -0.00664179 261.77296289 -0.0081052 268.33131409 -0.01045418 C276.31800326 -0.01325172 284.30468259 -0.0125149 292.29137063 -0.00717343 C296.3703937 -0.00453579 300.44940034 -0.00353241 304.52842331 -0.00682259 C308.25643262 -0.00978427 311.98441014 -0.0081949 315.71241653 -0.00284503 C317.7128521 -0.00118408 319.71328985 -0.00447955 321.71372318 -0.00790226 C323.47141608 -0.00399064 323.47141608 -0.00399064 325.26461792 0 C326.28438437 0.00016235 327.30415083 0.0003247 328.3548193 0.00049198 C330.63230896 0.12584114 330.63230896 0.12584114 331.63230896 1.12584114 C331.76275826 3.77638744 331.82898711 6.40226869 331.85350037 9.05455208 C331.86500626 9.88547371 331.87651215 10.71639534 331.8883667 11.57249641 C331.9252164 14.33503138 331.9547693 17.09758944 331.98387146 19.86021614 C332.0069783 21.77495342 332.03036855 23.68968731 332.05403137 25.6044178 C332.10257193 29.62617755 332.14748455 33.64795786 332.18992615 37.66978645 C332.24461612 42.82261698 332.30847086 47.97528527 332.37510109 53.12797356 C332.42522556 57.08618872 332.47033148 61.04444905 332.51394272 65.00274086 C332.5354986 66.90214832 332.55864441 68.80153842 332.58340836 70.70090675 C332.61735352 73.36042856 332.64451043 76.01993673 332.66990662 78.67955208 C332.68128159 79.46416817 332.69265656 80.24878426 332.70437622 81.05717659 C332.73372118 84.88137191 332.57001104 88.40987967 331.63230896 92.12584114 C328.99230896 92.45584114 326.35230896 92.78584114 323.63230896 93.12584114 C323.60886414 94.85254036 323.60886414 94.85254036 323.58494568 96.61412239 C323.27210276 108.74914302 321.13683184 119.50940494 317.75730896 131.12584114 C317.00574835 133.78956868 316.2613492 136.45522656 315.51780701 139.12120247 C315.00380138 140.96407678 314.48767273 142.80636021 313.96946716 144.64805794 C312.10070074 151.32239011 310.36863527 158.02323802 308.70262146 164.75084114 C308.34582809 166.18435921 308.34582809 166.18435921 307.98182678 167.64683723 C307.05761093 171.36505332 306.13419682 175.08326505 305.23442078 178.80748177 C302.34065414 190.76544424 298.6841707 201.90616898 293.63230896 213.12584114 C293.18658539 214.12433083 293.18658539 214.12433083 292.7318573 215.14299202 C290.91070173 219.21279924 289.05375803 223.26528268 287.17988586 227.31105232 C285.43990595 231.06856588 283.71119762 234.83124702 281.98387146 238.59459114 C281.62725937 239.37143761 281.27064728 240.14828407 280.90322876 240.94867134 C278.32277682 246.58412902 275.78910587 252.23920688 273.28074646 257.90709114 C272.74842659 259.10968826 272.74842659 259.10968826 272.20535278 260.33658028 C270.50631933 264.17905927 268.81271471 268.02385353 267.1247406 271.87120247 C265.61355275 275.31101539 264.06920338 278.73459855 262.5118866 282.15373421 C261.62845079 284.13449157 260.79558076 286.13178473 259.96482849 288.13511848 C259.40880404 289.39698002 258.85141193 290.65824006 258.29246521 291.91880989 C257.82590515 293.02120003 257.35934509 294.12359016 256.87864685 295.25938606 C253.51949296 299.54585773 249.71438657 300.45894077 244.63230896 302.12584114 C243.30629278 302.58412763 241.98108592 303.04475985 240.65652466 303.50723457 C235.84301129 305.17858446 231.0140207 306.80252203 226.18309021 308.42271614 C225.30736044 308.71692703 224.43163067 309.01113792 223.52936363 309.3142643 C218.90586995 310.86730472 214.2811899 312.41675039 209.65550232 313.96324348 C204.89129182 315.55685659 200.1314108 317.16301947 195.37237263 318.77200127 C191.69521025 320.01265015 188.01495785 321.24392289 184.33380699 322.47268105 C182.57722216 323.06083543 180.82181022 323.65250531 179.06763649 324.24781227 C176.61624206 325.0787713 174.16074817 325.89630844 171.70384216 326.71080208 C170.98730972 326.95698784 170.27077728 327.2031736 169.53253174 327.45681953 C163.35846542 329.47678741 157.98964469 329.94314312 151.85081482 327.69566536 C150.97166412 327.37998604 150.09251343 327.06430672 149.1867218 326.73906136 C148.249664 326.38974556 147.3126062 326.04042976 146.34715271 325.68052864 C145.34902557 325.31864449 144.35089844 324.95676033 143.32252502 324.58390999 C140.06746163 323.40061058 136.81857422 322.20131321 133.56980896 321.00084114 C131.32652805 320.17957317 129.08295456 319.35910395 126.83909607 318.53941536 C122.2951239 316.87781497 117.75359506 315.2097425 113.21336365 313.53795052 C108.06914509 311.64719407 102.91538153 309.78530207 97.75369263 307.94282722 C94.22035143 306.68137986 90.69059239 305.41011272 87.16139221 304.13713264 C85.52438351 303.54892347 83.88593845 302.96469567 82.24604797 302.38456917 C79.98617838 301.58367996 77.73263515 300.76703501 75.47996521 299.94615364 C74.82295624 299.71768745 74.16594727 299.48922127 73.48902893 299.25383186 C69.6754959 297.84180035 67.59402217 296.70553763 65.63230896 293.12584114 C64.26984999 290.1580146 63.05321474 287.14212251 61.85105896 284.10630989 C61.48557449 283.19844231 61.12009003 282.29057472 60.74353027 281.355196 C59.53302328 278.34390411 58.33163899 275.329101 57.13230896 272.31334114 C55.40385278 267.97008794 53.67369771 263.62752154 51.94090271 259.28599739 C51.4985881 258.1764167 51.0562735 257.06683601 50.60055542 255.92363167 C47.80093421 248.93584956 44.87765153 242.01569847 41.85496521 235.12193489 C27.04758503 200.99533051 17.81491239 165.53446145 8.54437256 129.59710884 C7.70364916 126.39735831 6.81543908 123.214981 5.91429138 120.031847 C4.91826901 116.40091837 4.23519049 113.02093174 4.12059021 109.23912239 C4.08514099 108.28199348 4.04969177 107.32486458 4.01316833 106.33873177 C3.97933044 104.90303841 3.97933044 104.90303841 3.94480896 103.43834114 C3.89356873 101.93883919 3.89356873 101.93883919 3.84129333 100.40904427 C3.75998543 97.98142245 3.69046913 95.55410849 3.63230896 93.12584114 C2.99422302 93.0652552 2.35613708 93.00466927 1.69871521 92.94224739 C0.45928162 92.8165638 0.45928162 92.8165638 -0.80519104 92.68834114 C-2.04075745 92.56652473 -2.04075745 92.56652473 -3.30128479 92.44224739 C-5.36769104 92.12584114 -5.36769104 92.12584114 -6.36769104 91.12584114 C-6.46820979 88.33131843 -6.50384998 85.56147759 -6.49708557 82.76646614 C-6.49883789 81.89010506 -6.50059021 81.01374397 -6.50239563 80.11082649 C-6.50681536 77.19914487 -6.50387573 74.28752344 -6.50050354 71.37584114 C-6.50117654 69.36184363 -6.50214654 67.34784619 -6.50340271 65.33384895 C-6.50487985 61.10695309 -6.50272462 56.88007831 -6.49806213 52.65318489 C-6.49236484 47.22203582 -6.49564376 41.79093615 -6.5016346 36.35978889 C-6.50523978 32.19924227 -6.50410182 28.03870745 -6.50150681 23.87816048 C-6.50083742 21.87498659 -6.50166637 19.87181165 -6.50398636 17.86863899 C-6.50651219 15.07413562 -6.50267328 12.27971343 -6.49708557 9.48521614 C-6.4991098 8.64881599 -6.50113403 7.81241585 -6.5032196 6.95067024 C-6.47902627 0.45406904 -6.43637557 0.00102471 0 0 Z " fill="#3F84C5" transform="translate(35.36769104003906,44.87415885925293)"/>
<path d="M0 0 C38.94 0 77.88 0 118 0 C118 65.67 118 131.34 118 199 C141.76 199 165.52 199 190 199 C189.99476318 193.007229 189.98952637 187.01445801 189.98413086 180.84008789 C189.96760056 161.09467018 189.95648021 141.3492522 189.94818783 121.60382938 C189.9430242 109.62593802 189.93598023 97.64805319 189.92456055 85.67016602 C189.91461576 75.23431517 189.90814706 64.79846907 189.90591151 54.36261362 C189.90460405 48.83324405 189.901516 43.30388802 189.89426994 37.77452278 C189.88751295 32.57654127 189.88538238 27.37857897 189.88689232 22.18059349 C189.88661585 20.26690695 189.88460883 18.35321981 189.88079453 16.43953705 C189.87586229 13.83870069 189.87699996 11.23793807 189.87974548 8.63710022 C189.87537622 7.48585784 189.87537622 7.48585784 189.87091869 6.31135803 C189.88587879 1.11412121 189.88587879 1.11412121 191 0 C192.53085839 -0.09581822 194.06613756 -0.12188108 195.59999084 -0.12025452 C196.59423569 -0.12162918 197.58848053 -0.12300385 198.612854 -0.12442017 C199.71264587 -0.12082489 200.81243774 -0.11722961 201.94555664 -0.11352539 C203.67215767 -0.11374443 203.67215767 -0.11374443 205.43363953 -0.1139679 C209.25916391 -0.11326818 213.08464031 -0.10547302 216.91015625 -0.09765625 C219.55431593 -0.09579228 222.19847596 -0.09436828 224.84263611 -0.09336853 C231.10415417 -0.09025549 237.36565486 -0.08204248 243.62716526 -0.07201904 C250.75401537 -0.06085705 257.8808663 -0.05534724 265.00772297 -0.05032361 C279.6718243 -0.03985984 294.33591191 -0.02226093 309 0 C309.03425368 3.37399812 309.05493245 6.74795096 309.07324219 10.12207031 C309.08306122 11.07300568 309.09288025 12.02394104 309.10299683 13.00369263 C309.13009024 19.66108707 308.49462272 25.44902338 306.25 31.75 C305.68930872 33.5041253 305.13205598 35.25935316 304.578125 37.015625 C304.30548828 37.85673828 304.03285156 38.69785156 303.75195312 39.56445312 C302.63914449 43.16879694 301.81045403 46.81802349 301 50.5 C299.4117996 57.52778678 297.51408271 64.43705668 295.48779297 71.35058594 C293.95062176 76.61087484 292.49516803 81.88304594 291.1171875 87.1875 C287.89113156 99.50255541 284.66811605 111.29531424 278.76171875 122.6171875 C277.33444333 125.35780949 276.07420291 128.09433302 274.88208008 130.94189453 C272.39329347 136.74883366 269.6715733 142.45796562 267.02734375 148.1953125 C264.61656507 153.43727813 262.24361231 158.68436468 260 164 C257.34033674 170.10094183 254.61326805 176.17401032 251.72145081 182.16860962 C250.49820973 184.778884 249.51375818 187.38086666 248.61802673 190.11972046 C246.37240746 196.47530378 244.09718935 202.2195217 237.98220825 205.62481689 C232.97948513 207.90452013 227.76242044 209.46820752 222.50390625 211.0390625 C220.58465692 211.66219002 218.66710727 212.29057451 216.75120544 212.92391968 C212.7523602 214.23150698 208.74345328 215.49628895 204.72045898 216.72753906 C199.57919837 218.3013881 194.46454353 219.9463319 189.35485935 221.61954689 C184.45394831 223.22125045 179.54210469 224.78803875 174.62890625 226.3515625 C173.70166811 226.64958393 172.77442997 226.94760536 171.8190937 227.25465775 C169.178631 228.0960873 166.53172331 228.91241018 163.88110352 229.72119141 C163.11251511 229.96925034 162.3439267 230.21730927 161.55204773 230.47288513 C154.03308508 232.71026448 147.48644563 231.84283808 140.16748047 229.12988281 C139.11543427 228.74568176 138.06338806 228.36148071 136.97946167 227.96563721 C135.86991119 227.54900818 134.76036072 227.13237915 133.6171875 226.703125 C132.44471466 226.27247742 131.27224182 225.84182983 130.0642395 225.39813232 C126.96026495 224.25640438 123.85957816 223.1063069 120.76043701 221.95153809 C115.23851851 219.89692894 109.70804749 217.86531904 104.1796875 215.828125 C103.0104071 215.39584595 101.84112671 214.96356689 100.63641357 214.51818848 C93.46236454 211.87435515 86.27120216 209.34248099 78.98486328 207.02636719 C75.57529627 205.8539625 72.31089416 204.42483152 69 203 C67.79859375 202.65453125 66.5971875 202.3090625 65.359375 201.953125 C60.30506214 199.01457101 59.27280075 195.07532412 57.25 189.75 C56.80736816 188.6468042 56.36473633 187.5436084 55.90869141 186.40698242 C54.87142073 183.81757265 53.84422897 181.22568995 52.82714844 178.62841797 C50.72427552 173.27683653 48.55265501 167.95360698 46.3828125 162.62890625 C42.33031955 152.67082584 38.28028764 142.71202695 34.30175781 132.72412109 C32.85044339 129.08683203 31.35677678 125.47350939 29.81542969 121.87353516 C22.15441075 103.64942037 17.35176008 84.56502307 12.24194336 65.51062012 C10.99312894 60.86403603 9.73052041 56.22120444 8.46875 51.578125 C7.05360877 46.3690113 5.63971725 41.15959731 4.23669434 35.94720459 C4.02563049 35.16378693 3.81456665 34.38036926 3.59710693 33.57321167 C3.2041772 32.11390235 2.8119595 30.65440104 2.42059326 29.19467163 C1.67721698 26.43499615 0.90409323 23.71227968 0 21 C0 14.07 0 7.14 0 0 Z " fill="#EEC032" transform="translate(44,137)"/>
<path d="M0 0 C24.09 0 48.18 0 73 0 C72.67 65.67 72.34 131.34 72 199 C48.24 199 24.48 199 0 199 C0 133.33 0 67.66 0 0 Z " fill="#76A7B0" transform="translate(162,137)"/>
<path d="M0 0 C1.17179526 -0.00260775 2.34359053 -0.00521549 3.55089474 -0.00790226 C4.8546584 -0.00567154 6.15842207 -0.00344082 7.50169373 -0.0011425 C8.88777743 -0.00229336 10.27386083 -0.00388065 11.65994358 -0.00586975 C15.48669062 -0.01006787 19.31341292 -0.00797021 23.14016008 -0.00488353 C27.2601746 -0.0026316 31.38018471 -0.006108 35.50019836 -0.00886345 C43.57837234 -0.01332237 51.65653706 -0.01234414 59.73471141 -0.00945081 C66.29694238 -0.00719725 72.85917074 -0.00688404 79.42140198 -0.00797462 C80.81954772 -0.00820447 80.81954772 -0.00820447 82.24593884 -0.00843897 C84.13916357 -0.00875868 86.03238831 -0.00908289 87.92561305 -0.00941156 C105.70040581 -0.01226671 123.47519342 -0.00897878 141.24998534 -0.00361119 C156.51903069 0.00085688 171.78806844 0.00008096 187.05711365 -0.00452995 C204.76601633 -0.0098751 222.47491449 -0.01199202 240.18381786 -0.00891769 C242.07028389 -0.00859912 243.95674992 -0.00828475 245.84321594 -0.00797462 C246.77152129 -0.00782035 247.69982664 -0.00766607 248.65626246 -0.00750712 C255.2146141 -0.00664179 261.77296289 -0.0081052 268.33131409 -0.01045418 C276.31800326 -0.01325172 284.30468259 -0.0125149 292.29137063 -0.00717343 C296.3703937 -0.00453579 300.44940034 -0.00353241 304.52842331 -0.00682259 C308.25643262 -0.00978427 311.98441014 -0.0081949 315.71241653 -0.00284503 C317.7128521 -0.00118408 319.71328985 -0.00447955 321.71372318 -0.00790226 C323.47141608 -0.00399064 323.47141608 -0.00399064 325.26461792 0 C326.28438437 0.00016235 327.30415083 0.0003247 328.3548193 0.00049198 C330.63230896 0.12584114 330.63230896 0.12584114 331.63230896 1.12584114 C331.76275826 3.77638744 331.82898711 6.40226869 331.85350037 9.05455208 C331.86500626 9.88547371 331.87651215 10.71639534 331.8883667 11.57249641 C331.9252164 14.33503138 331.9547693 17.09758944 331.98387146 19.86021614 C332.0069783 21.77495342 332.03036855 23.68968731 332.05403137 25.6044178 C332.10257193 29.62617755 332.14748455 33.64795786 332.18992615 37.66978645 C332.24461612 42.82261698 332.30847086 47.97528527 332.37510109 53.12797356 C332.42522556 57.08618872 332.47033148 61.04444905 332.51394272 65.00274086 C332.5354986 66.90214832 332.55864441 68.80153842 332.58340836 70.70090675 C332.61735352 73.36042856 332.64451043 76.01993673 332.66990662 78.67955208 C332.68128159 79.46416817 332.69265656 80.24878426 332.70437622 81.05717659 C332.73372118 84.88137191 332.57001104 88.40987967 331.63230896 92.12584114 C328.99230896 92.45584114 326.35230896 92.78584114 323.63230896 93.12584114 C323.60886414 94.85254036 323.60886414 94.85254036 323.58494568 96.61412239 C323.27210276 108.74914302 321.13683184 119.50940494 317.75730896 131.12584114 C317.00574835 133.78956868 316.2613492 136.45522656 315.51780701 139.12120247 C315.00380138 140.96407678 314.48767273 142.80636021 313.96946716 144.64805794 C312.10070074 151.32239011 310.36863527 158.02323802 308.70262146 164.75084114 C308.34582809 166.18435921 308.34582809 166.18435921 307.98182678 167.64683723 C307.05761093 171.36505332 306.13419682 175.08326505 305.23442078 178.80748177 C302.34065414 190.76544424 298.6841707 201.90616898 293.63230896 213.12584114 C293.18658539 214.12433083 293.18658539 214.12433083 292.7318573 215.14299202 C290.91070173 219.21279924 289.05375803 223.26528268 287.17988586 227.31105232 C285.43990595 231.06856588 283.71119762 234.83124702 281.98387146 238.59459114 C281.62725937 239.37143761 281.27064728 240.14828407 280.90322876 240.94867134 C278.32277682 246.58412902 275.78910587 252.23920688 273.28074646 257.90709114 C272.74842659 259.10968826 272.74842659 259.10968826 272.20535278 260.33658028 C270.50631933 264.17905927 268.81271471 268.02385353 267.1247406 271.87120247 C265.61355275 275.31101539 264.06920338 278.73459855 262.5118866 282.15373421 C261.62845079 284.13449157 260.79558076 286.13178473 259.96482849 288.13511848 C259.40880404 289.39698002 258.85141193 290.65824006 258.29246521 291.91880989 C257.82590515 293.02120003 257.35934509 294.12359016 256.87864685 295.25938606 C253.51949296 299.54585773 249.71438657 300.45894077 244.63230896 302.12584114 C243.30629278 302.58412763 241.98108592 303.04475985 240.65652466 303.50723457 C235.84301129 305.17858446 231.0140207 306.80252203 226.18309021 308.42271614 C225.30736044 308.71692703 224.43163067 309.01113792 223.52936363 309.3142643 C218.90586995 310.86730472 214.2811899 312.41675039 209.65550232 313.96324348 C204.89129182 315.55685659 200.1314108 317.16301947 195.37237263 318.77200127 C191.69521025 320.01265015 188.01495785 321.24392289 184.33380699 322.47268105 C182.57722216 323.06083543 180.82181022 323.65250531 179.06763649 324.24781227 C176.61624206 325.0787713 174.16074817 325.89630844 171.70384216 326.71080208 C170.98730972 326.95698784 170.27077728 327.2031736 169.53253174 327.45681953 C163.35846542 329.47678741 157.98964469 329.94314312 151.85081482 327.69566536 C150.97166412 327.37998604 150.09251343 327.06430672 149.1867218 326.73906136 C148.249664 326.38974556 147.3126062 326.04042976 146.34715271 325.68052864 C145.34902557 325.31864449 144.35089844 324.95676033 143.32252502 324.58390999 C140.06746163 323.40061058 136.81857422 322.20131321 133.56980896 321.00084114 C131.32652805 320.17957317 129.08295456 319.35910395 126.83909607 318.53941536 C122.2951239 316.87781497 117.75359506 315.2097425 113.21336365 313.53795052 C108.06914509 311.64719407 102.91538153 309.78530207 97.75369263 307.94282722 C94.22035143 306.68137986 90.69059239 305.41011272 87.16139221 304.13713264 C85.52438351 303.54892347 83.88593845 302.96469567 82.24604797 302.38456917 C79.98617838 301.58367996 77.73263515 300.76703501 75.47996521 299.94615364 C74.82295624 299.71768745 74.16594727 299.48922127 73.48902893 299.25383186 C69.6754959 297.84180035 67.59402217 296.70553763 65.63230896 293.12584114 C64.26984999 290.1580146 63.05321474 287.14212251 61.85105896 284.10630989 C61.48557449 283.19844231 61.12009003 282.29057472 60.74353027 281.355196 C59.53302328 278.34390411 58.33163899 275.329101 57.13230896 272.31334114 C55.40385278 267.97008794 53.67369771 263.62752154 51.94090271 259.28599739 C51.4985881 258.1764167 51.0562735 257.06683601 50.60055542 255.92363167 C47.80093421 248.93584956 44.87765153 242.01569847 41.85496521 235.12193489 C27.04758503 200.99533051 17.81491239 165.53446145 8.54437256 129.59710884 C7.70364916 126.39735831 6.81543908 123.214981 5.91429138 120.031847 C4.91826901 116.40091837 4.23519049 113.02093174 4.12059021 109.23912239 C4.08514099 108.28199348 4.04969177 107.32486458 4.01316833 106.33873177 C3.97933044 104.90303841 3.97933044 104.90303841 3.94480896 103.43834114 C3.89356873 101.93883919 3.89356873 101.93883919 3.84129333 100.40904427 C3.75998543 97.98142245 3.69046913 95.55410849 3.63230896 93.12584114 C2.99422302 93.0652552 2.35613708 93.00466927 1.69871521 92.94224739 C0.45928162 92.8165638 0.45928162 92.8165638 -0.80519104 92.68834114 C-2.04075745 92.56652473 -2.04075745 92.56652473 -3.30128479 92.44224739 C-5.36769104 92.12584114 -5.36769104 92.12584114 -6.36769104 91.12584114 C-6.46820979 88.33131843 -6.50384998 85.56147759 -6.49708557 82.76646614 C-6.49883789 81.89010506 -6.50059021 81.01374397 -6.50239563 80.11082649 C-6.50681536 77.19914487 -6.50387573 74.28752344 -6.50050354 71.37584114 C-6.50117654 69.36184363 -6.50214654 67.34784619 -6.50340271 65.33384895 C-6.50487985 61.10695309 -6.50272462 56.88007831 -6.49806213 52.65318489 C-6.49236484 47.22203582 -6.49564376 41.79093615 -6.5016346 36.35978889 C-6.50523978 32.19924227 -6.50410182 28.03870745 -6.50150681 23.87816048 C-6.50083742 21.87498659 -6.50166637 19.87181165 -6.50398636 17.86863899 C-6.50651219 15.07413562 -6.50267328 12.27971343 -6.49708557 9.48521614 C-6.4991098 8.64881599 -6.50113403 7.81241585 -6.5032196 6.95067024 C-6.47902627 0.45406904 -6.43637557 0.00102471 0 0 Z M-1.36769104 5.12584114 C-1.36769104 32.51584114 -1.36769104 59.90584114 -1.36769104 88.12584114 C107.20230896 88.12584114 215.77230896 88.12584114 327.63230896 88.12584114 C327.63230896 60.73584114 327.63230896 33.34584114 327.63230896 5.12584114 C219.06230896 5.12584114 110.49230896 5.12584114 -1.36769104 5.12584114 Z M8.63230896 92.12584114 C8.63230896 106.643471 8.86363911 117.05446055 12.83152771 130.32896614 C13.27033404 131.87180942 13.70670129 133.41534818 14.14080811 134.95952034 C15.27372386 138.96473412 16.43897532 142.95976558 17.61210632 146.95335579 C18.7896699 150.98418789 19.9349758 155.02415389 21.08348083 159.06334114 C23.17017188 166.38194289 25.28112771 173.69304045 27.42451477 180.99524117 C28.26381691 183.85574471 29.08947823 186.7198037 29.9077301 189.58639717 C32.12604498 197.31770212 34.46621717 204.86643049 37.60105896 212.28599739 C37.95851196 213.1524337 38.31596497 214.01887001 38.68424988 214.91156197 C39.82573996 217.67382538 40.97887519 220.43104683 42.13230896 223.18834114 C42.93497716 225.12497579 43.73672337 227.0619928 44.5375824 228.9993763 C46.14086969 232.87667192 47.74772029 236.75246019 49.35691833 240.62730598 C52.84186131 249.03228692 56.24694532 257.46961801 59.65159607 265.9073658 C60.83559955 268.83994904 62.02704582 271.76879108 63.23582458 274.69127083 C64.22399103 277.12160746 65.16568002 279.54704374 66.07566833 282.00572395 C66.56818424 283.27765883 67.06101358 284.54947239 67.55418396 285.82115364 C67.97796326 286.9582679 68.40174255 288.09538216 68.83836365 289.26695442 C71.19973631 293.03011092 73.48831319 293.73118293 77.63230896 295.12584114 C78.74090271 295.53705208 79.84949646 295.94826302 80.99168396 296.37193489 C82.11059021 296.76509895 83.22949646 297.15826302 84.38230896 297.56334114 C93.63805486 300.8243772 102.84925289 304.19609265 112.03334045 307.65399361 C116.21230053 309.22371504 120.39672231 310.77850145 124.58277321 312.32920742 C127.7453556 313.50161724 130.90495085 314.68106646 134.05906677 315.87608528 C137.7345969 317.26822727 141.42125295 318.62930816 145.10887146 319.98912239 C146.23097015 320.41921104 147.35306885 320.8492997 148.50917053 321.29242134 C149.5741275 321.68000114 150.63908447 322.06758095 151.73631287 322.46690559 C153.12217087 322.98508606 153.12217087 322.98508606 154.536026 323.51373482 C161.61490031 324.91316238 168.48719758 322.82232356 175.23802185 320.71177864 C176.04578568 320.46583961 176.8535495 320.21990059 177.68579102 319.96650887 C186.06880802 317.39767082 194.41656066 314.71394807 202.76048279 312.02134895 C206.7085172 310.75139965 210.66530047 309.51837734 214.63450623 308.31627083 C219.45622482 306.85559257 224.25337116 305.33126479 229.04044914 303.76091194 C230.8548784 303.1773767 232.67656018 302.61586693 234.50509834 302.07817268 C245.56889975 298.96516649 245.56889975 298.96516649 253.44038391 291.12022591 C255.24483125 287.58661614 256.61846498 283.96299396 257.87801933 280.20540047 C259.10297841 276.82821619 260.77296991 273.74090313 262.44480896 270.56334114 C264.84460192 265.80719038 266.84817863 261.1383978 268.63230896 256.12584114 C269.20888096 254.77245363 269.79987791 253.4251594 270.40184021 252.08287239 C270.93321594 250.89721687 270.93321594 250.89721687 271.47532654 249.68760872 C273.9452356 244.21878496 276.43258305 238.75796709 278.92137146 233.29771614 C279.55172302 231.91326302 279.55172302 231.91326302 280.19480896 230.50084114 C280.56734802 229.68357552 280.93988708 228.86630989 281.32371521 228.02427864 C282.40887361 225.62073376 283.478167 223.21131 284.54344177 220.79893684 C285.83716856 217.87912514 287.16777388 214.98438199 288.5532074 212.10704231 C294.19085459 200.22922866 297.67036441 188.15776886 300.88230896 175.43834114 C301.38868328 173.47898452 301.89649158 171.51999793 302.40574646 169.56138802 C303.38419717 165.79088969 304.35499306 162.01857061 305.31858826 158.24424934 C306.75263567 152.63734258 308.24356597 147.04687928 309.7431488 141.45713997 C310.61026587 138.20842706 311.45933149 134.95563664 312.30027771 131.70005989 C312.68022888 130.22956184 312.68022888 130.22956184 313.06785583 128.72935677 C313.58216718 126.73489744 314.09512454 124.7400886 314.60691833 122.74498177 C314.85635193 121.78140755 315.10578552 120.81783333 315.36277771 119.82505989 C315.5834491 118.9674305 315.80412048 118.1098011 316.03147888 117.22618294 C316.63230896 115.12584114 316.63230896 115.12584114 317.63230896 113.12584114 C317.63230896 106.19584114 317.63230896 99.26584114 317.63230896 92.12584114 C215.66230896 92.12584114 113.69230896 92.12584114 8.63230896 92.12584114 Z " fill="#050B11" transform="translate(35.36769104003906,44.87415885925293)"/>
<path d="M0 0 C0.33 0 0.66 0 1 0 C1.33 3.3 1.66 6.6 2 10 C2.66 9.67 3.32 9.34 4 9 C6.2992158 19.46579751 3.13823246 28.51642584 0.25 38.5 C-0.77833983 42.15416249 -1.7946388 45.81165717 -2.8125 49.46875 C-3.20788971 50.87809814 -3.20788971 50.87809814 -3.61126709 52.31591797 C-5.49695234 59.07014922 -7.25191694 65.84951153 -8.9375 72.65625 C-9.17486877 73.60995483 -9.41223755 74.56365967 -9.65679932 75.54626465 C-10.57872533 79.25532607 -11.49980316 82.96439361 -12.39733887 86.67944336 C-15.29129998 98.63817255 -18.94781321 109.77960592 -24 121 C-24.29714905 121.66565979 -24.5942981 122.33131958 -24.90045166 123.01715088 C-26.72160723 127.0869581 -28.57855093 131.13944154 -30.4524231 135.18521118 C-32.19240301 138.94272474 -33.92111134 142.70540587 -35.6484375 146.46875 C-36.00504959 147.24559647 -36.36166168 148.02244293 -36.7290802 148.8228302 C-39.30953214 154.45828788 -41.84320309 160.11336574 -44.3515625 165.78125 C-44.88388237 166.98384712 -44.88388237 166.98384712 -45.42695618 168.21073914 C-47.12598963 172.05321813 -48.81959425 175.89801239 -50.50756836 179.74536133 C-52.01875621 183.18517425 -53.56310558 186.6087574 -55.12042236 190.02789307 C-56.00385817 192.00865042 -56.8367282 194.00594359 -57.66748047 196.00927734 C-58.22350492 197.27113888 -58.78089703 198.53239892 -59.33984375 199.79296875 C-60.03968384 201.44655396 -60.03968384 201.44655396 -60.75366211 203.13354492 C-64.112816 207.42001659 -67.91792239 208.33309963 -73 210 C-74.32601618 210.45828649 -75.65122304 210.91891871 -76.9757843 211.38139343 C-81.78929767 213.05274332 -86.61828826 214.67668089 -91.44921875 216.296875 C-92.32494852 216.59108589 -93.20067829 216.88529678 -94.10294533 217.18842316 C-98.72643901 218.74146358 -103.35111906 220.29090925 -107.97680664 221.83740234 C-112.74101714 223.43101545 -117.50089816 225.03717833 -122.25993633 226.64616013 C-125.93709871 227.886809 -129.61735111 229.11808175 -133.29850197 230.3468399 C-135.0550868 230.93499429 -136.81049874 231.52666417 -138.56467247 232.12197113 C-141.0160669 232.95293016 -143.47156079 233.7704673 -145.9284668 234.58496094 C-146.64499924 234.8311467 -147.36153168 235.07733246 -148.09977722 235.33097839 C-154.27384354 237.35094626 -159.64266427 237.81730198 -165.78149414 235.56982422 C-166.66064484 235.2541449 -167.53979553 234.93846558 -168.44558716 234.61322021 C-169.38264496 234.26390442 -170.31970276 233.91458862 -171.28515625 233.5546875 C-172.28328339 233.19280334 -173.28141052 232.83091919 -174.30978394 232.45806885 C-177.56484733 231.27476944 -180.81373474 230.07547207 -184.0625 228.875 C-186.30578091 228.05373203 -188.5493544 227.23326281 -190.79321289 226.41357422 C-195.33718506 224.75197382 -199.8787139 223.08390136 -204.41894531 221.41210938 C-209.56316387 219.52135293 -214.71692743 217.65946093 -219.87861633 215.81698608 C-223.41195753 214.55553872 -226.94171657 213.28427158 -230.47091675 212.0112915 C-232.10792545 211.42308233 -233.74637051 210.83885453 -235.38626099 210.25872803 C-237.64613058 209.45783882 -239.89967381 208.64119387 -242.15234375 207.8203125 C-242.80935272 207.59184631 -243.46636169 207.36338013 -244.14328003 207.12799072 C-247.95681306 205.71595921 -250.03828679 204.57969649 -252 201 C-253.36245901 198.03217337 -254.57910601 195.01628633 -255.78125 191.98046875 C-256.1468251 191.07228394 -256.51240021 190.16409912 -256.88905334 189.22839355 C-258.0993581 186.21737986 -259.30061362 183.20287845 -260.5 180.1875 C-262.22590016 175.85338062 -263.95362513 171.51999713 -265.68359375 167.1875 C-266.12549545 166.07936447 -266.56739716 164.97122894 -267.02268982 163.82951355 C-269.85727833 156.75387067 -272.80867911 149.73992082 -275.84765625 142.75 C-285.56441602 120.20084959 -293.18568181 97.46460081 -299.63874435 73.80331802 C-300.24648814 71.57537421 -300.85857081 69.34865075 -301.47073364 67.12191772 C-302.43444684 63.60298214 -303.37803522 60.07922252 -304.30506325 56.55044937 C-304.81366353 54.62126055 -305.33363254 52.69508015 -305.85392761 50.76901245 C-307.49812729 44.34962976 -308.29888187 39.50788425 -307 33 C-307.53226089 30.64220847 -307.53226089 30.64220847 -308.5625 28.75 C-309.50390625 26.859375 -309.50390625 26.859375 -310 25 C-309.37938322 23.64461923 -308.71569411 22.30767127 -308 21 C-307.76054153 21.86427109 -307.52108307 22.72854218 -307.27436829 23.6190033 C-304.996256 31.8404042 -302.71684136 40.06144273 -300.4360323 48.28209591 C-299.26403158 52.50647481 -298.09250151 56.73098296 -296.92211914 60.95581055 C-295.78859208 65.04752645 -294.65373465 69.13887139 -293.51802635 73.22998238 C-293.08907702 74.7760206 -292.66057451 76.32218288 -292.23256874 77.86848259 C-290.8351972 82.91616292 -289.42555217 87.96020379 -288 93 C-287.7910548 93.74018435 -287.5821096 94.48036869 -287.36683273 95.24298286 C-284.96535934 103.70971598 -282.46134227 112.04180771 -279.03125 120.16015625 C-278.67375168 121.0266832 -278.31625336 121.89321014 -277.94792175 122.78599548 C-276.80645485 125.54815745 -275.65335658 128.30528462 -274.5 131.0625 C-273.69805593 132.99766642 -272.89704213 134.9332186 -272.09692383 136.86914062 C-270.49444853 140.74500471 -268.88838367 144.61934938 -267.27978516 148.49267578 C-264.03779562 156.31037073 -260.86119101 164.15439441 -257.6875 172 C-256.69224202 174.45867395 -255.69595004 176.91692228 -254.69921875 179.375 C-254.2511084 180.48101562 -253.80299805 181.58703125 -253.34130859 182.7265625 C-251.56608912 187.05895106 -249.73624363 191.36768227 -247.89379883 195.671875 C-247 198 -247 198 -247 200 C-246.40574219 200.17015625 -245.81148438 200.3403125 -245.19921875 200.515625 C-238.69276875 202.41797741 -232.35373163 204.64412198 -226 207 C-224.36805746 207.5912001 -222.73595791 208.18196687 -221.10375977 208.77246094 C-215.92186127 210.65549423 -210.75874391 212.58544534 -205.59896851 214.52815247 C-201.42000843 216.0978739 -197.23558665 217.65266031 -193.04953575 219.20336628 C-189.88695336 220.3757761 -186.72735811 221.55522531 -183.57324219 222.75024414 C-179.89771206 224.14238613 -176.21105601 225.50346702 -172.5234375 226.86328125 C-171.40133881 227.2933699 -170.27924011 227.72345856 -169.12313843 228.1665802 C-168.05818146 228.55416 -166.99322449 228.94173981 -165.89599609 229.34106445 C-164.51013809 229.85924492 -164.51013809 229.85924492 -163.09628296 230.38789368 C-155.99784542 231.79118871 -149.28526088 229.72103339 -142.59033203 227.40795898 C-141.80379745 227.14446655 -141.01726288 226.88097412 -140.20689392 226.60949707 C-137.63765492 225.74665301 -135.07285556 224.8713234 -132.5078125 223.99609375 C-130.7121323 223.39125582 -128.91613685 222.78735306 -127.11984253 222.18434143 C-122.41340049 220.60228265 -117.71041633 219.01020648 -113.00836182 217.41516113 C-105.46263215 214.85663151 -97.91274569 212.31047075 -90.36092758 209.76997566 C-87.72540415 208.88124107 -85.09201083 207.98640087 -82.45877075 207.09092712 C-80.85035008 206.54796151 -79.24186368 206.00519059 -77.63330078 205.46264648 C-76.90081619 205.21174759 -76.1683316 204.96084869 -75.41365051 204.7023468 C-72.48075455 203.71810637 -70.11685625 203 -67 203 C-66.73832031 202.15953125 -66.47664062 201.3190625 -66.20703125 200.453125 C-64.9189612 196.76816085 -63.36047453 193.27040604 -61.6875 189.75 C-61.2239209 188.76374634 -61.2239209 188.76374634 -60.75097656 187.75756836 C-58.97459237 183.99540754 -57.14055404 180.26890534 -55.25 176.5625 C-53.51427561 173.13628183 -52.06870028 169.71481469 -50.78417969 166.09790039 C-50.00211924 164.00566955 -49.13620056 161.97945915 -48.22265625 159.94140625 C-47.86953369 159.1532251 -47.51641113 158.36504395 -47.15258789 157.55297852 C-44.68478175 152.08679575 -42.19836834 146.62914752 -39.7109375 141.171875 C-39.08058594 139.78742188 -39.08058594 139.78742188 -38.4375 138.375 C-38.06496094 137.55773437 -37.69242187 136.74046875 -37.30859375 135.8984375 C-36.22343535 133.49489262 -35.15414196 131.08546886 -34.08886719 128.6730957 C-32.7951404 125.753284 -31.46453508 122.85854085 -30.07910156 119.98120117 C-24.44145437 108.10338751 -20.96194455 96.03192772 -17.75 83.3125 C-17.24362568 81.35314338 -16.73581738 79.39415679 -16.2265625 77.43554688 C-15.24811179 73.66504855 -14.2773159 69.89272946 -13.3137207 66.1184082 C-11.87967329 60.51150144 -10.38874299 54.92103814 -8.88916016 49.33129883 C-8.02204309 46.08258592 -7.17297747 42.8297955 -6.33203125 39.57421875 C-5.95208008 38.1037207 -5.95208008 38.1037207 -5.56445312 36.60351562 C-5.05014178 34.6090563 -4.53718442 32.61424746 -4.02539062 30.61914062 C-3.77595703 29.65556641 -3.52652344 28.69199219 -3.26953125 27.69921875 C-3.04885986 26.84158936 -2.82818848 25.98395996 -2.60083008 25.1003418 C-2 23 -2 23 -1 21 C-0.84824451 19.40737934 -0.75099675 17.80935144 -0.68359375 16.2109375 C-0.64169922 15.26992187 -0.59980469 14.32890625 -0.55664062 13.359375 C-0.49766602 11.88210937 -0.49766602 11.88210937 -0.4375 10.375 C-0.39431641 9.38242188 -0.35113281 8.38984375 -0.30664062 7.3671875 C-0.20038931 4.91160162 -0.09835036 2.45591297 0 0 Z " fill="#0F0A04" transform="translate(353,137)"/>
<path d="M0 0 C0.99 0 1.98 0 3 0 C3 27.06 3 54.12 3 82 C168.33 81.505 168.33 81.505 337 81 C337 82.65 337 84.3 337 86 C334.36 86.33 331.72 86.66 329 87 C328.67 91.62 328.34 96.24 328 101 C327.67 101 327.34 101 327 101 C326.67 99.35 326.34 97.7 326 96 C325.67 97.65 325.34 99.3 325 101 C324.67 101 324.34 101 324 101 C324 96.05 324 91.1 324 86 C221.7 86 119.4 86 14 86 C12.29301637 109.28633372 12.29301637 109.28633372 17 119 C17.1875 122.4375 17.1875 122.4375 17 125 C15.515 124.505 15.515 124.505 14 124 C8.95693753 112.40095632 9.22621998 99.40816592 9 87 C6.03 86.67 3.06 86.34 0 86 C0 57.62 0 29.24 0 0 Z " fill="#020106" transform="translate(30,51)"/>
<path d="M0 0 C108.57 0 217.14 0 329 0 C329 27.39 329 54.78 329 83 C220.43 83 111.86 83 0 83 C0 55.61 0 28.22 0 0 Z M1 1 C1 27.4 1 53.8 1 81 C108.58 81 216.16 81 327 81 C327 54.6 327 28.2 327 1 C219.42 1 111.84 1 1 1 Z " fill="#4374A2" transform="translate(34,50)"/>
<path d="M0 0 C38.94 0 77.88 0 118 0 C118 65.67 118 131.34 118 199 C141.76 199 165.52 199 190 199 C189.99476318 193.007229 189.98952637 187.01445801 189.98413086 180.84008789 C189.96760056 161.09467018 189.95648021 141.3492522 189.94818783 121.60382938 C189.9430242 109.62593802 189.93598023 97.64805319 189.92456055 85.67016602 C189.91461576 75.23431517 189.90814706 64.79846907 189.90591151 54.36261362 C189.90460405 48.83324405 189.901516 43.30388802 189.89426994 37.77452278 C189.88751295 32.57654127 189.88538238 27.37857897 189.88689232 22.18059349 C189.88661585 20.26690695 189.88460883 18.35321981 189.88079453 16.43953705 C189.87586229 13.83870069 189.87699996 11.23793807 189.87974548 8.63710022 C189.87537622 7.48585784 189.87537622 7.48585784 189.87091869 6.31135803 C189.88587879 1.11412121 189.88587879 1.11412121 191 0 C192.53085839 -0.09581822 194.06613756 -0.12188108 195.59999084 -0.12025452 C196.59423569 -0.12162918 197.58848053 -0.12300385 198.612854 -0.12442017 C199.71264587 -0.12082489 200.81243774 -0.11722961 201.94555664 -0.11352539 C203.67215767 -0.11374443 203.67215767 -0.11374443 205.43363953 -0.1139679 C209.25916391 -0.11326818 213.08464031 -0.10547302 216.91015625 -0.09765625 C219.55431593 -0.09579228 222.19847596 -0.09436828 224.84263611 -0.09336853 C231.10415417 -0.09025549 237.36565486 -0.08204248 243.62716526 -0.07201904 C250.75401537 -0.06085705 257.8808663 -0.05534724 265.00772297 -0.05032361 C279.6718243 -0.03985984 294.33591191 -0.02226093 309 0 C309 0.33 309 0.66 309 1 C270.39 1 231.78 1 192 1 C192 66.67 192 132.34 192 200 C167.25 200 142.5 200 117 200 C116.67 134.66 116.34 69.32 116 2 C59.57 2.495 59.57 2.495 2 3 C1.54868655 15.14443751 1.54868655 15.14443751 5 26 C5.125 29.1875 5.125 29.1875 5 32 C5.66 32 6.32 32 7 32 C8.125 38.75 8.125 38.75 7 41 C7.66 41 8.32 41 9 41 C9 43.97 9 46.94 9 50 C6.49495483 44.98990965 4.97150632 39.91988199 3.375 34.5625 C3.05015625 33.56412109 2.7253125 32.56574219 2.390625 31.53710938 C-0.90048619 20.35701106 0 12.72333333 0 0 Z " fill="#C6C66D" transform="translate(44,137)"/>
<path d="M0 0 C38.61 0 77.22 0 117 0 C117 6.6 117 13.2 117 20 C116.34 19.67 115.68 19.34 115 19 C115 13.06 115 7.12 115 1 C77.38 1 39.76 1 1 1 C1 66.34 1 131.68 1 199 C0.67 199 0.34 199 0 199 C0 133.33 0 67.66 0 0 Z M-76 196 C-75.67 196.99 -75.34 197.98 -75 199 C-50.25 199 -25.5 199 0 199 C-0.66 199.99 -1.32 200.98 -2 202 C-4.87106323 202.32952881 -4.87106323 202.32952881 -8.58935547 202.26464844 C-9.26597229 202.25693924 -9.94258911 202.24923004 -10.63970947 202.24128723 C-12.88269005 202.21194762 -15.12461566 202.16091172 -17.3671875 202.109375 C-18.92414485 202.08387709 -20.48112231 202.05958076 -22.03811646 202.03643799 C-25.30511041 201.98481363 -28.57171273 201.92330266 -31.83837891 201.85400391 C-36.02359122 201.76533932 -40.20885957 201.69378143 -44.39449883 201.62871933 C-48.38550678 201.56587347 -52.37633978 201.49407425 -56.3671875 201.421875 C-57.12859921 201.40892143 -57.89001091 201.39596786 -58.6744957 201.38262177 C-60.8337487 201.34433923 -62.99277065 201.29965434 -65.15185547 201.25292969 C-66.38048309 201.22833679 -67.60911072 201.2037439 -68.87496948 201.17840576 C-71.43107783 201.03247936 -73.56736511 200.74928045 -76 200 C-76 198.68 -76 197.36 -76 196 Z " fill="#E5C247" transform="translate(236,138)"/>
<path d="M0 0 C0.99 0 1.98 0 3 0 C3 1.65 3 3.3 3 5 C0.36 5.33 -2.28 5.66 -5 6 C-5.33 10.62 -5.66 15.24 -6 20 C-6.33 20 -6.66 20 -7 20 C-7.33 18.35 -7.66 16.7 -8 15 C-8.495 17.475 -8.495 17.475 -9 20 C-9.33 20 -9.66 20 -10 20 C-10 15.05 -10 10.1 -10 5 C-49.6 5 -89.2 5 -130 5 C-130 4.01 -130 3.02 -130 2 C-89 2 -48 2 -7 2 C-3.18048626 1.73861239 -3.18048626 1.73861239 0 0 Z " fill="#060001" transform="translate(364,132)"/>
<path d="M0 0 C38.94 0 77.88 0 118 0 C117.34 1.32 116.68 2.64 116 4 C116 3.34 116 2.68 116 2 C59.57 2.495 59.57 2.495 2 3 C1.54868655 15.14443751 1.54868655 15.14443751 5 26 C5.125 29.1875 5.125 29.1875 5 32 C5.66 32 6.32 32 7 32 C8.125 38.75 8.125 38.75 7 41 C7.66 41 8.32 41 9 41 C9 43.97 9 46.94 9 50 C6.49495483 44.98990965 4.97150632 39.91988199 3.375 34.5625 C3.05015625 33.56412109 2.7253125 32.56574219 2.390625 31.53710938 C-0.90048619 20.35701106 0 12.72333333 0 0 Z " fill="#CBAC4D" transform="translate(44,137)"/>
<path d="M0 0 C0.66 0 1.32 0 2 0 C2 1.32 2 2.64 2 4 C2.66 4 3.32 4 4 4 C4 5.65 4 7.3 4 9 C4.66 9 5.32 9 6 9 C6 9.66 6 10.32 6 11 C6.61875 11.04125 7.2375 11.0825 7.875 11.125 C8.926875 11.558125 8.926875 11.558125 10 12 C11.25 15.0625 11.25 15.0625 12 18 C12.33 18 12.66 18 13 18 C13 20.31 13 22.62 13 25 C13.99 24.67 14.98 24.34 16 24 C18 29.625 18 29.625 18 33 C17.34 33 16.68 33 16 33 C16 33.99 16 34.98 16 36 C17.485 36.495 17.485 36.495 19 37 C19.103125 38.216875 19.20625 39.43375 19.3125 40.6875 C19.77499676 44.41390245 20.69605648 46.95879456 23 50 C23.66 50.33 24.32 50.66 25 51 C25.625 54.0625 25.625 54.0625 26 57 C28.94729537 58.15811388 28.94729537 58.15811388 32 58 C31.67257813 58.56203125 31.34515625 59.1240625 31.0078125 59.703125 C29.88214506 62.26859964 29.7931889 63.96842277 29.875 66.75 C29.90207031 67.94882812 29.90207031 67.94882812 29.9296875 69.171875 C29.95289062 69.77515625 29.97609375 70.3784375 30 71 C31.485 71.495 31.485 71.495 33 72 C33 72.66 33 73.32 33 74 C31.13525391 73.76269531 31.13525391 73.76269531 29 73 C27.82177734 71.21386719 27.82177734 71.21386719 26.8359375 68.796875 C26.44446533 67.85714844 26.05299316 66.91742188 25.6496582 65.94921875 C25.229021 64.89347656 24.80838379 63.83773437 24.375 62.75 C23.92278076 61.64785156 23.47056152 60.54570312 23.00463867 59.41015625 C21.64780343 56.08682595 20.30783602 52.75741702 18.97344971 49.42504883 C17.8973204 46.74420554 16.81419695 44.06625448 15.72998047 41.38867188 C13.24959974 35.26227997 10.77874502 29.1320949 8.3125 23 C7.90110779 21.97821655 7.48971558 20.95643311 7.06585693 19.90368652 C5.89018474 16.97903248 4.71961659 14.05239206 3.55078125 11.125 C3.19193344 10.23339172 2.83308563 9.34178345 2.46336365 8.42315674 C2.1381221 7.60546814 1.81288055 6.78777954 1.4777832 5.9453125 C1.19119339 5.22875488 0.90460358 4.51219727 0.60932922 3.77392578 C0 2 0 2 0 0 Z " fill="#F1C037" transform="translate(77,264)"/>
<path d="M0 0 C0.33 0.66 0.66 1.32 1 2 C3.02463255 2.65213292 3.02463255 2.65213292 5 3 C5 3.33 5 3.66 5 4 C10.445 4.495 10.445 4.495 16 5 C16 4.34 16 3.68 16 3 C24.42857143 0.71428571 24.42857143 0.71428571 29 1 C24.48393005 4.0107133 19.48889264 5.43704571 14.375 7.1875 C12.79138672 7.75887695 12.79138672 7.75887695 11.17578125 8.34179688 C1.0031486 11.81461013 -5.77140096 10.89248003 -15.5625 6.9375 C-16.28501953 6.65583984 -17.00753906 6.37417969 -17.75195312 6.08398438 C-19.50510527 5.39897791 -21.25313671 4.70088871 -23 4 C-20.4858798 3.27334501 -19.22217129 2.94738048 -16.625 3.5625 C-13.26358947 4.12273509 -11.12700776 3.23625888 -8 2 C-8 2.99 -8 3.98 -8 5 C-7.34 5.33 -6.68 5.66 -6 6 C-6 5.34 -6 4.68 -6 4 C-4.35 3.67 -2.7 3.34 -1 3 C-0.67 2.01 -0.34 1.02 0 0 Z " fill="#E5BE40" transform="translate(197,358)"/>
<path d="M0 0 C0.66 0 1.32 0 2 0 C2 1.65 2 3.3 2 5 C2.66 5 3.32 5 4 5 C4.16435547 6.03060547 4.16435547 6.03060547 4.33203125 7.08203125 C4.49058594 7.98308594 4.64914063 8.88414062 4.8125 9.8125 C4.96332031 10.70582031 5.11414062 11.59914062 5.26953125 12.51953125 C6.07551297 15.25642105 7.02132901 16.04771129 9 18 C9.4765625 20.05078125 9.4765625 20.05078125 9.625 22.3125 C9.72361328 23.51132813 9.72361328 23.51132813 9.82421875 24.734375 C9.91123047 25.85585937 9.91123047 25.85585937 10 27 C10.68220495 31.77543466 11.61415858 36.3805286 13 41 C13.99 41.66 14.98 42.32 16 43 C16.36328125 45.09375 16.36328125 45.09375 16.3125 47.5 C16.30863281 48.2940625 16.30476563 49.088125 16.30078125 49.90625 C16 52 16 52 14 54 C12.00082495 46.7932242 10.00760352 39.58482127 8.01855469 32.37524414 C7.34089647 29.92173805 6.66186541 27.46861072 5.98144531 25.01586914 C5.00486691 21.4946349 4.03319927 17.97207756 3.0625 14.44921875 C2.75626709 13.34913986 2.45003418 12.24906097 2.13452148 11.11564636 C1.71408569 9.58439873 1.71408569 9.58439873 1.28515625 8.0222168 C1.03644775 7.12286911 0.78773926 6.22352142 0.53149414 5.29692078 C0 3 0 3 0 0 Z " fill="#E0B84C" transform="translate(53,187)"/>
<path d="M0 0 C1.64550818 4.0775982 0.31801607 7.72881086 -0.7734375 11.78125 C-0.97265808 12.54383621 -1.17187866 13.30642242 -1.37713623 14.09211731 C-2.03010346 16.5650934 -2.70072293 19.03275484 -3.375 21.5 C-3.7121402 22.75071793 -3.7121402 22.75071793 -4.05609131 24.02670288 C-7.55839099 36.94418058 -11.75029837 49.11952855 -18 61 C-18.495 59.515 -18.495 59.515 -19 58 C-18.33333333 56.66666667 -17.66666667 55.33333333 -17 54 C-16.83249586 51.33290931 -16.83249586 51.33290931 -17 49 C-16.01 49 -15.02 49 -14 49 C-14.33 46.69 -14.66 44.38 -15 42 C-14.34 42.33 -13.68 42.66 -13 43 C-12.67 42.01 -12.34 41.02 -12 40 C-11.34 40 -10.68 40 -10 40 C-10.309375 39.1028125 -10.309375 39.1028125 -10.625 38.1875 C-11 36 -11 36 -9 33 C-8.855625 31.948125 -8.71125 30.89625 -8.5625 29.8125 C-8.05398349 26.3658881 -7.11661501 23.6052484 -5.83203125 20.390625 C-3.96052491 15.01333918 -2 8.72402111 -2 3 C-1.34 3 -0.68 3 0 3 C0 2.01 0 1.02 0 0 Z " fill="#E4BE56" transform="translate(339,202)"/>
<path d="M0 0 C0.33 0 0.66 0 1 0 C1.33 26.07 1.66 52.14 2 79 C2.99 79 3.98 79 5 79 C5 79.99 5 80.98 5 82 C2.525 82.495 2.525 82.495 0 83 C0 55.61 0 28.22 0 0 Z " fill="#020417" transform="translate(363,50)"/>
<path d="M0 0 C0.66 0 1.32 0 2 0 C1.41640925 8.31616812 -0.73799414 16.01459326 -3 24 C-3.99 23.67 -4.98 23.34 -6 23 C-5.8324877 14.27413195 -4.107434 7.69954418 0 0 Z " fill="#030203" transform="translate(348,182)"/>
<path d="M0 0 C-3.53108348 2.90053286 -3.53108348 2.90053286 -6.0625 3.4375 C-8.19839411 3.84717071 -8.19839411 3.84717071 -9.5 6 C-11 8 -11 8 -12.75 8.8125 C-17.27796297 9.18983025 -21.63969278 8.12832511 -26 7 C-22.04573359 5.63374627 -18.08601051 4.28406373 -14.125 2.9375 C-12.99707031 2.54755859 -11.86914062 2.15761719 -10.70703125 1.75585938 C-9.63066406 1.39169922 -8.55429688 1.02753906 -7.4453125 0.65234375 C-5.95281982 0.14175415 -5.95281982 0.14175415 -4.43017578 -0.37915039 C-2 -1 -2 -1 0 0 Z " fill="#150C02" transform="translate(246,354)"/>
<path d="M0 0 C0.66 0.33 1.32 0.66 2 1 C1.36445211 4.83423949 0.2538035 8.1330094 -1.3125 11.6875 C-1.72113281 12.64011719 -2.12976563 13.59273438 -2.55078125 14.57421875 C-4.12812196 17.21445751 -5.15565762 17.962937 -8 19 C-6.27671233 8.55890411 -6.27671233 8.55890411 -3 4 C-2.67 3.34 -2.34 2.68 -2 2 C-1.34 2 -0.68 2 0 2 C0 1.34 0 0.68 0 0 Z " fill="#030202" transform="translate(299,316)"/>
<path d="M0 0 C3 3.75 3 3.75 3 6 C3.99 6 4.98 6 6 6 C7.75 7.1875 7.75 7.1875 9 9 C8.625 11.5625 8.625 11.5625 8 14 C8.33 14.66 8.66 15.32 9 16 C9.04022391 18.3329866 9.04320247 20.66706666 9 23 C6.93171476 20.93171476 6.31932087 19.65232267 5.2734375 16.97265625 C4.9640625 16.18052734 4.6546875 15.38839844 4.3359375 14.57226562 C4.01882812 13.74404297 3.70171875 12.91582031 3.375 12.0625 C3.05015625 11.23814453 2.7253125 10.41378906 2.390625 9.56445312 C0 3.38197545 0 3.38197545 0 0 Z " fill="#E5BB49" transform="translate(68,241)"/>
<path d="M0 0 C0.28875 0.598125 0.5775 1.19625 0.875 1.8125 C2.04742026 4.19327792 2.04742026 4.19327792 4 7 C4.125 10.1875 4.125 10.1875 4 13 C4.66 13 5.32 13 6 13 C7.125 19.75 7.125 19.75 6 22 C6.66 22 7.32 22 8 22 C8 24.97 8 27.94 8 31 C5.57242758 26.14485516 4.29153512 21.28470246 2.875 16.0625 C2.59785156 15.07314453 2.32070313 14.08378906 2.03515625 13.06445312 C1.77347656 12.10603516 1.51179688 11.14761719 1.2421875 10.16015625 C1.0035498 9.29011963 0.76491211 8.42008301 0.51904297 7.52368164 C-0.01131694 4.94497497 -0.09358792 2.62487635 0 0 Z " fill="#DCB94E" transform="translate(45,156)"/>
<path d="M0 0 C0.33 0.99 0.66 1.98 1 3 C1.66 3 2.32 3 3 3 C3 4.65 3 6.3 3 8 C3.99 8.33 4.98 8.66 6 9 C6.103125 10.155 6.20625 11.31 6.3125 12.5 C6.86035113 17.01171519 8.2774879 20.80605749 10 25 C9.34 25.33 8.68 25.66 8 26 C6.46073792 22.42430624 4.94687156 18.83840192 3.4375 15.25 C2.99986328 14.23421875 2.56222656 13.2184375 2.11132812 12.171875 C1.49741211 10.70234375 1.49741211 10.70234375 0.87109375 9.203125 C0.48880615 8.30239258 0.10651855 7.40166016 -0.28735352 6.47363281 C-1.05212059 3.81908675 -0.94191316 2.55699416 0 0 Z " fill="#DEBC4B" transform="translate(90,292)"/>
<path d="M0 0 C1.20628008 2.33214148 2.1654738 4.49642139 3 7 C2.07796291 9.36522558 1.08301035 11.70401807 0 14 C-0.66 14 -1.32 14 -2 14 C-2 13.34 -2 12.68 -2 12 C-2.66 12 -3.32 12 -4 12 C-4.12375 12.639375 -4.2475 13.27875 -4.375 13.9375 C-4.58125 14.618125 -4.7875 15.29875 -5 16 C-5.66 16.33 -6.32 16.66 -7 17 C-5.1668733 11.00067626 -2.92678249 5.55079437 0 0 Z " fill="#160E06" transform="translate(328,246)"/>
<path d="M0 0 C0.66 0 1.32 0 2 0 C2 1.32 2 2.64 2 4 C2.66 4 3.32 4 4 4 C4 5.65 4 7.3 4 9 C4.66 9 5.32 9 6 9 C7.31626692 12.61973402 8 15.09567131 8 19 C8.66 19 9.32 19 10 19 C11.48320272 22.83887763 12.22419163 25.06204091 11 29 C9.42897511 25.19322741 7.8625157 21.38461236 6.30029297 17.57421875 C5.76802214 16.27780317 5.23449895 14.98190106 4.69970703 13.68652344 C3.93194036 11.82622051 3.16902341 9.96391837 2.40625 8.1015625 C1.94541016 6.98088379 1.48457031 5.86020508 1.00976562 4.70556641 C0 2 0 2 0 0 Z " fill="#DAB750" transform="translate(77,264)"/>
<path d="M0 0 C0.66 0 1.32 0 2 0 C3.37351794 3.12163168 2.89111525 4.33811581 1.8125 7.6875 C0 11 0 11 -2.1875 11.9375 C-2.785625 11.958125 -3.38375 11.97875 -4 12 C-3.53680089 7.27536912 -2.90108294 3.82942948 0 0 Z " fill="#060202" transform="translate(324,258)"/>
<path d="M0 0 C1.06366506 3.24595661 0.91053386 5.27417046 0.00390625 8.546875 C-0.22490234 9.39121094 -0.45371094 10.23554688 -0.68945312 11.10546875 C-0.93630859 11.97816406 -1.18316406 12.85085937 -1.4375 13.75 C-1.68048828 14.63816406 -1.92347656 15.52632812 -2.17382812 16.44140625 C-2.77396316 18.63013403 -3.38293345 20.81599686 -4 23 C-4.33 23 -4.66 23 -5 23 C-5.36263859 17.1977825 -4.25684543 13.36000789 -2 8 C-2.99 7.67 -3.98 7.34 -5 7 C-4.01 6.67 -3.02 6.34 -2 6 C-0.77479736 2.99152582 -0.77479736 2.99152582 0 0 Z " fill="#E1BD55" transform="translate(350,160)"/>
<path d="M0 0 C0.33 0 0.66 0 1 0 C1.4820659 5.52654117 -0.08880075 9.0712208 -2.5 13.875 C-3.00080078 14.90753906 -3.00080078 14.90753906 -3.51171875 15.9609375 C-4.33071727 17.64573446 -5.16393591 19.32360619 -6 21 C-6.33 20.01 -6.66 19.02 -7 18 C-6 16 -6 16 -5 14 C-4.83249586 11.33290931 -4.83249586 11.33290931 -5 9 C-4.01 9 -3.02 9 -2 9 C-2.33 6.69 -2.66 4.38 -3 2 C-2.34 2.33 -1.68 2.66 -1 3 C-0.67 2.01 -0.34 1.02 0 0 Z " fill="#EAC14D" transform="translate(327,242)"/>
<path d="M0 0 C-1.556846 4.01303508 -3.31138857 7.9092928 -5.125 11.8125 C-5.93324219 13.55466797 -5.93324219 13.55466797 -6.7578125 15.33203125 C-7.16773438 16.21246094 -7.57765625 17.09289062 -8 18 C-9.04116106 14.79377554 -9.13486303 14.27558967 -7.5625 11.0625 C-7.046875 10.051875 -6.53125 9.04125 -6 8 C-6.020625 7.113125 -6.04125 6.22625 -6.0625 5.3125 C-6 3 -6 3 -4.125 1.1875 C-2 0 -2 0 0 0 Z " fill="#DDBD4C" transform="translate(320,265)"/>
<path d="M0 0 C1.67641098 4.09086452 0.2409319 7.71511018 -0.9375 11.75 C-1.13279297 12.44738281 -1.32808594 13.14476562 -1.52929688 13.86328125 C-2.0108246 15.57798973 -2.50425157 17.28934877 -3 19 C-3.33 19 -3.66 19 -4 19 C-4 17.35 -4 15.7 -4 14 C-4.66 13.67 -5.32 13.34 -6 13 C-6 12.34 -6 11.68 -6 11 C-4.68 10.67 -3.36 10.34 -2 10 C-1.855625 8.72125 -1.71125 7.4425 -1.5625 6.125 C-1.29357254 3.74307106 -1.07773654 2.15547309 0 0 Z " fill="#E1BB4D" transform="translate(344,183)"/>
<path d="M0 0 C0.33 0 0.66 0 1 0 C1.05395478 1.62463842 1.09277195 3.24978541 1.125 4.875 C1.14820313 5.77992188 1.17140625 6.68484375 1.1953125 7.6171875 C1 10 1 10 -1 12 C-1.67292501 13.96690374 -1.67292501 13.96690374 -2.125 16.125 C-2.558125 18.043125 -2.558125 18.043125 -3 20 C-3.66 20 -4.32 20 -5 20 C-3.33333333 13.33333333 -1.66666667 6.66666667 0 0 Z " fill="#302107" transform="translate(334,225)"/>
<path d="M0 0 C3 1 3 1 4.16796875 3.21484375 C4.50441406 4.11332031 4.84085937 5.01179688 5.1875 5.9375 C5.70376953 7.28134766 5.70376953 7.28134766 6.23046875 8.65234375 C7 11 7 11 7 13 C7.99 13.33 8.98 13.66 10 14 C10 14.66 10 15.32 10 16 C8.203125 15.9375 8.203125 15.9375 6 15 C4.71450686 12.64129699 3.70861747 10.48457997 2.75 8 C2.481875 7.34515625 2.21375 6.6903125 1.9375 6.015625 C0 1.23118622 0 1.23118622 0 0 Z " fill="#D7B650" transform="translate(100,322)"/>
<path d="M0 0 C0.66 0 1.32 0 2 0 C2 1.65 2 3.3 2 5 C2.66 5 3.32 5 4 5 C4.66 8.96 5.32 12.92 6 17 C5.34 17.33 4.68 17.66 4 18 C3.32873871 15.5636811 2.66283646 13.12611117 2 10.6875 C1.71382812 9.65206055 1.71382812 9.65206055 1.421875 8.59570312 C0.62283816 5.64212051 0 3.07440781 0 0 Z " fill="#DAB74E" transform="translate(53,187)"/>
<path d="M0 0 C1.95273962 2.92910944 2.75396363 5.08132291 3.6875 8.4375 C3.95949219 9.38496094 4.23148438 10.33242187 4.51171875 11.30859375 C4.99803744 13.98918237 4.89369149 15.46287583 4 18 C-1.328125 6.1328125 -1.328125 6.1328125 -0.625 1.5625 C-0.41875 1.046875 -0.2125 0.53125 0 0 Z " fill="#1E0F01" transform="translate(44,158)"/>
<path d="M0 0 C0.66 0.66 1.32 1.32 2 2 C0.84765625 3.54296875 0.84765625 3.54296875 -1 5 C-3.62890625 4.92578125 -3.62890625 4.92578125 -6.5625 4.3125 C-7.53316406 4.12300781 -8.50382813 3.93351562 -9.50390625 3.73828125 C-12 3 -12 3 -14 1 C-13.11248047 1.14308594 -13.11248047 1.14308594 -12.20703125 1.2890625 C-7.55619775 1.94154485 -4.27685626 2.34537279 0 0 Z " fill="#ECC142" transform="translate(188,360)"/>
<path d="M0 0 C0 0.66 0 1.32 0 2 C0.66 2 1.32 2 2 2 C2 2.66 2 3.32 2 4 C0.53984709 3.71758359 -0.91809793 3.42373386 -2.375 3.125 C-3.18710938 2.96257812 -3.99921875 2.80015625 -4.8359375 2.6328125 C-7 2 -7 2 -9 0 C-5.67465243 -1.10844919 -3.37817425 -0.84454356 0 0 Z " fill="#E9C04A" transform="translate(150,349)"/>
<path d="M0 0 C0.33 0.66 0.66 1.32 1 2 C0.29296875 4.09375 0.29296875 4.09375 -0.8125 6.5 C-1.16957031 7.2940625 -1.52664063 8.088125 -1.89453125 8.90625 C-3 11 -3 11 -5 13 C-4.25697027 8.91333648 -3.29128429 4.94981078 -2 1 C-1.34 0.67 -0.68 0.34 0 0 Z " fill="#DFBC56" transform="translate(303,299)"/>
<path d="M0 0 C0.99 0 1.98 0 3 0 C5.32590854 3.63423209 5.16265833 6.77088331 5 11 C2.77174356 8.77174356 2.30760631 7.34238372 1.375 4.375 C1.11460938 3.55773437 0.85421875 2.74046875 0.5859375 1.8984375 C0.39257812 1.27195313 0.19921875 0.64546875 0 0 Z " fill="#DEB545" transform="translate(72,253)"/>
<path d="M0 0 C0.66 0 1.32 0 2 0 C2 2.31 2 4.62 2 7 C1.01 7.495 1.01 7.495 0 8 C0 7.34 0 6.68 0 6 C-0.66 6 -1.32 6 -2 6 C-1.125 1.125 -1.125 1.125 0 0 Z " fill="#ECC225" transform="translate(108,324)"/>
<path d="M0 0 C2.96052484 3.36423277 3.92289822 6.69159287 5 11 C4.01 11.495 4.01 11.495 3 12 C1.68 8.37 0.36 4.74 -1 1 C-0.67 0.67 -0.34 0.34 0 0 Z " fill="#D7B552" transform="translate(95,306)"/>
<path d="M0 0 C0.99 0.33 1.98 0.66 3 1 C3.05399736 2.45792884 3.09279177 3.91642712 3.125 5.375 C3.14820312 6.18710938 3.17140625 6.99921875 3.1953125 7.8359375 C3 10 3 10 1 12 C0.83211627 10.37512529 0.66573213 8.75009558 0.5 7.125 C0.4071875 6.22007812 0.314375 5.31515625 0.21875 4.3828125 C0 2 0 2 0 0 Z " fill="#E0BA4A" transform="translate(66,229)"/>
<path d="M0 0 C0.33 0 0.66 0 1 0 C1.17835515 4.54805635 0.99785435 7.8794254 -1 12 C-1.66 12 -2.32 12 -3 12 C-2.01 8.04 -1.02 4.08 0 0 Z " fill="#2F1C06" transform="translate(342,196)"/>
<path d="M0 0 C1.4606285 2.64738916 2 3.89448334 2 7 C1.34 7 0.68 7 0 7 C-0.66 7.66 -1.32 8.32 -2 9 C-3 6 -3 6 -1.5625 2.8125 C-1.046875 1.884375 -0.53125 0.95625 0 0 Z " fill="#251908" transform="translate(328,246)"/>
<path d="M0 0 C0.99 0.33 1.98 0.66 3 1 C3 3.31 3 5.62 3 8 C2.34 8 1.68 8 1 8 C0 2.25 0 2.25 0 0 Z " fill="#E6C042" transform="translate(99,314)"/>
<path d="M0 0 C0.98120464 3.05263664 0.98120464 4.94736336 0 8 C-1.65 7.67 -3.3 7.34 -5 7 C-4.01 6.67 -3.02 6.34 -2 6 C-0.77479736 2.99152582 -0.77479736 2.99152582 0 0 Z " fill="#E3C044" transform="translate(350,160)"/>
<path d="M0 0 C-2.71182212 2.60334924 -3.89133813 2.99456691 -7.75 3.1875 C-8.8225 3.125625 -9.895 3.06375 -11 3 C-3.71428571 -1.85714286 -3.71428571 -1.85714286 0 0 Z " fill="#281500" transform="translate(246,354)"/>
<path d="M0 0 C1.98 0 3.96 0 6 0 C6 0.99 6 1.98 6 3 C3.03 2.505 3.03 2.505 0 2 C0 1.34 0 0.68 0 0 Z " fill="#030306" transform="translate(160,360)"/>
<path d="M0 0 C0.66 0 1.32 0 2 0 C1.34 2.64 0.68 5.28 0 8 C-0.66 8 -1.32 8 -2 8 C-1.125 1.125 -1.125 1.125 0 0 Z " fill="#E0BA52" transform="translate(295,314)"/>
</svg>
