<?xml version="1.0" encoding="UTF-8"?>
<svg version="1.1" xmlns="http://www.w3.org/2000/svg" width="380" height="380">
<path d="M0 0 C111.54 0 223.08 0 338 0 C338 30.36 338 60.72 338 92 C335.03 92 332.06 92 329 92 C329.08266113 93.71147217 329.08266113 93.71147217 329.16699219 95.45751953 C329.58275168 108.00585132 327.61356834 118.83864288 324.25 130.875 C323.74435451 132.74014866 323.24057525 134.60580411 322.73852539 136.47192383 C321.95505806 139.37975826 321.16893541 142.28668964 320.37269592 145.1910553 C318.53815484 151.89915658 316.85206489 158.6321567 315.23046875 165.39453125 C309.32399154 189.70475107 301.1813803 211.74176381 290.28710938 234.24267578 C286.91537563 241.22026164 283.7211511 248.27874832 280.51541138 255.3336792 C279.5163463 257.52661998 278.51024453 259.71618577 277.50170898 261.90478516 C274.56124239 268.29500778 271.67550421 274.69535983 268.95703125 281.18359375 C268.27640625 282.80189087 268.27640625 282.80189087 267.58203125 284.45288086 C266.76666337 286.40992057 265.9646809 288.37262116 265.1796875 290.34204102 C264.82777344 291.18822998 264.47585938 292.03441895 264.11328125 292.90625 C263.82235596 293.63134766 263.53143066 294.35644531 263.23168945 295.10351562 C260.44182443 299.39918886 255.58739328 300.57231539 250.85327148 301.75830078 C249.6270256 302.06953888 248.40077972 302.38077698 247.13737488 302.70144653 C246.48441122 302.86299351 245.83144756 303.02454048 245.15869713 303.19098282 C243.08167319 303.70506953 241.00757631 304.22981242 238.93379211 304.75680542 C232.11386599 306.48405512 225.28370398 308.16720772 218.4451313 309.81900406 C214.59075972 310.7505466 210.73837718 311.69012128 206.88671875 312.6328125 C206.12989429 312.81739265 205.37306984 313.00197281 204.59331131 313.1921463 C196.09894414 315.27651642 187.85320123 317.53762411 179.76953125 320.9296875 C151.5432695 332.30324828 123.94637999 316.9523474 97.63476562 305.78466797 C91.07775828 303.00291782 84.45452726 300.50945662 77.72949219 298.16821289 C73.66471877 296.42850441 72.49121043 295.03826553 70.59985352 291.04052734 C70.11444092 289.8180127 69.62902832 288.59549805 69.12890625 287.3359375 C68.85444168 286.65190857 68.57997711 285.96787964 68.29719543 285.26312256 C67.37859788 282.96982329 66.47066736 280.67244754 65.5625 278.375 C64.57479037 275.89998524 63.58435944 273.42607096 62.59368896 270.95223999 C61.88275492 269.17672196 61.17269642 267.40085314 60.46343994 265.62466431 C57.59709237 258.45628337 54.67611975 251.31121854 51.73828125 244.171875 C50.8397567 241.98519113 49.94123782 239.79850494 49.04272461 237.61181641 C47.72077241 234.39540804 46.39753891 231.179562 45.06985474 227.96551514 C36.70410832 207.70298525 30.35270656 187.45846928 24.5894165 166.30749512 C23.37518589 161.8542379 22.15498429 157.40261415 20.93450928 152.95106506 C20.25496837 150.4699188 19.57757808 147.98818246 18.90240479 145.50584412 C17.38793472 139.95626762 15.84509696 134.42250724 14.17285156 128.91821289 C11.38339351 119.70788354 9.06456333 111.42329091 9.625 101.6875 C9.65207031 100.73294922 9.67914063 99.77839844 9.70703125 98.79492188 C9.77535432 96.52887339 9.8827819 94.26404587 10 92 C6.7 92 3.4 92 0 92 C0 61.64 0 31.28 0 0 Z " fill="#36751C" transform="translate(27,29)"/>
<path d="M0 0 C108.24 0 216.48 0 328 0 C328 27.06 328 54.12 328 82 C219.76 82 111.52 82 0 82 C0 54.94 0 27.88 0 0 Z " fill="#FEFEFE" transform="translate(32,34)"/>
<path d="M0 0 C0.70863693 0.01764404 1.41727386 0.03528809 2.14738464 0.0534668 C8.74323925 0.22572484 15.33748161 0.46332046 21.93127441 0.70051575 C27.33805304 0.88726993 32.73837092 0.98772169 38.14820862 1.02009583 C41.70504608 1.05027725 45.25995692 1.12856342 48.81582642 1.2149353 C50.51087077 1.24568718 52.20641394 1.25655029 53.90170288 1.24575806 C66.91258748 1.18143356 73.92792367 4.45500303 83.33241272 13.40168762 C86.13464389 15.97207013 89.16920551 18.22979576 92.20703125 20.51171875 C93.23183594 21.29675781 94.25664062 22.08179688 95.3125 22.890625 C97.85891793 24.91082334 97.85891793 24.91082334 100.1484375 26.203125 C106.38860435 32.02641223 109.01984336 43.99940799 109.50390625 52.20703125 C109.62277689 58.80192557 109.18602265 65.35452897 108.76391602 71.93286133 C107.93671799 85.50690772 107.90513648 99.0407481 107.95703125 112.63671875 C107.98796875 124.17640625 107.98796875 124.17640625 108.01953125 135.94921875 C84.91953125 136.27921875 61.81953125 136.60921875 38.01953125 136.94921875 C38.01953125 144.20921875 38.01953125 151.46921875 38.01953125 158.94921875 C29.43953125 158.94921875 20.85953125 158.94921875 12.01953125 158.94921875 C12.34953125 152.34921875 12.67953125 145.74921875 13.01953125 138.94921875 C9.72855469 138.81644531 6.43757813 138.68367187 3.046875 138.546875 C-0.19020472 138.41493294 -3.42725659 138.28232612 -6.66430664 138.1496582 C-8.8898644 138.05879614 -11.11544987 137.96860992 -13.34106445 137.87915039 C-16.5659958 137.74939928 -19.79081497 137.61710339 -23.015625 137.484375 C-23.98814713 137.44578873 -24.96066925 137.40720245 -25.96266174 137.3674469 C-33.9793054 137.03365664 -41.97684961 136.50861355 -49.98046875 135.94921875 C-49.74006306 126.23772993 -49.49676574 116.52631879 -49.24997807 106.81499004 C-49.13541793 102.30353211 -49.02177982 97.79205524 -48.91040039 93.28051758 C-48.80247216 88.91025174 -48.69192429 84.5400587 -48.57971001 80.16990089 C-48.53775991 78.51934878 -48.49668592 76.8687741 -48.45659065 75.21817589 C-48.24149153 66.38866624 -47.96431125 57.56238891 -47.56225586 48.73925781 C-47.53211679 47.96669993 -47.50197771 47.19414206 -47.47092533 46.39817333 C-47.10886932 39.07846423 -45.39958904 32.76939905 -42.48046875 26.01171875 C-41.98361572 24.85945801 -41.4867627 23.70719727 -40.97485352 22.52001953 C-34.92011412 10.35519103 -24.82912521 5.96416936 -12.42553711 1.73583984 C-11.61866455 1.47625488 -10.81179199 1.21666992 -9.98046875 0.94921875 C-6.42639513 -0.23547246 -3.75036006 -0.10081232 0 0 Z " fill="#FEFE06" transform="translate(167.98046875,138.05078125)"/>
<path d="M0 0 C111.54 0 223.08 0 338 0 C338 30.36 338 60.72 338 92 C335.03 92 332.06 92 329 92 C329.08266113 93.71147217 329.08266113 93.71147217 329.16699219 95.45751953 C329.58275168 108.00585132 327.61356834 118.83864288 324.25 130.875 C323.74435451 132.74014866 323.24057525 134.60580411 322.73852539 136.47192383 C321.95505806 139.37975826 321.16893541 142.28668964 320.37269592 145.1910553 C318.53815484 151.89915658 316.85206489 158.6321567 315.23046875 165.39453125 C309.32399154 189.70475107 301.1813803 211.74176381 290.28710938 234.24267578 C286.91537563 241.22026164 283.7211511 248.27874832 280.51541138 255.3336792 C279.5163463 257.52661998 278.51024453 259.71618577 277.50170898 261.90478516 C274.56124239 268.29500778 271.67550421 274.69535983 268.95703125 281.18359375 C268.27640625 282.80189087 268.27640625 282.80189087 267.58203125 284.45288086 C266.76666337 286.40992057 265.9646809 288.37262116 265.1796875 290.34204102 C264.82777344 291.18822998 264.47585938 292.03441895 264.11328125 292.90625 C263.82235596 293.63134766 263.53143066 294.35644531 263.23168945 295.10351562 C260.44182443 299.39918886 255.58739328 300.57231539 250.85327148 301.75830078 C249.6270256 302.06953888 248.40077972 302.38077698 247.13737488 302.70144653 C246.48441122 302.86299351 245.83144756 303.02454048 245.15869713 303.19098282 C243.08167319 303.70506953 241.00757631 304.22981242 238.93379211 304.75680542 C232.11386599 306.48405512 225.28370398 308.16720772 218.4451313 309.81900406 C214.59075972 310.7505466 210.73837718 311.69012128 206.88671875 312.6328125 C206.12989429 312.81739265 205.37306984 313.00197281 204.59331131 313.1921463 C196.09894414 315.27651642 187.85320123 317.53762411 179.76953125 320.9296875 C151.5432695 332.30324828 123.94637999 316.9523474 97.63476562 305.78466797 C91.07775828 303.00291782 84.45452726 300.50945662 77.72949219 298.16821289 C73.66471877 296.42850441 72.49121043 295.03826553 70.59985352 291.04052734 C70.11444092 289.8180127 69.62902832 288.59549805 69.12890625 287.3359375 C68.85444168 286.65190857 68.57997711 285.96787964 68.29719543 285.26312256 C67.37859788 282.96982329 66.47066736 280.67244754 65.5625 278.375 C64.57479037 275.89998524 63.58435944 273.42607096 62.59368896 270.95223999 C61.88275492 269.17672196 61.17269642 267.40085314 60.46343994 265.62466431 C57.59709237 258.45628337 54.67611975 251.31121854 51.73828125 244.171875 C50.8397567 241.98519113 49.94123782 239.79850494 49.04272461 237.61181641 C47.72077241 234.39540804 46.39753891 231.179562 45.06985474 227.96551514 C36.70410832 207.70298525 30.35270656 187.45846928 24.5894165 166.30749512 C23.37518589 161.8542379 22.15498429 157.40261415 20.93450928 152.95106506 C20.25496837 150.4699188 19.57757808 147.98818246 18.90240479 145.50584412 C17.38793472 139.95626762 15.84509696 134.42250724 14.17285156 128.91821289 C11.38339351 119.70788354 9.06456333 111.42329091 9.625 101.6875 C9.65207031 100.73294922 9.67914063 99.77839844 9.70703125 98.79492188 C9.77535432 96.52887339 9.8827819 94.26404587 10 92 C6.7 92 3.4 92 0 92 C0 61.64 0 31.28 0 0 Z M5 5 C5 32.06 5 59.12 5 87 C113.24 87 221.48 87 333 87 C333 59.94 333 32.88 333 5 C224.76 5 116.52 5 5 5 Z M15 92 C14.84716317 110.29735363 14.84716317 110.29735363 18.22312927 127.59210205 C18.57060117 128.8232159 18.57060117 128.8232159 18.9250927 130.07920074 C19.16508554 130.92447075 19.40507839 131.76974075 19.65234375 132.640625 C20.15127193 134.462523 20.64858984 136.28486262 21.14442444 138.10760498 C22.18561865 141.91094814 23.24565494 145.70835323 24.32006836 149.50244141 C25.65560025 154.22398948 26.94359644 158.95689959 28.2181673 163.69521046 C35.01573906 188.86462648 43.67884492 212.67805788 54.08529663 236.56768799 C56.7544189 242.71362125 59.25807319 248.92321843 61.74609375 255.14453125 C62.54741903 257.13480871 63.34884723 259.12504474 64.15039062 261.11523438 C64.91296564 263.01424052 65.67533402 264.91332965 66.4375 266.8125 C67.65682952 269.84882205 68.8768386 272.88486297 70.09889221 275.92008972 C70.83841577 277.75693275 71.57643585 279.59438216 72.31260681 281.43257141 C72.63797928 282.24090927 72.96335175 283.04924713 73.29858398 283.88208008 C73.58040024 284.58448318 73.86221649 285.28688629 74.15257263 286.01057434 C75.90992167 290.58815574 75.90992167 290.58815574 79.7578125 293.37890625 C80.86898437 293.76949219 81.98015625 294.16007813 83.125 294.5625 C84.76855469 295.15224609 84.76855469 295.15224609 86.4453125 295.75390625 C87.61835937 296.16511719 88.79140625 296.57632813 90 297 C91.95830713 297.72584527 93.91240037 298.46241211 95.86669922 299.19897461 C99.73719421 300.65229277 103.61951299 302.07362516 107.5 303.5 C112.05460116 305.17416319 116.60831043 306.84940983 121.1484375 308.5625 C125.94644122 310.36683656 130.79089704 312.03648093 135.6328125 313.71875 C138.88430884 314.95597831 141.902591 316.42305825 145 318 C152.50796912 320.59366206 158.57485059 320.33849993 166.20678711 318.35107422 C166.89102249 318.17539413 167.57525787 317.99971405 168.28022766 317.81871033 C170.53140472 317.23863629 172.77927944 316.6466993 175.02734375 316.0546875 C176.61874361 315.64230919 178.21034633 315.23071305 179.80213928 314.81985474 C183.9984799 313.7346483 188.1921649 312.63951397 192.38531494 311.54205322 C197.38719079 310.23473525 202.39184869 308.93811356 207.39657402 307.6417532 C211.44171789 306.59354247 215.48554869 305.54079568 219.52664185 304.47706604 C226.51854902 302.6414117 233.50407979 300.85341358 240.56396484 299.29663086 C241.68114395 299.04386383 242.79832306 298.7910968 243.94935608 298.53067017 C245.9565393 298.08303476 247.96899681 297.65807916 249.98704529 297.26229858 C254.49352309 296.24545793 257.21207261 295.40379234 259.8984375 291.51074219 C261.34413382 288.86040078 262.49803625 286.22757521 263.29296875 283.30859375 C265.29944998 276.7401951 268.21920154 270.61546388 271.0625 264.375 C272.09741976 262.04401852 273.13003133 259.71201067 274.16015625 257.37890625 C277.99665321 248.73569079 281.87841514 240.10755088 286.1875 231.6875 C287.51983614 229.06723893 288.63485528 226.43189517 289.6875 223.6875 C291.33949738 219.41600081 293.27575472 215.33750905 295.28955078 211.22924805 C299.48522312 202.6356513 302.81070881 194.34858465 305 185 C305.32668138 183.62887252 305.65351107 182.25778037 305.98046875 180.88671875 C306.4934229 178.71959834 307.00247782 176.55176681 307.50341797 174.38183594 C309.00544777 167.87841324 310.71398826 161.43879773 312.46142578 154.99707031 C313.66308366 150.54124011 314.83796768 146.0780816 315.99267578 141.60986328 C317.14507665 137.16564658 318.35709937 132.74862967 319.65234375 128.34375 C319.92836426 127.37179688 320.20438477 126.39984375 320.48876953 125.3984375 C321.01291182 123.55415259 321.55494806 121.71479057 322.12060547 119.8828125 C324.84580741 110.10720319 324 103.04010184 324 92 C222.03 92 120.06 92 15 92 Z " fill="#161716" transform="translate(27,29)"/>
<path d="M0 0 C0.82757813 0.26425781 1.65515625 0.52851563 2.5078125 0.80078125 C3.29414063 1.01347656 4.08046875 1.22617188 4.890625 1.4453125 C7.0703125 2.11328125 7.0703125 2.11328125 10.5078125 3.80078125 C11.83379096 7.88103277 11.74953496 12.22837761 11.89672852 16.48999023 C11.92613525 17.24851791 11.95554199 18.00704559 11.98583984 18.78855896 C12.08179499 21.29119803 12.17188741 23.7940092 12.26171875 26.296875 C12.32727119 28.04982023 12.39310726 29.80275488 12.45921326 31.55567932 C12.59702223 35.2332381 12.73204705 38.91088522 12.86499023 42.58862305 C13.0341664 47.26522213 13.20916152 51.94158001 13.38617039 56.61788845 C13.52288893 60.24272846 13.6569508 63.86766304 13.790205 67.49263191 C13.85370745 69.21435127 13.91788389 70.93604592 13.98278999 72.65771294 C14.35974714 82.71219295 14.59916289 92.73761933 14.5078125 102.80078125 C3.58501754 103.97636704 -7.27244634 103.9148052 -18.2421875 103.86328125 C-20.11458213 103.8582549 -21.98697808 103.85369401 -23.859375 103.84960938 C-28.40367873 103.83869668 -32.94791831 103.82149496 -37.4921875 103.80078125 C-37.58981705 83.40071111 -37.6546941 63.00665825 -37.0546875 42.61328125 C-37.03503937 41.90439758 -37.01539124 41.19551392 -36.99514771 40.46514893 C-36.43441743 20.74301118 -36.43441743 20.74301118 -31.4921875 15.80078125 C-30.8321875 15.80078125 -30.1721875 15.80078125 -29.4921875 15.80078125 C-29.1621875 14.81078125 -28.8321875 13.82078125 -28.4921875 12.80078125 C-26.30892037 11.23796001 -24.15577062 9.81602839 -21.8671875 8.42578125 C-17.93347173 6.00742438 -14.22339233 3.66564201 -10.7421875 0.61328125 C-6.57683721 -1.70970257 -4.48385137 -1.22723149 0 0 Z " fill="#36761C" transform="translate(170.4921875,158.19921875)"/>
<path d="M0 0 C0.55187988 0.40806885 1.10375977 0.8161377 1.67236328 1.23657227 C2.66623047 1.93459961 2.66623047 1.93459961 3.68017578 2.64672852 C22.97144312 17.7024593 22.97144312 17.7024593 24.10905457 23.43841553 C24.13792252 24.23902405 24.16679047 25.03963257 24.1965332 25.86450195 C24.25624046 27.24225548 24.25624046 27.24225548 24.31715393 28.64784241 C24.3454277 29.64134201 24.37370148 30.63484161 24.40283203 31.65844727 C24.44306992 32.6996019 24.4833078 33.74075653 24.52476501 34.8134613 C24.65117658 38.20415555 24.75620942 41.5951121 24.85986328 44.98657227 C24.94049657 47.30470789 25.02171558 49.62282322 25.10351562 51.94091797 C25.69296521 69.37528756 25.93248943 86.79411343 25.67236328 104.23657227 C14.40559715 104.3421982 3.17963972 104.24124127 -8.07763672 103.73266602 C-9.16818359 103.68525269 -10.25873047 103.63783936 -11.38232422 103.58898926 C-14.03085818 103.47355151 -16.67928273 103.35605579 -19.32763672 103.23657227 C-18.79225823 70.21286036 -17.7793367 37.23263514 -16.32763672 4.23657227 C-14.0835997 3.34255752 -11.83473539 2.47141938 -9.57763672 1.61157227 C-8.94341797 1.35633789 -8.30919922 1.10110352 -7.65576172 0.83813477 C-2.89163866 -0.94841138 -2.89163866 -0.94841138 0 0 Z " fill="#37761B" transform="translate(227.32763671875,157.763427734375)"/>
<path d="M0 0 C0.33 0 0.66 0 1 0 C1.33 2.31 1.66 4.62 2 7 C2.99 6.01 3.98 5.02 5 4 C5.02562012 5.50578613 5.02562012 5.50578613 5.05175781 7.04199219 C5.40246314 18.62575756 7.66295313 29.11653651 10.75 40.25 C11.24662642 42.07785482 11.74253969 43.90590352 12.23779297 45.73413086 C13.2787229 49.5596197 14.33271328 53.38121423 15.39550781 57.20068359 C16.45653045 61.0188097 17.49772409 64.84134392 18.51855469 68.67041016 C25.5125343 94.8950199 34.22221807 119.70241583 45.08105469 144.57171631 C47.75793098 150.71814278 50.27681354 156.92597565 52.78125 163.14453125 C53.58722682 165.13477079 54.39321592 167.12500537 55.19921875 169.11523438 C55.57739746 170.05197998 55.95557617 170.98872559 56.34521484 171.95385742 C57.55623843 174.95171688 58.77224452 177.94753033 59.98828125 180.94335938 C60.77372585 182.88530007 61.55889503 184.82735218 62.34375 186.76953125 C62.7008606 187.6483345 63.05797119 188.52713776 63.42590332 189.43257141 C63.91407532 190.6450782 63.91407532 190.6450782 64.41210938 191.88208008 C64.69614624 192.58448318 64.98018311 193.28688629 65.27282715 194.01057434 C66 196 66 196 66.48059082 198.20072937 C66.65199585 198.79448868 66.82340088 199.38824799 67 200 C68.94054113 201.00736421 68.94054113 201.00736421 71.375 201.5 C77.06573852 203.00472411 82.48547005 204.9482324 88 207 C89.54666193 207.56958931 91.09355593 208.13854871 92.640625 208.70703125 C105.71394012 213.51263219 105.71394012 213.51263219 111.13671875 215.55859375 C115.93874812 217.36390836 120.78701097 219.03513076 125.6328125 220.71875 C128.88430884 221.95597831 131.902591 223.42305825 135 225 C142.54093967 227.60505189 148.62095019 227.32566468 156.28613281 225.33520508 C156.97839966 225.1579187 157.6706665 224.98063232 158.38391113 224.79797363 C160.65913557 224.21316567 162.93105162 223.61645339 165.203125 223.01953125 C166.80651405 222.60479869 168.41009449 222.19080547 170.01385498 221.7775116 C174.23679333 220.68708484 178.45701633 219.58648803 182.67675781 218.48376465 C186.90527973 217.38069814 191.13635668 216.28752944 195.3671875 215.19335938 C212.40997496 210.79446718 212.40997496 210.79446718 229.41992188 206.27099609 C230.31298035 206.03039963 231.20603882 205.78980316 232.12615967 205.54191589 C233.66161034 205.1263268 235.19569725 204.70563846 236.72784424 204.2780304 C240.2364756 203.32807505 243.36128862 202.78906654 247 203 C247.350625 201.824375 247.70125 200.64875 248.0625 199.4375 C249.6967094 194.54247276 251.81549257 189.94188365 254.02954102 185.28491211 C256.59480719 179.88918983 259.06083434 174.45380659 261.5 169 C270.855033 148.1341314 270.855033 148.1341314 275.1875 139.6875 C276.51983614 137.06723893 277.63485528 134.43189517 278.6875 131.6875 C280.33949738 127.41600081 282.27575472 123.33750905 284.28955078 119.22924805 C288.48522312 110.6356513 291.81070881 102.34858465 294 93 C294.32668138 91.62887252 294.65351107 90.25778037 294.98046875 88.88671875 C295.4934229 86.71959834 296.00247782 84.55176681 296.50341797 82.38183594 C298.00409192 75.88428376 299.71104177 69.45052319 301.45703125 63.01464844 C302.46778071 59.26433166 303.45114601 55.50679201 304.4375 51.75 C304.85676034 50.15494516 305.27603128 48.5598931 305.6953125 46.96484375 C305.90704102 46.15901855 306.11876953 45.35319336 306.33691406 44.52294922 C307.49432266 40.11917144 308.65352298 35.71586521 309.8125 31.3125 C310.23568474 29.7044291 310.65886256 28.09635638 311.08203125 26.48828125 C311.38496094 25.33714844 311.68789063 24.18601563 312 23 C313.65 23.66 315.3 24.32 317 25 C308.42794262 65.40521658 298.81774956 105.49998117 280.20654297 142.54882812 C276.78849116 149.38229043 273.66991045 156.35446611 270.52044678 163.31454468 C269.52100583 165.516226 268.51251472 167.71350271 267.50048828 169.90942383 C264.55967185 176.29778071 261.67490398 182.6967924 258.95703125 189.18359375 C258.27640625 190.80189087 258.27640625 190.80189087 257.58203125 192.45288086 C256.76666337 194.40992057 255.9646809 196.37262116 255.1796875 198.34204102 C254.82777344 199.18822998 254.47585938 200.03441895 254.11328125 200.90625 C253.67689331 201.99389648 253.67689331 201.99389648 253.23168945 203.10351562 C250.44182443 207.39918886 245.58739328 208.57231539 240.85327148 209.75830078 C239.6270256 210.06953888 238.40077972 210.38077698 237.13737488 210.70144653 C236.48441122 210.86299351 235.83144756 211.02454048 235.15869713 211.19098282 C233.08167319 211.70506953 231.00757631 212.22981242 228.93379211 212.75680542 C222.11386599 214.48405512 215.28370398 216.16720772 208.4451313 217.81900406 C204.59075972 218.7505466 200.73837718 219.69012128 196.88671875 220.6328125 C196.12989429 220.81739265 195.37306984 221.00197281 194.59331131 221.1921463 C186.09894414 223.27651642 177.85320123 225.53762411 169.76953125 228.9296875 C141.5432695 240.30324828 113.94637999 224.9523474 87.63476562 213.78466797 C81.07775828 211.00291782 74.45452726 208.50945662 67.72949219 206.16821289 C63.66471877 204.42850441 62.49121043 203.03826553 60.59985352 199.04052734 C60.11444092 197.8180127 59.62902832 196.59549805 59.12890625 195.3359375 C58.85444168 194.65190857 58.57997711 193.96787964 58.29719543 193.26312256 C57.37859788 190.96982329 56.47066736 188.67244754 55.5625 186.375 C54.57479037 183.89998524 53.58435944 181.42607096 52.59368896 178.95223999 C51.88275492 177.17672196 51.17269642 175.40085314 50.46343994 173.62466431 C47.59709237 166.45628337 44.67611975 159.31121854 41.73828125 152.171875 C40.8397567 149.98519113 39.94123782 147.79850494 39.04272461 145.61181641 C37.72077241 142.39540804 36.39753891 139.179562 35.06985474 135.96551514 C26.70410832 115.70298525 20.35270656 95.45846928 14.5894165 74.30749512 C13.37518589 69.8542379 12.15498429 65.40261415 10.93450928 60.95106506 C10.25496837 58.4699188 9.57757808 55.98818246 8.90240479 53.50584412 C7.38793472 47.95626762 5.84509696 42.42250724 4.17285156 36.91821289 C1.38339351 27.70788354 -0.93543667 19.42329091 -0.375 9.6875 C-0.34792969 8.73294922 -0.32085937 7.77839844 -0.29296875 6.79492188 C-0.22459095 4.52705816 -0.12789961 2.26513489 0 0 Z " fill="#060906" transform="translate(37,121)"/>
<path d="M0 0 C0.495 1.98 0.495 1.98 1 4 C-0.670625 4.12375 -0.670625 4.12375 -2.375 4.25 C-6.02613455 4.5859843 -6.02613455 4.5859843 -7.4375 6.9375 C-8.0877058 8.96528312 -8.0877058 8.96528312 -8 11 C-3.38 11.66 1.24 12.32 6 13 C6.91202686 15.73608059 7.15777985 17.54602233 7.24609375 20.37890625 C7.27896484 21.21744141 7.31183594 22.05597656 7.34570312 22.91992188 C7.40703202 24.68541125 7.46430676 26.451046 7.51757812 28.21679688 C7.55173828 29.05404297 7.58589844 29.89128906 7.62109375 30.75390625 C7.6461499 31.52033447 7.67120605 32.2867627 7.69702148 33.07641602 C7.8438541 35.23617236 7.8438541 35.23617236 10 37 C10.22705078 38.99789429 10.22705078 38.99789429 10.1953125 41.47802734 C10.18870605 42.40594086 10.18209961 43.33385437 10.17529297 44.28988647 C10.15869629 45.29508331 10.14209961 46.30028015 10.125 47.3359375 C10.11742676 48.36683502 10.10985352 49.39773254 10.10205078 50.45986938 C10.06926581 54.88262015 10.01309052 59.30500596 9.95898438 63.72753906 C9.92286011 66.95115457 9.89863847 70.17471018 9.875 73.3984375 C9.85840332 74.39958588 9.84180664 75.40073425 9.82470703 76.43222046 C9.81810059 77.36643829 9.81149414 78.30065613 9.8046875 79.26318359 C9.79421387 80.08321869 9.78374023 80.90325378 9.77294922 81.74813843 C10.02413209 84.23933911 10.84670462 85.803821 12 88 C11.70630173 89.34262065 11.3721042 90.67696283 11 92 C11.1551709 92.60368408 11.3103418 93.20736816 11.47021484 93.8293457 C12.06161606 96.2524555 12.03919073 98.2424941 11.9140625 100.73046875 C11.87023437 101.61541016 11.82640625 102.50035156 11.78125 103.41210938 C11.70390625 104.78592773 11.70390625 104.78592773 11.625 106.1875 C11.58117187 107.11498047 11.53734375 108.04246094 11.4921875 108.99804688 C11.13025458 115.86974542 11.13025458 115.86974542 10 117 C8.31198015 117.09353163 6.62004793 117.11744791 4.92944336 117.11352539 C3.84839828 117.11344986 2.76735321 117.11337433 1.65354919 117.11329651 C-0.110485 117.10555458 -0.110485 117.10555458 -1.91015625 117.09765625 C-3.10732773 117.0962413 -4.30449921 117.09482635 -5.53794861 117.09336853 C-9.37949066 117.08774979 -13.22097543 117.07519411 -17.0625 117.0625 C-19.65950437 117.05748741 -22.25650965 117.05292409 -24.85351562 117.04882812 C-31.23569679 117.03777427 -37.6178443 117.02101792 -44 117 C-45.20270964 114.59458071 -45.20316663 112.89633409 -45.31640625 110.2109375 C-45.35830078 109.26992187 -45.40019531 108.32890625 -45.44335938 107.359375 C-45.48267578 106.37453125 -45.52199219 105.3896875 -45.5625 104.375 C-45.62727539 102.88613281 -45.62727539 102.88613281 -45.69335938 101.3671875 C-45.79961069 98.91160162 -45.90164964 96.45591297 -46 94 C-47.98 94.495 -47.98 94.495 -50 95 C-50.0501123 95.6612085 -50.10022461 96.32241699 -50.15185547 97.00366211 C-50.38311178 99.98246362 -50.62885608 102.95989335 -50.875 105.9375 C-50.95363281 106.97841797 -51.03226562 108.01933594 -51.11328125 109.09179688 C-51.19707031 110.08115234 -51.28085938 111.07050781 -51.3671875 112.08984375 C-51.44050293 113.00628662 -51.51381836 113.92272949 -51.58935547 114.86694336 C-51.72486816 115.57085205 -51.86038086 116.27476074 -52 117 C-52.99 117.495 -52.99 117.495 -54 118 C-54.68729254 120.11846285 -54.68729254 120.11846285 -55.125 122.5625 C-55.29257813 123.38878906 -55.46015625 124.21507812 -55.6328125 125.06640625 C-55.75398438 125.70449219 -55.87515625 126.34257812 -56 127 C-53.36 126.67 -50.72 126.34 -48 126 C-48 125.34 -48 124.68 -48 124 C-46.68 124 -45.36 124 -44 124 C-44 124.99 -44 125.98 -44 127 C-33.44 126.67 -22.88 126.34 -12 126 C-11.67 126.99 -11.34 127.98 -11 129 C-15.28262988 129.02517599 -19.56521779 129.04307876 -23.84790039 129.05493164 C-25.29745232 129.05988546 -26.74699946 129.06665038 -28.1965332 129.07543945 C-30.30941974 129.08790702 -32.42223899 129.09331742 -34.53515625 129.09765625 C-35.797229 129.10289307 -37.05930176 129.10812988 -38.35961914 129.11352539 C-44.91569861 129.03660327 -51.46300102 128.47174495 -58 128 C-57.75959431 118.28851118 -57.51629699 108.57710004 -57.26950932 98.86577129 C-57.15494918 94.35431336 -57.04131107 89.84283649 -56.92993164 85.33129883 C-56.82200341 80.96103299 -56.71145554 76.59083995 -56.59924126 72.22068214 C-56.55729116 70.57013003 -56.51621717 68.91955535 -56.4761219 67.26895714 C-56.34398552 61.8449488 -56.18432683 56.42248031 -56 51 C-55.97332685 50.16174997 -55.94665371 49.32349995 -55.91917229 48.4598484 C-55.83307213 45.9022621 -55.73033008 43.34583954 -55.62304688 40.7890625 C-55.59843919 40.0163737 -55.5738315 39.2436849 -55.54847813 38.44758129 C-55.19922865 30.94866442 -52.79271998 25.02712875 -49.4375 18.3125 C-48.65729492 16.65250977 -48.65729492 16.65250977 -47.86132812 14.95898438 C-46.60231577 12.29080222 -45.3163858 9.64020881 -44 7 C-43.15503973 10.11579101 -43 12.7736087 -43 16 C-42.70955086 17.34332728 -42.39044206 18.68225804 -42 20 C-42.99 20.33 -43.98 20.66 -45 21 C-45.33 20.34 -45.66 19.68 -46 19 C-45.67 20.32 -45.34 21.64 -45 23 C-43.02 23 -41.04 23 -39 23 C-38.855625 22.195625 -38.71125 21.39125 -38.5625 20.5625 C-38 18 -38 18 -37 17 C-35.00041636 16.95919217 -32.99954746 16.95745644 -31 17 C-30.67 16.01 -30.34 15.02 -30 14 C-28.68 14 -27.36 14 -26 14 C-26 14.66 -26 15.32 -26 16 C-27.32 16 -28.64 16 -30 16 C-29.01 16.99 -28.02 17.98 -27 19 C-24.8697465 17.22574183 -24.8697465 17.22574183 -24.5625 15.0625 C-23.86639239 12.51010541 -23.15093882 11.53638487 -21 10 C-18.3125 9.8125 -18.3125 9.8125 -16 10 C-15.67 9.34 -15.34 8.68 -15 8 C-14.01 7.34 -13.02 6.68 -12 6 C-12 5.01 -12 4.02 -12 3 C-4.71428571 -0.42857143 -4.71428571 -0.42857143 0 0 Z M-16.58203125 13.265625 C-17.26716797 13.74386719 -17.95230469 14.22210938 -18.65820312 14.71484375 C-19.36912109 15.22144531 -20.08003906 15.72804687 -20.8125 16.25 C-22.21461012 17.23470775 -23.61695037 18.2190879 -25.01953125 19.203125 C-25.69064941 19.67943359 -26.36176758 20.15574219 -27.05322266 20.64648438 C-28.84545549 21.89255145 -30.66786548 23.06687202 -32.51171875 24.234375 C-33.33285156 24.81703125 -34.15398437 25.3996875 -35 26 C-35 26.66 -35 27.32 -35 28 C-35.99 28.33 -36.98 28.66 -38 29 C-44.08073973 35.08073973 -42.33998947 46.78455713 -42.5625 54.8125 C-42.58367889 55.5323407 -42.60485779 56.2521814 -42.62667847 56.99383545 C-43.19424264 76.65847028 -43.09413838 96.32942265 -43 116 C-37.52311525 116.02496476 -32.04626459 116.04298372 -26.56933594 116.05493164 C-24.71125714 116.05991956 -22.85318218 116.06671228 -20.99511719 116.07543945 C-10.94057449 116.12143709 -1.01051236 116.0773997 9 115 C9.09330305 104.09943916 8.80576203 93.23554824 8.4140625 82.34375 C8.38346111 81.48147293 8.35285973 80.61919586 8.32133102 79.73078918 C8.15982183 75.18500071 7.99526956 70.63933462 7.828125 66.09375 C7.65673325 61.41593186 7.49606537 56.7378074 7.33771706 52.05953217 C7.21322803 48.43902287 7.08083932 44.81883317 6.94630051 41.19868469 C6.88354971 39.47327645 6.8237594 37.7477578 6.76704788 36.0221405 C6.68721886 33.61528062 6.59617654 31.20908737 6.50244141 28.80273438 C6.47114891 27.74599518 6.47114891 27.74599518 6.43922424 26.66790771 C6.26137834 22.46730206 5.72450166 18.85201161 4 15 C0.82171492 13.40210168 0.82171492 13.40210168 -2.9375 12.625 C-4.18402344 12.30789062 -5.43054688 11.99078125 -6.71484375 11.6640625 C-11.09719859 10.77821194 -12.99098653 10.72922379 -16.58203125 13.265625 Z " fill="#FEFE0E" transform="translate(176,146)"/>
<path d="M0 0 C101.97 0 203.94 0 309 0 C309 19 309 19 307 26 C306.67 26 306.34 26 306 26 C306 18.41 306 10.82 306 3 C205.68 3 105.36 3 2 3 C2 3.99 2 4.98 2 6 C2.66 6.33 3.32 6.66 4 7 C4.02697137 9.60423592 4.04682489 12.20819244 4.0625 14.8125 C4.07087891 15.55048828 4.07925781 16.28847656 4.08789062 17.04882812 C4.10259828 20.29922068 4.03531702 22.89404895 3 26 C3.66 26.33 4.32 26.66 5 27 C5.6328125 29.328125 5.6328125 29.328125 6.125 32.25 C6.37636719 33.68085938 6.37636719 33.68085938 6.6328125 35.140625 C6.97444439 37.80099245 7.06841462 40.32205635 7 43 C-0.46364319 29.57241763 0 15.04335959 0 0 Z M4 5 C4.66 5 5.32 5 6 5 C6 5.66 6 6.32 6 7 C5.34 7 4.68 7 4 7 C4 6.34 4 5.68 4 5 Z " fill="#3E6D2E" transform="translate(42,121)"/>
<path d="M0 0 C2.36034293 0.02389942 4.72069499 0.04691071 7.08105469 0.0690918 C13.12953986 0.15843775 19.1746006 0.30867545 25.2205925 0.49989605 C28.84336417 0.61296975 32.46345489 0.70261008 36.08789062 0.73754883 C65.67554185 1.05205673 65.67554185 1.05205673 77.64599609 12.64550781 C78.18825836 13.20085709 78.73052063 13.75620636 79.28921509 14.3283844 C82.24103746 17.21262326 85.56866141 19.60391834 88.875 22.0625 C95.10428597 26.80044112 98.01819834 30.46411238 100.5625 37.9375 C102.19661546 42.78018922 102.19661546 42.78018922 104.140625 47.5 C105.26984957 50.78501693 105.22699298 53.59070832 105.1875 57.0625 C105.18032959 57.74642822 105.17315918 58.43035645 105.16577148 59.13500977 C104.98501017 71.12015432 104.41795561 83.09632225 103 95 C102.67 95 102.34 95 102 95 C102.05498657 93.05903442 102.05498657 93.05903442 102.11108398 91.07885742 C102.23976161 86.18305661 102.31884764 81.2873977 102.38452148 76.39038086 C102.41928208 74.28888655 102.46670867 72.1875556 102.52807617 70.08666992 C102.91590282 56.44755638 103.24708754 39.26330632 93.51141357 28.32798767 C90.50058827 25.52863987 87.23491741 23.28728843 83.75683594 21.13134766 C80.691383 19.15729139 77.86483651 16.87570729 75 14.625 C73.96875 13.83351562 72.9375 13.04203125 71.875 12.2265625 C69 10 69 10 66.81640625 7.91040039 C63.25367925 5.49376215 60.23317454 5.32101281 56.0625 5.20703125 C55.28226471 5.17039871 54.50202942 5.13376617 53.69815063 5.09602356 C51.13247171 4.98106304 48.56692811 4.89460423 46 4.8125 C44.20228797 4.74787596 42.40459927 4.68260002 40.60693359 4.61669922 C37.83217048 4.51572813 35.05746003 4.41704501 32.28231812 4.32702637 C26.99350145 4.14733981 21.73150704 3.85876726 16.45689392 3.43286133 C-4.30187949 1.7622553 -18.75643839 2.88486999 -36.97338867 13.88256836 C-39 15 -39 15 -41 15 C-41.16870605 15.55252441 -41.33741211 16.10504883 -41.51123047 16.67431641 C-42.77201881 20.64533648 -44.12185947 24.4285701 -46.0078125 28.1484375 C-46.35457031 28.84582031 -46.70132813 29.54320312 -47.05859375 30.26171875 C-47.75549375 31.64275501 -48.47354415 33.01337298 -49.21484375 34.37109375 C-53.26960922 42.73879327 -52.78176563 51.90966661 -53 61 C-53.05759056 62.97966388 -53.11526034 64.95932587 -53.1744709 66.93894196 C-53.52636911 78.71055348 -53.82757937 90.48349805 -54.125 102.2565918 C-54.22637057 106.25970785 -54.33181472 110.2627004 -54.43969727 114.26564598 C-54.47955961 115.7762053 -54.51783607 117.2868074 -54.55444336 118.79744911 C-54.60540577 120.89934598 -54.66152867 123.00104871 -54.71875 125.1027832 C-54.74904297 126.29345901 -54.77933594 127.48413483 -54.81054688 128.71089172 C-54.99273092 131.873801 -55.41570843 134.8886141 -56 138 C-55.34 138.33 -54.68 138.66 -54 139 C-55.32 139 -56.64 139 -58 139 C-57.88468465 126.68711366 -57.70500401 114.37688332 -57.44829178 102.06608868 C-57.33093203 96.34629837 -57.23386398 90.62781921 -57.18701172 84.90698242 C-56.68492971 28.00205556 -56.68492971 28.00205556 -41.21820068 12.1769104 C-37.204784 8.79407642 -32.97131857 7.01545807 -28.0625 5.3125 C-26.77850782 4.76901556 -25.49786844 4.21754204 -24.22070312 3.65820312 C-15.81469449 0.19398058 -9.07287657 -0.21933327 0 0 Z " fill="#1C2C03" transform="translate(174,136)"/>
<path d="M0 0 C1.8256792 1.3692594 3.64480147 2.74324324 5.44921875 4.140625 C8.00791453 6.07039749 8.00791453 6.07039749 10.95703125 7.734375 C20.33499175 13.63246336 23.88899381 20.78228721 26.50195312 31.36914062 C28.2294448 40.49436134 27.33465689 49.78453062 26.74438477 58.98364258 C25.91718674 72.55768897 25.88560523 86.09152935 25.9375 99.6875 C25.958125 107.380625 25.97875 115.07375 26 123 C-8.65 123.495 -8.65 123.495 -44 124 C-44 131.26 -44 138.52 -44 146 C-52.58 146 -61.16 146 -70 146 C-70 144.35 -70 142.7 -70 141 C-69.67 142.32 -69.34 143.64 -69 145 C-61.41 144.67 -53.82 144.34 -46 144 C-46.33 143.01 -46.66 142.02 -47 141 C-47.66 140.67 -48.32 140.34 -49 140 C-49 139.01 -49 138.02 -49 137 C-48.34 137 -47.68 137 -47 137 C-47 136.34 -47 135.68 -47 135 C-49.475 135.99 -49.475 135.99 -52 137 C-52 134.03 -52 131.06 -52 128 C-50.35 128.66 -48.7 129.32 -47 130 C-47 128.35 -47 126.7 -47 125 C-47.66 124.67 -48.32 124.34 -49 124 C-48.505 122.515 -48.505 122.515 -48 121 C-25 121 -2 121 21 121 C21.67008622 115.01913419 22.12746356 109.14760913 22.1328125 103.12890625 C22.13424759 102.09539284 22.13424759 102.09539284 22.13571167 101.04100037 C22.13638394 99.60684109 22.13459732 98.17267859 22.13037109 96.73852539 C22.12495042 94.5424122 22.13037796 92.34649811 22.13671875 90.15039062 C22.13605893 88.74739538 22.13477975 87.34440027 22.1328125 85.94140625 C22.13112061 84.04950562 22.13112061 84.04950562 22.12939453 82.11938477 C22.14270389 78.96704876 22.14270389 78.96704876 21 76 C20.52866371 68.69428755 20.52866371 68.69428755 22.48852539 65.80737305 C24.35643698 62.33796336 24.42815323 59.87679805 24.51171875 55.94921875 C24.53864555 54.96100883 24.53864555 54.96100883 24.56611633 53.95283508 C24.61996656 51.86445369 24.65403108 49.7762974 24.6875 47.6875 C24.7206957 46.2649428 24.75518744 44.84241521 24.79101562 43.41992188 C24.87567601 39.94683085 24.9426077 36.47366087 25 33 C24.34 33 23.68 33 23 33 C23 31.35 23 29.7 23 28 C22.34 28 21.68 28 21 28 C21 26.02 21 24.04 21 22 C20.34 22 19.68 22 19 22 C19 20.35 19 18.7 19 17 C18.01 17 17.02 17 16 17 C16 18.65 16 20.3 16 22 C12.54092349 22.86476913 10.40764342 22.90870491 7 22 C5.515 22.495 5.515 22.495 4 23 C2 21.1875 2 21.1875 0 19 C0 18.01 0 17.02 0 16 C0.99 15.67 1.98 15.34 3 15 C3.495 16.98 3.495 16.98 4 19 C5.98 18.34 7.96 17.68 10 17 C10 17.66 10 18.32 10 19 C10.66 19 11.32 19 12 19 C12 19.66 12 20.32 12 21 C12.66 21 13.32 21 14 21 C13.505 17.535 13.505 17.535 13 14 C11.02 14 9.04 14 7 14 C6.505 13.01 6.505 13.01 6 12 C7.32 11.34 8.64 10.68 10 10 C8.35 9.34 6.7 8.68 5 8 C5 7.34 5 6.68 5 6 C4.360625 5.7525 3.72125 5.505 3.0625 5.25 C1 4 1 4 0.37109375 1.921875 C0.24863281 1.28765625 0.12617188 0.6534375 0 0 Z " fill="#DCDE49" transform="translate(250,151)"/>
<path d="M0 0 C0.7734375 0.495 0.7734375 0.495 1.5625 1 C1.2325 1.99 0.9025 2.98 0.5625 4 C0.01464844 3.47921875 -0.53320312 2.9584375 -1.09765625 2.421875 C-3.36094039 0.7146838 -3.36094039 0.7146838 -6.05859375 1.328125 C-7.45271484 1.78445312 -7.45271484 1.78445312 -8.875 2.25 C-12.39404429 3.36591391 -15.81163877 4.30486898 -19.4375 5 C-19.4211853 6.69962891 -19.4211853 6.69962891 -19.40454102 8.43359375 C-19.30687903 23.8467946 -19.74624243 39.2380601 -20.23706055 54.64111328 C-20.35337791 58.29245365 -20.46403832 61.9439403 -20.57306576 65.59550476 C-20.65923584 68.46123197 -20.7483259 71.32686299 -20.83825874 74.19247437 C-20.90016682 76.18010715 -20.95976151 78.16781156 -21.01927185 80.15551758 C-21.27771545 88.12614344 -21.75428866 96.05445489 -22.4375 104 C-21.75482056 103.9944812 -21.07214111 103.9889624 -20.36877441 103.98327637 C-17.49586528 103.96159999 -14.6229639 103.94984546 -11.75 103.9375 C-10.2969043 103.92493164 -10.2969043 103.92493164 -8.81445312 103.91210938 C1.66090205 103.87885428 12.10500731 104.44677762 22.5625 105 C22.32126009 97.13116363 22.07789181 89.26239597 21.83200932 81.39370346 C21.71782514 77.7375964 21.60429941 74.08147169 21.49243164 70.42529297 C21.23923078 62.16551453 20.96870215 53.90661682 20.68063354 45.64797974 C20.57324263 42.33173399 20.49217247 39.016139 20.42016602 35.69897461 C20.36670466 33.90736961 20.31264351 32.11578235 20.2578125 30.32421875 C20.24507042 29.15672089 20.24507042 29.15672089 20.23207092 27.96563721 C20.04313355 22.81015368 18.7005596 19.96664211 15.375 16.0625 C13.81657455 14.6559339 12.2147415 13.29507378 10.5625 12 C9.60730469 11.15888672 9.60730469 11.15888672 8.6328125 10.30078125 C7.31702287 9.15182619 5.94707597 8.06505844 4.5625 7 C5.2225 6.67 5.8825 6.34 6.5625 6 C7.2225 6.33 7.8825 6.66 8.5625 7 C8.5625 7.66 8.5625 8.32 8.5625 9 C9.531875 9.2475 10.50125 9.495 11.5 9.75 C12.510625 10.1625 13.52125 10.575 14.5625 11 C15.4375 13.125 15.4375 13.125 15.5625 15 C16.5525 15 17.5425 15 18.5625 15 C19.61142238 16.63631892 20.61156703 18.30485863 21.5625 20 C22.2225 20.33 22.8825 20.66 23.5625 21 C23.55202637 22.19971436 23.54155273 23.39942871 23.53076172 24.63549805 C23.48548462 30.31944986 23.45896086 36.00341311 23.4375 41.6875 C23.432948 42.71799469 23.428396 43.74848938 23.42370605 44.81021118 C23.38603926 55.95471055 23.45518983 67.06169395 24.1484375 78.1875 C24.20172211 79.04616165 24.25500671 79.9048233 24.30990601 80.789505 C24.57062739 84.83361102 24.86703043 88.87233454 25.20263672 92.91088867 C25.30709222 94.35073956 25.41142886 95.79059907 25.515625 97.23046875 C25.62036133 98.47207764 25.72509766 99.71368652 25.83300781 100.99291992 C25.5625 104 25.5625 104 24.18920898 105.91625977 C20.03012665 107.63223397 16.02735988 107.27143695 11.58203125 107.109375 C10.61343674 107.08530579 9.64484222 107.06123657 8.64689636 107.03643799 C6.60334413 106.98284324 4.55997423 106.92185629 2.5168457 106.85400391 C-0.62329526 106.75005643 -3.76341731 106.66796653 -6.90429688 106.58984375 C-8.88805625 106.53512322 -10.87178225 106.47917619 -12.85546875 106.421875 C-13.80020554 106.39575134 -14.74494232 106.36962769 -15.7183075 106.3427124 C-16.58623428 106.31308411 -17.45416107 106.28345581 -18.34838867 106.25292969 C-19.11575851 106.22833679 -19.88312836 106.2037439 -20.67375183 106.17840576 C-22.4375 106 -22.4375 106 -23.4375 105 C-23.53835491 102.99032328 -23.56832289 100.97704858 -23.5703125 98.96484375 C-23.57232666 97.69423096 -23.57434082 96.42361816 -23.57641602 95.11450195 C-23.57231114 93.72216629 -23.56765805 92.32983216 -23.5625 90.9375 C-23.56128143 90.2300766 -23.56006287 89.5226532 -23.55880737 88.79379272 C-23.53949825 79.21822326 -23.35566346 69.66643125 -22.859375 60.10253906 C-22.51069948 53.01358884 -22.35638785 45.93182162 -22.25390625 38.8359375 C-22.22142759 36.82055414 -22.18879279 34.80517329 -22.15600586 32.78979492 C-22.10682089 29.74571094 -22.06263516 26.70197636 -22.03421021 23.65762329 C-22.00712047 20.79614167 -21.96218996 17.93541276 -21.9140625 15.07421875 C-21.91084488 14.20344696 -21.90762726 13.33267517 -21.90431213 12.43551636 C-21.88771042 11.63139313 -21.8711087 10.8272699 -21.85400391 9.9987793 C-21.84591705 9.29617477 -21.8378302 8.59357025 -21.82949829 7.86967468 C-21.31981249 5.43867774 -20.32736799 4.56282606 -18.4375 3 C-12.57817676 -0.395228 -6.61704444 -2.7146849 0 0 Z " fill="#E7F442" transform="translate(230.4375,157)"/>
<path d="M0 0 C2.97 0 5.94 0 9 0 C9.91202686 2.73608059 10.15777985 4.54602233 10.24609375 7.37890625 C10.27896484 8.21744141 10.31183594 9.05597656 10.34570312 9.91992188 C10.40703202 11.68541125 10.46430676 13.451046 10.51757812 15.21679688 C10.55173828 16.05404297 10.58589844 16.89128906 10.62109375 17.75390625 C10.6461499 18.52033447 10.67120605 19.2867627 10.69702148 20.07641602 C10.8438541 22.23617236 10.8438541 22.23617236 13 24 C13.22705078 25.99789429 13.22705078 25.99789429 13.1953125 28.47802734 C13.18870605 29.40594086 13.18209961 30.33385437 13.17529297 31.28988647 C13.15869629 32.29508331 13.14209961 33.30028015 13.125 34.3359375 C13.11742676 35.36683502 13.10985352 36.39773254 13.10205078 37.45986938 C13.06926581 41.88262015 13.01309052 46.30500596 12.95898438 50.72753906 C12.92286011 53.95115457 12.89863847 57.17471018 12.875 60.3984375 C12.85840332 61.39958588 12.84180664 62.40073425 12.82470703 63.43222046 C12.81810059 64.36643829 12.81149414 65.30065613 12.8046875 66.26318359 C12.79421387 67.08321869 12.78374023 67.90325378 12.77294922 68.74813843 C13.02413209 71.23933911 13.84670462 72.803821 15 75 C14.70630173 76.34262065 14.3721042 77.67696283 14 79 C14.1551709 79.60368408 14.3103418 80.20736816 14.47021484 80.8293457 C15.06161606 83.2524555 15.03919073 85.2424941 14.9140625 87.73046875 C14.87023437 88.61541016 14.82640625 89.50035156 14.78125 90.41210938 C14.7296875 91.32798828 14.678125 92.24386719 14.625 93.1875 C14.58117187 94.11498047 14.53734375 95.04246094 14.4921875 95.99804688 C14.13025458 102.86974542 14.13025458 102.86974542 13 104 C11.31198015 104.09353163 9.62004793 104.11744791 7.92944336 104.11352539 C6.84839828 104.11344986 5.76735321 104.11337433 4.65354919 104.11329651 C2.889515 104.10555458 2.889515 104.10555458 1.08984375 104.09765625 C-0.10732773 104.0962413 -1.30449921 104.09482635 -2.53794861 104.09336853 C-6.37949066 104.08774979 -10.22097543 104.07519411 -14.0625 104.0625 C-16.65950437 104.05748741 -19.25650965 104.05292409 -21.85351562 104.04882812 C-28.23569679 104.03777427 -34.6178443 104.02101792 -41 104 C-42.65697867 100.68604265 -42.13577707 96.99316707 -42.11328125 93.3515625 C-42.10836418 91.97588608 -42.10836418 91.97588608 -42.10334778 90.57241821 C-42.0251343 78.217471 -41.68788187 65.86737737 -41.31030273 53.51855469 C-41.22555772 50.72411877 -41.14962447 47.92963859 -41.08081055 45.13476562 C-40.98035185 41.05540889 -40.85643649 36.97708748 -40.73046875 32.8984375 C-40.70220505 31.64549896 -40.67394135 30.39256042 -40.64482117 29.10165405 C-40.60500626 27.9483963 -40.56519135 26.79513855 -40.52416992 25.60693359 C-40.49530197 24.59327728 -40.46643402 23.57962097 -40.43669128 22.5352478 C-39.93228862 19.60689594 -39.18116548 18.90644476 -37 17 C-36.67 16.01 -36.34 15.02 -36 14 C-35.34 14 -34.68 14 -34 14 C-34 13.34 -34 12.68 -34 12 C-33.01 12.33 -32.02 12.66 -31 13 C-31.42152344 13.42410156 -31.84304687 13.84820312 -32.27734375 14.28515625 C-32.82519531 14.87167969 -33.37304688 15.45820313 -33.9375 16.0625 C-34.48277344 16.63097656 -35.02804688 17.19945312 -35.58984375 17.78515625 C-38.6888723 22.65260552 -38.17292643 29.13562346 -38.29711914 34.77124023 C-38.31677231 35.51353378 -38.33642548 36.25582733 -38.35667419 37.02061462 C-38.42003788 39.44985963 -38.47764188 41.87920383 -38.53515625 44.30859375 C-38.5782106 46.00253698 -38.62162731 47.69647104 -38.66539001 49.39039612 C-38.77913613 53.83063414 -38.88798361 58.27097903 -38.99578857 62.71136475 C-39.12640172 68.04881759 -39.26313894 73.38611668 -39.39884186 78.72344208 C-39.60390297 86.81552032 -39.801216 94.90775416 -40 103 C-22.84 102.67 -5.68 102.34 12 102 C11.67 97.38 11.34 92.76 11 88 C10.85671976 85.04701777 10.72494916 82.10022234 10.62695312 79.14624023 C10.59915268 78.37194168 10.57135223 77.59764313 10.54270935 76.79988098 C10.48381706 75.15226917 10.42601051 73.50461822 10.36924744 71.85693169 C10.27908008 69.24575441 10.18544746 66.63472059 10.09094238 64.0236969 C9.82325934 56.61191321 9.5615688 49.19992233 9.30224609 41.7878418 C9.14242065 37.22636971 8.97863999 32.66505312 8.81248474 28.10380745 C8.75033277 26.374731 8.68973812 24.64559781 8.63075256 22.91641045 C8.54854316 20.50719529 8.46133797 18.09820783 8.37304688 15.68920898 C8.35016098 14.98112091 8.32727509 14.27303284 8.30369568 13.54348755 C8.16590323 9.93185898 7.83090916 6.52005994 7 3 C4.69 2.34 2.38 1.68 0 1 C0 0.67 0 0.34 0 0 Z " fill="#EBF73F" transform="translate(173,159)"/>
<path d="M0 0 C0.33 0 0.66 0 1 0 C1.0501123 0.86278564 1.10022461 1.72557129 1.15185547 2.61450195 C1.34224943 5.81860356 1.5407054 9.02207504 1.74462891 12.2253418 C1.83119509 13.61121135 1.91455496 14.9972851 1.99462891 16.38354492 C2.11035382 18.37729951 2.23860899 20.37031432 2.3671875 22.36328125 C2.44050293 23.56251221 2.51381836 24.76174316 2.58935547 25.99731445 C2.80124175 29.17510979 2.80124175 29.17510979 5 32 C6.09566959 35.28700877 6.45243698 37.01029411 5 40.1875 C4.67 40.785625 4.34 41.38375 4 42 C-0.23176701 42.02499226 -4.46349323 42.04299623 -8.6953125 42.05493164 C-10.13054148 42.05991507 -11.56576551 42.06670425 -13.00097656 42.07543945 C-20.15462728 42.11784254 -27.21234637 42.09719143 -34.32763672 41.25610352 C-40.56723193 40.65813756 -46.86121703 40.61373184 -53.125 40.4375 C-54.57292622 40.39419844 -56.02084302 40.35058094 -57.46875 40.30664062 C-60.97906603 40.20020656 -64.48948004 40.10023963 -68 40 C-68 47.26 -68 54.52 -68 62 C-77.24 62 -86.48 62 -96 62 C-96 48.5 -96 48.5 -95 42 C-95.83990479 42.01160156 -96.67980957 42.02320313 -97.54516602 42.03515625 C-108.70268384 42.1188283 -119.79826991 41.59676235 -130.9375 41 C-132.79620559 40.90329214 -134.6549295 40.80693579 -136.51367188 40.7109375 C-141.00933552 40.47799864 -145.50472644 40.24034452 -150 40 C-150 39.67 -150 39.34 -150 39 C-115.54936835 38.81014913 -115.54936835 38.81014913 -102.375 39.4375 C-101.5188208 39.47673584 -100.6626416 39.51597168 -99.78051758 39.55639648 C-94.13396741 39.86603259 -94.13396741 39.86603259 -93 41 C-93.06527605 43.43301627 -93.19235431 45.8253784 -93.375 48.25 C-93.41882813 48.91902344 -93.46265625 49.58804688 -93.5078125 50.27734375 C-93.76845096 53.96248194 -94.27186802 57.35934008 -95 61 C-86.42 61 -77.84 61 -69 61 C-69 53.74 -69 46.48 -69 39 C-54.52528227 37.74519512 -40.08256697 37.88815319 -25.5625 37.9375 C-22.98112066 37.94252498 -20.39974037 37.94708612 -17.81835938 37.95117188 C-11.54555198 37.96209854 -5.2727805 37.97875756 1 38 C0.92894547 37.13973709 0.85789093 36.27947418 0.78468323 35.3931427 C0.32601851 29.67670362 -0.12834515 24.0005424 -0.09765625 18.26171875 C-0.09443359 17.17568359 -0.09121094 16.08964844 -0.08789062 14.97070312 C-0.07951172 13.88724609 -0.07113281 12.80378906 -0.0625 11.6875 C-0.05798828 10.55376953 -0.05347656 9.42003906 -0.04882812 8.25195312 C-0.03722175 5.5012429 -0.02089917 2.75065256 0 0 Z " fill="#294312" transform="translate(275,236)"/>
<path d="M0 0 C2.0625 0.4375 2.0625 0.4375 4 1 C4.99399262 5.21972583 5.23986672 9.37386821 5.38891602 13.68920898 C5.41832275 14.44773666 5.44772949 15.20626434 5.47802734 15.98777771 C5.57398249 18.49041678 5.66407491 20.99322795 5.75390625 23.49609375 C5.81945869 25.24903898 5.88529476 27.00197363 5.95140076 28.75489807 C6.08920973 32.43245685 6.22423455 36.11010397 6.35717773 39.7878418 C6.5263539 44.46444088 6.70134902 49.14079876 6.87835789 53.8171072 C7.01507643 57.44194721 7.1491383 61.06688179 7.2823925 64.69185066 C7.34589495 66.41357002 7.41007139 68.13526467 7.47497749 69.85693169 C7.85193464 79.9114117 8.09135039 89.93683808 8 100 C-2.92279496 101.17558579 -13.78025884 101.11402395 -24.75 101.0625 C-26.62239463 101.05747365 -28.49479058 101.05291276 -30.3671875 101.04882812 C-34.91149123 101.03791543 -39.45573081 101.02071371 -44 101 C-44.0251245 95.34814765 -44.04305591 89.69632934 -44.05493164 84.04443359 C-44.05989368 82.13036532 -44.06666546 80.21630069 -44.07543945 78.30224609 C-44.13109776 65.82823752 -43.85302192 53.44623409 -43 41 C-42.67 41 -42.34 41 -42 41 C-42 60.14 -42 79.28 -42 99 C-26.16 99 -10.32 99 6 99 C5.67 89.43 5.34 79.86 5 70 C4.01 69.505 4.01 69.505 3 69 C3.00222061 68.36487991 3.00444122 67.72975983 3.00672913 67.07539368 C3.02901964 60.40695768 3.04400475 53.73853244 3.05493164 47.07006836 C3.05993034 44.58829315 3.06673151 42.10652083 3.07543945 39.62475586 C3.08770203 36.03759033 3.0932731 32.45046407 3.09765625 28.86328125 C3.10281754 27.77106766 3.10797882 26.67885406 3.11329651 25.55354309 C3.11369446 19.96810889 2.98684339 14.39857335 2.68139648 8.82104492 C2.62426987 7.75375656 2.56714325 6.6864682 2.50828552 5.58683777 C2.25668419 4.30635307 2.25668419 4.30635307 2 3 C1.01 2.34 0.02 1.68 -1 1 C-0.67 0.67 -0.34 0.34 0 0 Z " fill="#538003" transform="translate(177,161)"/>
<path d="M0 0 C0.84496027 3.11579101 1 5.7736087 1 9 C1.29044914 10.34332728 1.60955794 11.68225804 2 13 C1.01 13.33 0.02 13.66 -1 14 C-1.33 13.34 -1.66 12.68 -2 12 C-2 13.98 -2 15.96 -2 18 C-2.62390625 18.17402344 -3.2478125 18.34804687 -3.890625 18.52734375 C-6.60458918 20.42209282 -6.84200083 22.19013675 -7.41845703 25.35913086 C-7.52786621 26.08624268 -7.63727539 26.81335449 -7.75 27.5625 C-7.87358887 28.30959229 -7.99717773 29.05668457 -8.12451172 29.82641602 C-9.17387334 36.7942645 -9.20604199 43.6556864 -9.0078125 50.68359375 C-9 54 -9 54 -10 56 C-10.1492163 58.03095254 -10.23725013 60.06650431 -10.29711914 62.10205078 C-10.33708511 63.38322784 -10.37705109 64.66440491 -10.41822815 65.98440552 C-10.45730385 67.38803841 -10.49627746 68.79167414 -10.53515625 70.1953125 C-10.57815954 71.62736216 -10.62157608 73.05939947 -10.66539001 74.49142456 C-10.77965787 78.26260214 -10.88829967 82.03392178 -10.99578857 85.80529785 C-11.1064389 89.65285175 -11.22238451 93.50024561 -11.33789062 97.34765625 C-11.56378992 104.89829052 -11.78374859 112.44908261 -12 120 C-9.36 119.67 -6.72 119.34 -4 119 C-4 118.34 -4 117.68 -4 117 C-2.68 117 -1.36 117 0 117 C0 117.99 0 118.98 0 120 C10.56 119.67 21.12 119.34 32 119 C32.33 119.99 32.66 120.98 33 122 C28.71737012 122.02517599 24.43478221 122.04307876 20.15209961 122.05493164 C18.70254768 122.05988546 17.25300054 122.06665038 15.8034668 122.07543945 C13.69058026 122.08790702 11.57776101 122.09331742 9.46484375 122.09765625 C8.202771 122.10289307 6.94069824 122.10812988 5.64038086 122.11352539 C-0.91569861 122.03660327 -7.46300102 121.47174495 -14 121 C-13.75959431 111.28851118 -13.51629699 101.57710004 -13.26950932 91.86577129 C-13.15494918 87.35431336 -13.04131107 82.84283649 -12.92993164 78.33129883 C-12.82200341 73.96103299 -12.71145554 69.59083995 -12.59924126 65.22068214 C-12.55729116 63.57013003 -12.51621717 61.91955535 -12.4761219 60.26895714 C-12.34398552 54.8449488 -12.18432683 49.42248031 -12 44 C-11.97332685 43.16174997 -11.94665371 42.32349995 -11.91917229 41.4598484 C-11.83307213 38.9022621 -11.73033008 36.34583954 -11.62304688 33.7890625 C-11.59843919 33.0163737 -11.5738315 32.2436849 -11.54847813 31.44758129 C-11.19922865 23.94866442 -8.79271998 18.02712875 -5.4375 11.3125 C-4.91736328 10.20583984 -4.39722656 9.09917969 -3.86132812 7.95898438 C-2.60231577 5.29080222 -1.3163858 2.64020881 0 0 Z " fill="#F5F753" transform="translate(132,153)"/>
<path d="M0 0 C1.8256792 1.3692594 3.64480147 2.74324324 5.44921875 4.140625 C8.00791453 6.07039749 8.00791453 6.07039749 10.95703125 7.734375 C20.37381727 13.65688193 23.88462894 20.81287685 26.49755859 31.43945312 C28.03650325 39.28223815 27.48203337 47.07310305 27 55 C26.92290375 56.44865598 26.8473259 57.89739325 26.77294922 59.34619141 C26.24780021 69.56846448 25.65126421 79.78502479 25 90 C24.01 90.495 24.01 90.495 23 91 C22.93941406 90.16855469 22.87882812 89.33710938 22.81640625 88.48046875 C22.73261719 87.39378906 22.64882813 86.30710937 22.5625 85.1875 C22.48128906 84.10855469 22.40007812 83.02960938 22.31640625 81.91796875 C22.09787539 78.94010095 22.09787539 78.94010095 21 76 C20.52866371 68.69428755 20.52866371 68.69428755 22.48852539 65.80737305 C24.35643698 62.33796336 24.42815323 59.87679805 24.51171875 55.94921875 C24.52966995 55.29041214 24.54762115 54.63160553 24.56611633 53.95283508 C24.61996656 51.86445369 24.65403108 49.7762974 24.6875 47.6875 C24.7206957 46.2649428 24.75518744 44.84241521 24.79101562 43.41992188 C24.87567601 39.94683085 24.9426077 36.47366087 25 33 C24.34 33 23.68 33 23 33 C23 31.35 23 29.7 23 28 C22.34 28 21.68 28 21 28 C21 26.02 21 24.04 21 22 C20.34 22 19.68 22 19 22 C19 20.35 19 18.7 19 17 C18.01 17 17.02 17 16 17 C16 18.65 16 20.3 16 22 C12.54092349 22.86476913 10.40764342 22.90870491 7 22 C6.01 22.33 5.02 22.66 4 23 C2 21.1875 2 21.1875 0 19 C0 18.01 0 17.02 0 16 C0.99 15.67 1.98 15.34 3 15 C3.33 16.32 3.66 17.64 4 19 C5.98 18.34 7.96 17.68 10 17 C10 17.66 10 18.32 10 19 C10.66 19 11.32 19 12 19 C12 19.66 12 20.32 12 21 C12.66 21 13.32 21 14 21 C13.67 18.69 13.34 16.38 13 14 C11.02 14 9.04 14 7 14 C6.67 13.34 6.34 12.68 6 12 C7.32 11.34 8.64 10.68 10 10 C7.525 9.01 7.525 9.01 5 8 C5 7.34 5 6.68 5 6 C4.360625 5.7525 3.72125 5.505 3.0625 5.25 C1 4 1 4 0.37109375 1.921875 C0.24863281 1.28765625 0.12617188 0.6534375 0 0 Z " fill="#EFF151" transform="translate(250,151)"/>
<path d="M0 0 C3.98381075 2.16264012 6.88983545 4.71211176 10 8 C8.68 8 7.36 8 6 8 C5.67 8.99 5.34 9.98 5 11 C0.25 10.125 0.25 10.125 -2 9 C-2 9.66 -2 10.32 -2 11 C-1.01 11.33 -0.02 11.66 1 12 C1.6875 14.0625 1.6875 14.0625 2 16 C2.763125 15.505 3.52625 15.01 4.3125 14.5 C7 13 7 13 10 13 C12.1875 14.875 12.1875 14.875 14 17 C14 17.66 14 18.32 14 19 C11.83032311 19.95465783 10.43671207 20.14401212 8.17578125 19.3984375 C6.4315257 18.64129615 4.71372869 17.82390802 3 17 C3 17.66 3 18.32 3 19 C1.125 18.25 1.125 18.25 -1 17 C-1.40605469 15.99259766 -1.40605469 15.99259766 -1.8203125 14.96484375 C-2.20960938 14.31644531 -2.59890625 13.66804687 -3 13 C-5.35083255 12.33446517 -5.35083255 12.33446517 -8 12.3125 C-12.87055016 12.06472492 -12.87055016 12.06472492 -15 11 C-16.71233688 11.0870204 -18.42175406 11.24097162 -20.125 11.4375 C-21.03507813 11.53933594 -21.94515625 11.64117187 -22.8828125 11.74609375 C-23.58148438 11.82988281 -24.28015625 11.91367188 -25 12 C-25 11.01 -25 10.02 -25 9 C-26.98 9 -28.96 9 -31 9 C-31.33 7.68 -31.66 6.36 -32 5 C-27.25 5.875 -27.25 5.875 -25 7 C-23.31309769 7.04490921 -21.624553 7.03883863 -19.9375 7 C-18.29210014 6.96222898 -16.64517844 6.95357521 -15 7 C-14.67 7.33 -14.34 7.66 -14 8 C-12.19187276 8.15091913 -10.37669383 8.22169008 -8.5625 8.25 C-7.57378906 8.27578125 -6.58507812 8.3015625 -5.56640625 8.328125 C-4.71949219 8.21984375 -3.87257812 8.1115625 -3 8 C-2.34 7.01 -1.68 6.02 -1 5 C-0.01 4.67 0.98 4.34 2 4 C2 3.34 2 2.68 2 2 C1.34 2 0.68 2 0 2 C0 1.34 0 0.68 0 0 Z " fill="#FEFD1C" transform="translate(239,143)"/>
<path d="M0 0 C34.45063165 -0.18985087 34.45063165 -0.18985087 47.625 0.4375 C48.4811792 0.47673584 49.3373584 0.51597168 50.21948242 0.55639648 C55.86603259 0.86603259 55.86603259 0.86603259 57 2 C56.93472395 4.43301627 56.80764569 6.8253784 56.625 9.25 C56.58117187 9.91902344 56.53734375 10.58804687 56.4921875 11.27734375 C56.23154904 14.96248194 55.72813198 18.35934008 55 22 C63.58 22 72.16 22 81 22 C81 14.74 81 7.48 81 0 C91.56 0 102.12 0 113 0 C113 0.33 113 0.66 113 1 C102.77 1 92.54 1 82 1 C82 8.26 82 15.52 82 23 C72.76 23 63.52 23 54 23 C54 9.5 54 9.5 55 3 C53.74014282 3.01740234 53.74014282 3.01740234 52.45483398 3.03515625 C41.29731616 3.1188283 30.20173009 2.59676235 19.0625 2 C17.20379441 1.90329214 15.3450705 1.80693579 13.48632812 1.7109375 C8.99066448 1.47799864 4.49527356 1.24034452 0 1 C0 0.67 0 0.34 0 0 Z " fill="#030E00" transform="translate(125,275)"/>
<path d="M0 0 C20.06649591 14.29317446 20.06649591 14.29317446 21.43669128 21.20184326 C21.46555923 22.00245178 21.49442719 22.8030603 21.52416992 23.62792969 C21.56397476 24.54643204 21.6037796 25.46493439 21.64479065 26.41127014 C21.68720131 27.90151955 21.68720131 27.90151955 21.73046875 29.421875 C21.79082558 30.98360695 21.79082558 30.98360695 21.85240173 32.57688904 C21.9788133 35.96758329 22.08384614 39.35853984 22.1875 42.75 C22.26813328 45.06813563 22.34935229 47.38625095 22.43115234 49.7043457 C23.02067666 67.14092565 23.23555658 84.5557268 23 102 C16.07 102 9.14 102 2 102 C2 101.67 2 101.34 2 101 C8.27 101 14.54 101 21 101 C20.87952308 93.90968159 20.75520193 86.81944336 20.62768555 79.72924805 C20.58502453 77.32952593 20.54332004 74.92978658 20.50268555 72.5300293 C20.38361944 65.51982836 20.24360353 58.51054159 20.07794189 51.50128174 C20.02566495 49.15291303 19.98029573 46.80438109 19.94158936 44.45574951 C19.88406704 41.05186211 19.8021006 37.64933237 19.71484375 34.24609375 C19.70288467 33.22927017 19.6909256 32.21244659 19.67860413 31.16481018 C19.45972646 24.0298034 18.17648931 18.17648931 13 13 C11.7625 12.8453125 11.7625 12.8453125 10.5 12.6875 C9.675 12.460625 8.85 12.23375 8 12 C7.32558869 10.3364521 6.6599679 8.66933058 6 7 C4.01231606 5.64837492 2.0133653 4.31306433 0 3 C0 2.01 0 1.02 0 0 Z " fill="#548103" transform="translate(230,160)"/>
<path d="M0 0 C0.66 0 1.32 0 2 0 C2.33 2.97 2.66 5.94 3 9 C4.32 8.67 5.64 8.34 7 8 C7 8.66 7 9.32 7 10 C6.34 10 5.68 10 5 10 C5 10.99 5 11.98 5 13 C5.99 13.33 6.98 13.66 8 14 C8 14.99 8 15.98 8 17 C4.87501937 17.02895976 1.7500731 17.04678483 -1.375 17.0625 C-2.26445312 17.07087891 -3.15390625 17.07925781 -4.0703125 17.08789062 C-5.34648437 17.09272461 -5.34648437 17.09272461 -6.6484375 17.09765625 C-7.82672119 17.10551147 -7.82672119 17.10551147 -9.02880859 17.11352539 C-11 17 -11 17 -13 16 C-13 13.69 -13 11.38 -13 9 C-10.6875 8.3125 -10.6875 8.3125 -8 8 C-6.1875 9.4375 -6.1875 9.4375 -5 11 C-5.99 11.33 -6.98 11.66 -8 12 C-8 11.34 -8 10.68 -8 10 C-8.99 10.99 -9.98 11.98 -11 13 C-8.36 13 -5.72 13 -3 13 C-2.34 11.35 -1.68 9.7 -1 8 C-1.33 7.67 -1.66 7.34 -2 7 C-2.1875 4.5625 -2.1875 4.5625 -2 2 C-1.34 1.34 -0.68 0.68 0 0 Z " fill="#FEFE06" transform="translate(196,278)"/>
<path d="M0 0 C0.495 1.98 0.495 1.98 1 4 C-0.670625 4.12375 -0.670625 4.12375 -2.375 4.25 C-6.02613455 4.5859843 -6.02613455 4.5859843 -7.4375 6.9375 C-8.0877058 8.96528312 -8.0877058 8.96528312 -8 11 C-5.525 11.495 -5.525 11.495 -3 12 C-3 12.33 -3 12.66 -3 13 C-3.53625 12.80019531 -4.0725 12.60039062 -4.625 12.39453125 C-8.41635219 11.46540053 -11.38217068 11.1759974 -14.96337891 13 C-18.5723123 15.26919602 -21.96549764 17.7928095 -25.36328125 20.36328125 C-28.12273755 22.44806085 -30.67248622 23.93802752 -34 25 C-34 24.01 -34 23.02 -34 22 C-33.38125 21.87625 -32.7625 21.7525 -32.125 21.625 C-29.80879168 21.12802644 -29.80879168 21.12802644 -28 19 C-27.29875 18.525625 -26.5975 18.05125 -25.875 17.5625 C-25.25625 17.046875 -24.6375 16.53125 -24 16 C-24 15.01 -24 14.02 -24 13 C-22.8125 11.3125 -22.8125 11.3125 -21 10 C-18.3125 9.8125 -18.3125 9.8125 -16 10 C-15.67 9.34 -15.34 8.68 -15 8 C-14.01 7.34 -13.02 6.68 -12 6 C-12 5.01 -12 4.02 -12 3 C-4.71428571 -0.42857143 -4.71428571 -0.42857143 0 0 Z " fill="#FEFD1D" transform="translate(176,146)"/>
<path d="M0 0 C0.99 0 1.98 0 3 0 C2.91253716 1.43861294 2.80434652 2.87597508 2.6875 4.3125 C2.62949219 5.11300781 2.57148438 5.91351563 2.51171875 6.73828125 C1.90786477 9.40722363 0.97744031 10.1852283 -1 12 C-1.33 12.99 -1.66 13.98 -2 15 C-2.7425 14.835 -3.485 14.67 -4.25 14.5 C-7.19006578 13.88074304 -7.19006578 13.88074304 -11 14 C-9.68 14.66 -8.36 15.32 -7 16 C-6.97220987 17.47905232 -6.95326044 18.95827058 -6.9375 20.4375 C-6.92589844 21.26121094 -6.91429687 22.08492188 -6.90234375 22.93359375 C-7.03090096 26.97029023 -7.55399544 30.98595897 -8 35 C-0.41 35 7.18 35 15 35 C15 35.33 15 35.66 15 36 C7.08 36 -0.84 36 -9 36 C-9 29.73 -9 23.46 -9 17 C-13.95 16.67 -18.9 16.34 -24 16 C-24 15.67 -24 15.34 -24 15 C-23.09507812 14.96132813 -23.09507812 14.96132813 -22.171875 14.921875 C-17.10545909 14.735834 -17.10545909 14.735834 -13.0625 12.0625 C-9.76116291 8.76116291 -5.49896568 8.65252174 -1 8 C-1.020625 7.05125 -1.04125 6.1025 -1.0625 5.125 C-1 2 -1 2 0 0 Z " fill="#FBFB37" transform="translate(190,260)"/>
<path d="M0 0 C0.84496027 3.11579101 1 5.7736087 1 9 C1.29044914 10.34332728 1.60955794 11.68225804 2 13 C1.01 13.33 0.02 13.66 -1 14 C-1.33 13.34 -1.66 12.68 -2 12 C-2 13.98 -2 15.96 -2 18 C-2.62390625 18.17402344 -3.2478125 18.34804687 -3.890625 18.52734375 C-6.60458478 20.42208975 -6.8421191 22.19004684 -7.41821289 25.35913086 C-7.52770264 26.08624268 -7.63719238 26.81335449 -7.75 27.5625 C-7.87431396 28.30959229 -7.99862793 29.05668457 -8.12670898 29.82641602 C-9.07769269 36.11052156 -9.22215702 42.29696959 -8.97753906 48.64086914 C-8.91864384 50.42629067 -8.95162313 52.21426252 -9 54 C-9.66 54.66 -10.32 55.32 -11 56 C-16.66818005 38.99545986 -9.9340882 19.62769886 -2.37109375 4.484375 C-1.58758771 2.98597699 -0.80004035 1.48963544 0 0 Z " fill="#FBFC3D" transform="translate(132,153)"/>
<path d="M0 0 C1.98 0.66 3.96 1.32 6 2 C3.17592188 3.88271874 1.39739207 4.57366699 -1.81933594 5.42041016 C-2.7975531 5.68052887 -3.77577026 5.94064758 -4.78363037 6.20864868 C-6.36799896 6.61970352 -6.36799896 6.61970352 -7.984375 7.0390625 C-9.07333069 7.32478119 -10.16228638 7.61049988 -11.28424072 7.90487671 C-13.59010014 8.50786099 -15.89674467 9.10784965 -18.20410156 9.70507812 C-21.72482838 10.61846966 -25.24134623 11.54692199 -28.7578125 12.4765625 C-30.99975941 13.0608198 -33.24193973 13.64418237 -35.484375 14.2265625 C-36.5325238 14.50464752 -37.58067261 14.78273254 -38.6605835 15.06924438 C-45.90443771 16.92486264 -51.97822728 18.40449586 -59 15 C-59 14.67 -59 14.34 -59 14 C-58.319375 14.04640625 -57.63875 14.0928125 -56.9375 14.140625 C-47.72550842 14.48362469 -39.76875385 12.47862225 -31 10 C-28.93772625 9.43667107 -26.8752564 8.87405902 -24.8125 8.3125 C-23.99394531 8.08175781 -23.17539063 7.85101563 -22.33203125 7.61328125 C-20.78419424 7.20622864 -19.22282554 6.84741001 -17.65234375 6.5390625 C-14.30586397 5.85892375 -11.04065473 4.97465848 -7.75 4.0625 C-6.50734375 3.72347656 -5.2646875 3.38445312 -3.984375 3.03515625 C-0.88334461 2.34875821 -0.88334461 2.34875821 0 0 Z " fill="#3E6C2C" transform="translate(233,332)"/>
<path d="M0 0 C0.66 0.33 1.32 0.66 2 1 C1.14292207 3.88289851 0.20596795 6.60605626 -1.18937683 9.27485657 C-5.12707697 16.89138065 -5.80234158 23.49174851 -5.92578125 31.98046875 C-5.9630986 33.27447098 -6.00041595 34.56847321 -6.03886414 35.90168762 C-6.13668412 39.30268773 -6.20669591 42.70368234 -6.27044678 46.10546875 C-6.34087334 49.59224814 -6.43825383 53.07827062 -6.53320312 56.56445312 C-6.71482408 63.37580366 -6.86700564 70.18753081 -7 77 C-7.33 77 -7.66 77 -8 77 C-8.02542331 70.14982905 -8.04289769 63.29967035 -8.05493164 56.44946289 C-8.05995022 54.12068222 -8.0667665 51.79190469 -8.07543945 49.46313477 C-8.08761355 46.10952987 -8.09325318 42.75596676 -8.09765625 39.40234375 C-8.10281754 38.36665756 -8.10797882 37.33097137 -8.11329651 36.26390076 C-8.11369714 31.06316893 -7.90790384 26.12384486 -7 21 C-8.98 21.66 -10.96 22.32 -13 23 C-11.87548273 20.0280615 -10.77706209 17.66559313 -9 15 C-7.68 15 -6.36 15 -5 15 C-4.9175 14.195625 -4.835 13.39125 -4.75 12.5625 C-3.79803325 8.04065795 -1.98419821 4.15297299 0 0 Z " fill="#3E7029" transform="translate(125,159)"/>
<path d="M0 0 C1.32 0.66 2.64 1.32 4 2 C4 9.59 4 17.18 4 25 C-4.58 25 -13.16 25 -22 25 C-22 23.35 -22 21.7 -22 20 C-21.67 21.32 -21.34 22.64 -21 24 C-13.41 23.67 -5.82 23.34 2 23 C1.67 22.01 1.34 21.02 1 20 C0.34 19.67 -0.32 19.34 -1 19 C-1 18.01 -1 17.02 -1 16 C-0.34 16 0.32 16 1 16 C1 15.34 1 14.68 1 14 C-0.65 14.66 -2.3 15.32 -4 16 C-4 13.03 -4 10.06 -4 7 C-2.35 7.66 -0.7 8.32 1 9 C1 7.35 1 5.7 1 4 C0.34 3.67 -0.32 3.34 -1 3 C-0.67 2.01 -0.34 1.02 0 0 Z " fill="#D8DA2D" transform="translate(202,272)"/>
<path d="M0 0 C1.17949219 0.01804687 2.35898438 0.03609375 3.57421875 0.0546875 C4.92966797 0.08949219 4.92966797 0.08949219 6.3125 0.125 C6.3125 0.455 6.3125 0.785 6.3125 1.125 C11.49761433 2.13178251 16.60491345 2.42564699 21.8671875 2.66015625 C22.76873566 2.70313339 23.67028381 2.74611053 24.59915161 2.79039001 C27.46178921 2.92609056 30.32462715 3.05686639 33.1875 3.1875 C35.13543199 3.27897121 37.08334887 3.37076459 39.03125 3.46289062 C43.79149992 3.68732435 48.55193559 3.90734342 53.3125 4.125 C52.9825 9.735 52.6525 15.345 52.3125 21.125 C51.9825 21.125 51.6525 21.125 51.3125 21.125 C51.3125 16.175 51.3125 11.225 51.3125 6.125 C41.52972771 5.44866019 31.80795999 5.05823319 22 5.125 C5.84576486 5.22444947 5.84576486 5.22444947 -1.6875 4.125 C-2.0175 3.795 -2.3475 3.465 -2.6875 3.125 C-5.01567964 2.75739269 -7.3493385 2.42258419 -9.6875 2.125 C-6.05554504 -0.29630331 -4.30400652 -0.08522785 0 0 Z " fill="#416722" transform="translate(126.6875,273.875)"/>
<path d="M0 0 C1.8785314 1.39738167 3.75248839 2.80029088 5.62109375 4.2109375 C7.25034866 5.4362228 8.88890212 6.64921357 10.53515625 7.8515625 C11.34855469 8.45742187 12.16195313 9.06328125 13 9.6875 C13.763125 10.24824219 14.52625 10.80898437 15.3125 11.38671875 C15.869375 11.91910156 16.42625 12.45148438 17 13 C17 13.99 17 14.98 17 16 C17.66 16.33 18.32 16.66 19 17 C18.01 17 17.02 17 16 17 C16 18.65 16 20.3 16 22 C12.54092349 22.86476913 10.40764342 22.90870491 7 22 C6.01 22.33 5.02 22.66 4 23 C2 21.1875 2 21.1875 0 19 C0 18.01 0 17.02 0 16 C0.99 15.67 1.98 15.34 3 15 C3.33 16.32 3.66 17.64 4 19 C5.98 18.34 7.96 17.68 10 17 C10 17.66 10 18.32 10 19 C10.66 19 11.32 19 12 19 C12 19.66 12 20.32 12 21 C12.66 21 13.32 21 14 21 C13.67 18.69 13.34 16.38 13 14 C11.02 14 9.04 14 7 14 C6.67 13.34 6.34 12.68 6 12 C7.32 11.34 8.64 10.68 10 10 C7.525 9.01 7.525 9.01 5 8 C5 7.34 5 6.68 5 6 C4.360625 5.7525 3.72125 5.505 3.0625 5.25 C1 4 1 4 0.37109375 1.921875 C0.24863281 1.28765625 0.12617188 0.6534375 0 0 Z " fill="#FDFD23" transform="translate(250,151)"/>
<path d="M0 0 C21.38275768 -0.39114801 42.65916634 0.80947278 64 2 C64.495 2.99 64.495 2.99 65 4 C58.73 4.33 52.46 4.66 46 5 C46 4.34 46 3.68 46 3 C44.81970215 2.97494385 43.6394043 2.9498877 42.42333984 2.92407227 C38.02870525 2.82963494 33.63421536 2.729504 29.23974609 2.62768555 C27.34069208 2.58447373 25.44160266 2.5427894 23.54248047 2.50268555 C20.80685777 2.4446485 18.07141106 2.38105173 15.3359375 2.31640625 C14.49195404 2.29969376 13.64797058 2.28298126 12.77841187 2.26576233 C8.42543666 2.15728712 4.28672023 1.85188712 0 1 C0 0.67 0 0.34 0 0 Z " fill="#F4F556" transform="translate(174,139)"/>
<path d="M0 0 C0.51046875 0.37898437 1.0209375 0.75796875 1.546875 1.1484375 C0.226875 1.4784375 -1.093125 1.8084375 -2.453125 2.1484375 C-2.453125 2.8084375 -2.453125 3.4684375 -2.453125 4.1484375 C-5.093125 3.8184375 -7.733125 3.4884375 -10.453125 3.1484375 C-10.453125 3.8084375 -10.453125 4.4684375 -10.453125 5.1484375 C-11.773125 5.1484375 -13.093125 5.1484375 -14.453125 5.1484375 C-14.44152344 5.86862061 -14.42992187 6.58880371 -14.41796875 7.33081055 C-14.33174209 17.23840772 -14.86618272 27.07450532 -15.453125 36.9609375 C-15.54981904 38.63604812 -15.6461754 40.31117828 -15.7421875 41.98632812 C-15.97528373 46.04059969 -16.21291542 50.09458143 -16.453125 54.1484375 C-16.783125 54.1484375 -17.113125 54.1484375 -17.453125 54.1484375 C-17.56695333 37.44369198 -17.47382448 20.82593785 -16.453125 4.1484375 C-14.20908798 3.25442275 -11.96022367 2.38328461 -9.703125 1.5234375 C-9.06890625 1.26820313 -8.4346875 1.01296875 -7.78125 0.75 C-3.00217062 -1.04215477 -3.00217062 -1.04215477 0 0 Z " fill="#558104" transform="translate(227.453125,157.8515625)"/>
<path d="M0 0 C0.99 0.33 1.98 0.66 3 1 C3 1.66 3 2.32 3 3 C12.24 3 21.48 3 31 3 C31 3.66 31 4.32 31 5 C31.99 4.34 32.98 3.68 34 3 C36.1875 3.375 36.1875 3.375 38 4 C37.34 4.33 36.68 4.66 36 5 C36.495 5.99 36.495 5.99 37 7 C28.585 7.495 28.585 7.495 20 8 C21.32 7.34 22.64 6.68 24 6 C22.97285339 4.7494687 22.97285339 4.7494687 20.77514648 4.88647461 C19.81680908 4.89171143 18.85847168 4.89694824 17.87109375 4.90234375 C16.83662109 4.90556641 15.80214844 4.90878906 14.73632812 4.91210938 C13.64771484 4.92048828 12.55910156 4.92886719 11.4375 4.9375 C10.34501953 4.94201172 9.25253906 4.94652344 8.12695312 4.95117188 C5.41791505 4.96300174 2.70898401 4.97948457 0 5 C0 3.35 0 1.7 0 0 Z " fill="#FDFE12" transform="translate(140,268)"/>
<path d="M0 0 C34.45063165 -0.18985087 34.45063165 -0.18985087 47.625 0.4375 C48.4811792 0.47673584 49.3373584 0.51597168 50.21948242 0.55639648 C55.86603259 0.86603259 55.86603259 0.86603259 57 2 C57.04092937 4.33297433 57.04241723 6.66705225 57 9 C55 6 55 6 55 3 C53.74014282 3.01740234 53.74014282 3.01740234 52.45483398 3.03515625 C41.29731616 3.1188283 30.20173009 2.59676235 19.0625 2 C17.20379441 1.90329214 15.3450705 1.80693579 13.48632812 1.7109375 C8.99066448 1.47799864 4.49527356 1.24034452 0 1 C0 0.67 0 0.34 0 0 Z " fill="#182600" transform="translate(125,275)"/>
<path d="M0 0 C5.22665902 4.82460833 7.22053841 11.26346682 9 18 C10.08717933 21.05769188 10.69879802 22.69879802 13 25 C14.93830937 29.52568564 16.48118453 34.0277599 16 39 C16.66 39 17.32 39 18 39 C19.69433918 42.0469629 20.49467112 44.82821466 21.125 48.25 C21.29257813 49.14203125 21.46015625 50.0340625 21.6328125 50.953125 C21.75398438 51.62859375 21.87515625 52.3040625 22 53 C19.40602732 50.70462388 18.20702759 48.59094738 16.9152832 45.39257812 C16.34503166 43.99597961 16.34503166 43.99597961 15.76325989 42.57116699 C15.36314194 41.56799438 14.96302399 40.56482178 14.55078125 39.53125 C13.92456123 37.98346863 13.92456123 37.98346863 13.28569031 36.40441895 C12.40543799 34.22373556 11.52896853 32.04152192 10.65600586 29.85791016 C9.31623177 26.50932704 7.96278667 23.16651734 6.60742188 19.82421875 C5.75438974 17.70605865 4.90214914 15.58757957 4.05078125 13.46875 C3.44149529 11.96399109 3.44149529 11.96399109 2.81990051 10.42883301 C2.4491893 9.49776733 2.07847809 8.56670166 1.6965332 7.60742188 C1.36804886 6.78818237 1.03956451 5.96894287 0.7011261 5.12487793 C0 3 0 3 0 0 Z " fill="#3F6B2C" transform="translate(71,238)"/>
<path d="M0 0 C10.23 0 20.46 0 31 0 C29 2 29 2 26.57421875 2.16015625 C25.62160156 2.12792969 24.66898438 2.09570312 23.6875 2.0625 C20.82206321 1.97258861 18.317611 1.93329173 15.5078125 2.5234375 C10.98892672 3.38216657 6.5442491 2.4927499 2 2 C2 8.6 2 15.2 2 22 C1.34 22.33 0.68 22.66 0 23 C0 15.41 0 7.82 0 0 Z " fill="#3D6622" transform="translate(207,276)"/>
<path d="M0 0 C1.32 0.33 2.64 0.66 4 1 C4 1.66 4 2.32 4 3 C4.969375 3.2475 5.93875 3.495 6.9375 3.75 C7.948125 4.1625 8.95875 4.575 10 5 C10.875 7.125 10.875 7.125 11 9 C11.99 9 12.98 9 14 9 C15.04892238 10.63631892 16.04906703 12.30485863 17 14 C17.66 14.33 18.32 14.66 19 15 C18.89037184 18.1257396 18.75968759 21.25024781 18.625 24.375 C18.57859375 25.70917969 18.57859375 25.70917969 18.53125 27.0703125 C18.49257812 27.92109375 18.45390625 28.771875 18.4140625 29.6484375 C18.3826416 30.43395996 18.3512207 31.21948242 18.31884766 32.02880859 C18 34 18 34 16 36 C16.01683838 35.44650879 16.03367676 34.89301758 16.05102539 34.32275391 C16.63444692 21.2349528 16.63444692 21.2349528 10.8125 10.0625 C9.25531241 8.65456362 7.65356547 7.29338289 6 6 C5.36320313 5.45085937 4.72640625 4.90171875 4.0703125 4.3359375 C2.73795149 3.19482449 1.37325246 2.09155964 0 1 C0 0.67 0 0.34 0 0 Z " fill="#E0ED3A" transform="translate(235,163)"/>
<path d="M0 0 C0.64066406 0.20238281 1.28132813 0.40476563 1.94140625 0.61328125 C1.94140625 0.94328125 1.94140625 1.27328125 1.94140625 1.61328125 C1.01908203 1.59587891 1.01908203 1.59587891 0.078125 1.578125 C-1.13423828 1.56458984 -1.13423828 1.56458984 -2.37109375 1.55078125 C-3.17160156 1.53917969 -3.97210938 1.52757812 -4.796875 1.515625 C-7.22720709 1.5167027 -7.22720709 1.5167027 -10.05859375 2.61328125 C-10.38859375 3.27328125 -10.71859375 3.93328125 -11.05859375 4.61328125 C-12.04859375 4.61328125 -13.03859375 4.61328125 -14.05859375 4.61328125 C-14.05859375 5.27328125 -14.05859375 5.93328125 -14.05859375 6.61328125 C-15.04859375 6.94328125 -16.03859375 7.27328125 -17.05859375 7.61328125 C-17.38859375 8.27328125 -17.71859375 8.93328125 -18.05859375 9.61328125 C-19.72079956 10.62067871 -21.38880049 11.6185108 -23.05859375 12.61328125 C-28.21580096 16.06165194 -31.96509178 19.19965281 -35.05859375 24.61328125 C-35.80859375 22.92578125 -35.80859375 22.92578125 -36.05859375 20.61328125 C-34.24609375 17.86328125 -34.24609375 17.86328125 -32.05859375 15.61328125 C-31.39859375 15.61328125 -30.73859375 15.61328125 -30.05859375 15.61328125 C-29.72859375 14.62328125 -29.39859375 13.63328125 -29.05859375 12.61328125 C-26.87532662 11.05046001 -24.72217687 9.62852839 -22.43359375 8.23828125 C-18.49987798 5.81992438 -14.78979858 3.47814201 -11.30859375 0.42578125 C-7.02083275 -1.96547007 -4.61058707 -1.22994797 0 0 Z " fill="#548006" transform="translate(171.05859375,158.38671875)"/>
<path d="M0 0 C0.66 0.33 1.32 0.66 2 1 C2 1.66 2 2.32 2 3 C-3.62186046 4.43018913 -9.24524032 5.85418152 -14.87011719 7.27246094 C-16.78330799 7.75578652 -18.69607297 8.24080094 -20.60839844 8.72753906 C-23.35762014 9.42697761 -26.1083173 10.1203231 -28.859375 10.8125 C-29.71368103 11.03123779 -30.56798706 11.24997559 -31.44818115 11.4753418 C-32.24870911 11.67554932 -33.04923706 11.87575684 -33.87402344 12.08203125 C-34.57573669 12.25968018 -35.27744995 12.4373291 -36.00042725 12.62036133 C-38 13 -38 13 -42 13 C-42 12.34 -42 11.68 -42 11 C-34.48011753 9.09481368 -26.95532629 7.21999155 -19.40625 5.43359375 C-18.27630615 5.16562988 -17.1463623 4.89766602 -15.98217773 4.62158203 C-13.71157238 4.08436592 -11.44025247 3.55016062 -9.16821289 3.01904297 C-8.1239917 2.7717041 -7.07977051 2.52436523 -6.00390625 2.26953125 C-5.06361572 2.04885986 -4.1233252 1.82818848 -3.15454102 1.60083008 C-1.03656387 1.20028955 -1.03656387 1.20028955 0 0 Z " fill="#406B2D" transform="translate(282,321)"/>
<path d="M0 0 C0.66 0.99 1.32 1.98 2 3 C1.2331543 5.33398438 1.2331543 5.33398438 -0.17578125 8.09375 C-0.67424561 9.11605713 -1.17270996 10.13836426 -1.6862793 11.19165039 C-2.22293213 12.28340576 -2.75958496 13.37516113 -3.3125 14.5 C-8.52840937 25.58491197 -10.62450293 34.81493119 -10 47 C-10.33 47 -10.66 47 -11 47 C-14.40542474 28.78928355 -8.19060056 15.84076822 0 0 Z " fill="#2F3E04" transform="translate(131,150)"/>
<path d="M0 0 C21.45 0.33 42.9 0.66 65 1 C65 1.33 65 1.66 65 2 C43.55 2.33 22.1 2.66 0 3 C0 2.01 0 1.02 0 0 Z " fill="#EEF053" transform="translate(206,272)"/>
<path d="M0 0 C0.33 0 0.66 0 1 0 C1.90738676 6.58902384 2.06115491 12.99875396 1.6875 19.625 C1.65277588 20.33591797 1.61805176 21.04683594 1.58227539 21.77929688 C1.46660194 23.52649662 1.24261026 25.26586403 1 27 C0.34 27.33 -0.32 27.66 -1 28 C-1.06058594 27.16855469 -1.12117188 26.33710938 -1.18359375 25.48046875 C-1.26738281 24.39378906 -1.35117187 23.30710938 -1.4375 22.1875 C-1.51871094 21.10855469 -1.59992188 20.02960938 -1.68359375 18.91796875 C-1.90212461 15.94010095 -1.90212461 15.94010095 -3 13 C-3.34625836 7.63299536 -3.43969017 4.40280342 0 0 Z " fill="#FCFC39" transform="translate(274,214)"/>
<path d="M0 0 C9.24 0 18.48 0 28 0 C28 0.66 28 1.32 28 2 C28.66 2 29.32 2 30 2 C30.33 2.99 30.66 3.98 31 5 C33.00016466 6.20882096 33.00016466 6.20882096 35 7 C35 7.66 35 8.32 35 9 C31.67768359 8.37044707 30.71528363 7.76695171 27.921875 5.48046875 C23.33123436 2.07423299 18.79225925 2.29328273 13.25 2.3125 C11.38011819 2.29591851 9.51028479 2.27152556 7.640625 2.23828125 C6.41134277 2.2388855 6.41134277 2.2388855 5.15722656 2.23950195 C3 2 3 2 0 0 Z " fill="#416F29" transform="translate(214,137)"/>
<path d="M0 0 C-3.65587383 2.43724922 -6.25835848 3.84038585 -10.59375 4.7734375 C-15.44146637 5.9585692 -19.49122715 8.18403387 -23.8125 10.625 C-25.29504054 11.45614053 -26.78060297 12.28192012 -28.26953125 13.1015625 C-28.91510986 13.46588379 -29.56068848 13.83020508 -30.22583008 14.20556641 C-32 15 -32 15 -35 15 C-35 14.34 -35 13.68 -35 13 C-30.8972321 11.01792408 -26.79255305 9.03983829 -22.6875 7.0625 C-21.52025391 6.49853516 -20.35300781 5.93457031 -19.15039062 5.35351562 C-18.03212891 4.81533203 -16.91386719 4.27714844 -15.76171875 3.72265625 C-14.73006592 3.22515869 -13.69841309 2.72766113 -12.63549805 2.21508789 C-8.19695628 0.1687125 -4.86451098 -0.09178323 0 0 Z " fill="#E4E74D" transform="translate(168,138)"/>
<path d="M0 0 C0.33 0 0.66 0 1 0 C0.78453415 8.50110714 -0.93531702 19.33420193 -6.6640625 25.91015625 C-7.10492188 26.26980469 -7.54578125 26.62945312 -8 27 C-8.33 26.01 -8.66 25.02 -9 24 C-8.34 23.34 -7.68 22.68 -7 22 C-6.83322718 18.41656024 -6.83322718 18.41656024 -7 15 C-6.01 14.67 -5.02 14.34 -4 14 C-3.87882812 13.32453125 -3.75765625 12.6490625 -3.6328125 11.953125 C-3.38144531 10.61507812 -3.38144531 10.61507812 -3.125 9.25 C-2.96257812 8.36828125 -2.80015625 7.4865625 -2.6328125 6.578125 C-2.03203736 4.13052256 -1.22002883 2.19400143 0 0 Z " fill="#3E6C28" transform="translate(330,211)"/>
<path d="M0 0 C2.0625 0.4375 2.0625 0.4375 4 1 C4.33 2.65 4.66 4.3 5 6 C-0.75 10 -0.75 10 -3 10 C-3.33 9.34 -3.66 8.68 -4 8 C-4.99 7.67 -5.98 7.34 -7 7 C-7 7.66 -7 8.32 -7 9 C-7.66 9 -8.32 9 -9 9 C-8.43628586 5.73045798 -7.50037734 4.17424117 -5 2 C-5 2.99 -5 3.98 -5 5 C-3.35 5 -1.7 5 0 5 C0.33 4.34 0.66 3.68 1 3 C0.01 3 -0.98 3 -2 3 C-1 1 -1 1 0 0 Z " fill="#FEFE1D" transform="translate(147,149)"/>
<path d="M0 0 C0.78503906 0.07863281 1.57007813 0.15726563 2.37890625 0.23828125 C4.4375 0.6875 4.4375 0.6875 6.4375 2.6875 C5.90125 2.48769531 5.365 2.28789062 4.8125 2.08203125 C1.02114781 1.15290053 -1.94467068 0.8634974 -5.52587891 2.6875 C-9.1348123 4.95669602 -12.52799764 7.4803095 -15.92578125 10.05078125 C-18.68523755 12.13556085 -21.23498622 13.62552752 -24.5625 14.6875 C-24.5625 13.6975 -24.5625 12.7075 -24.5625 11.6875 C-23.94375 11.56375 -23.325 11.44 -22.6875 11.3125 C-20.37129168 10.81552644 -20.37129168 10.81552644 -18.5625 8.6875 C-15.00694444 6.6875 -15.00694444 6.6875 -12.5625 6.6875 C-12.8925 5.6975 -13.2225 4.7075 -13.5625 3.6875 C-11.5825 3.3575 -9.6025 3.0275 -7.5625 2.6875 C-7.5625 2.0275 -7.5625 1.3675 -7.5625 0.6875 C-4.5419408 -0.31935307 -3.09173734 -0.34126261 0 0 Z " fill="#E9F53C" transform="translate(166.5625,156.3125)"/>
<path d="M0 0 C0.33 0 0.66 0 1 0 C1.05534912 0.55461914 1.11069824 1.10923828 1.16772461 1.68066406 C1.42128107 4.2040917 1.67934505 6.72703883 1.9375 9.25 C2.02451172 10.12269531 2.11152344 10.99539062 2.20117188 11.89453125 C2.28818359 12.73886719 2.37519531 13.58320313 2.46484375 14.453125 C2.543396 15.22817383 2.62194824 16.00322266 2.70288086 16.80175781 C2.95241026 18.99138237 2.95241026 18.99138237 3.54101562 21.04101562 C4.33035588 24.409987 3.82538766 27.82943871 3.5625 31.25 C3.51029297 31.99507813 3.45808594 32.74015625 3.40429688 33.5078125 C3.2751783 35.33894861 3.13834886 37.16953813 3 39 C2.67 39 2.34 39 2 39 C1.65997818 34.5629865 1.32922224 30.12532684 1 25.6875 C0.90460938 24.44419922 0.80921875 23.20089844 0.7109375 21.91992188 C0.17271974 14.59631586 -0.13660061 7.34323162 0 0 Z " fill="#3E6217" transform="translate(275,225)"/>
<path d="M0 0 C0.99 0 1.98 0 3 0 C0.49415892 8.40193774 -3.21025857 16.11941439 -7 24 C-8.58158962 20.99112219 -9.43945339 18.36327963 -10 15 C-9.1028125 14.87625 -9.1028125 14.87625 -8.1875 14.75 C-5.30887826 13.76304397 -4.63668605 12.54208685 -3 10 C-2.01310803 7.42967443 -2.01310803 7.42967443 -1.3125 4.75 C-1.06113281 3.85796875 -0.80976563 2.9659375 -0.55078125 2.046875 C-0.36902344 1.37140625 -0.18726563 0.6959375 0 0 Z " fill="#40702B" transform="translate(292,298)"/>
<path d="M0 0 C0.33 0 0.66 0 1 0 C1.33 6.6 1.66 13.2 2 20 C0.02 20.33 -1.96 20.66 -4 21 C-4 18.03 -4 15.06 -4 12 C-3.34 12 -2.68 12 -2 12 C-1.855625 11.13375 -1.71125 10.2675 -1.5625 9.375 C-1.04166667 6.25 -0.52083333 3.125 0 0 Z " fill="#FDFD17" transform="translate(130,242)"/>
<path d="M0 0 C1.74216797 -0.00193359 1.74216797 -0.00193359 3.51953125 -0.00390625 C4.72480469 -0.00003906 5.93007812 0.00382813 7.171875 0.0078125 C8.36167969 0.00394531 9.55148438 0.00007812 10.77734375 -0.00390625 C17.24434504 0.00323961 23.51219014 0.26626712 29.921875 1.1328125 C29.921875 1.4628125 29.921875 1.7928125 29.921875 2.1328125 C28.88256836 2.12233887 27.84326172 2.11186523 26.77246094 2.10107422 C22.91100519 2.06483314 19.04956443 2.04189709 15.18798828 2.02294922 C13.51771515 2.012901 11.84745958 1.99926014 10.17724609 1.98193359 C7.77436996 1.95763324 5.37172673 1.94631763 2.96875 1.9375 C2.22381287 1.92717743 1.47887573 1.91685486 0.71136475 1.90621948 C-3.12481836 1.90539212 -5.76576282 2.19052013 -9.078125 4.1328125 C-10.068125 4.1328125 -11.058125 4.1328125 -12.078125 4.1328125 C-11.748125 3.1428125 -11.418125 2.1528125 -11.078125 1.1328125 C-7.32545245 0.26248978 -3.84881184 0.0041436 0 0 Z " fill="#406F2C" transform="translate(166.078125,134.8671875)"/>
<path d="M0 0 C2.4375 1 2.4375 1 4 2 C3.67 2.99 3.34 3.98 3 5 C2.45214844 4.47921875 1.90429688 3.9584375 1.33984375 3.421875 C-0.92344039 1.7146838 -0.92344039 1.7146838 -3.62109375 2.328125 C-4.55050781 2.63234375 -5.47992188 2.9365625 -6.4375 3.25 C-10.00327181 4.38073153 -13.30256286 5.26051257 -17 6 C-17 12.93 -17 19.86 -17 27 C-17.33 27 -17.66 27 -18 27 C-18 19.74 -18 12.48 -18 5 C-15.03 3.68 -12.06 2.36 -9 1 C-5.97562661 -0.5121867 -3.33758466 -0.17263369 0 0 Z " fill="#E1F54F" transform="translate(228,156)"/>
<path d="M0 0 C0.66 0 1.32 0 2 0 C2 0.99 2 1.98 2 3 C17.345 2.505 17.345 2.505 33 2 C33.495 2.99 33.495 2.99 34 4 C22.97991499 4.83058514 12.05016019 5.12308347 1 5 C0.67 3.35 0.34 1.7 0 0 Z " fill="#3A760C" transform="translate(142,256)"/>
<path d="M0 0 C1.98 0.99 1.98 0.99 4 2 C3.7834375 3.794375 3.7834375 3.794375 3.5625 5.625 C2.93028404 11.12176658 2.6563162 16.6316604 2.37890625 22.15625 C2.25386719 23.0946875 2.12882813 24.033125 2 25 C1.34 25.33 0.68 25.66 0 26 C0 17.42 0 8.84 0 0 Z " fill="#FEFE18" transform="translate(188,166)"/>
<path d="M0 0 C1.64845879 4.09455893 0.34656116 7.84532564 -0.6875 11.9375 C-0.86958008 12.68443115 -1.05166016 13.4313623 -1.23925781 14.20092773 C-2.89976098 20.88352733 -4.86000972 27.45481696 -7 34 C-7.33 34 -7.66 34 -8 34 C-9.7749162 28.52734171 -8.06087838 24.89487413 -6.046875 19.8046875 C-4.85606614 16.61438614 -4.17095084 13.47765104 -3.50390625 10.1484375 C-2.67768557 6.62579119 -1.34232211 3.35580527 0 0 Z " fill="#406C2C" transform="translate(340,174)"/>
<path d="M0 0 C0.97646484 0.04833984 1.95292969 0.09667969 2.95898438 0.14648438 C4.47008789 0.2305957 4.47008789 0.2305957 6.01171875 0.31640625 C7.55182617 0.3947168 7.55182617 0.3947168 9.12304688 0.47460938 C11.64877962 0.60383291 14.17407136 0.73877916 16.69921875 0.87890625 C17.02921875 1.53890625 17.35921875 2.19890625 17.69921875 2.87890625 C8.29421875 3.37390625 8.29421875 3.37390625 -1.30078125 3.87890625 C-1.30078125 3.21890625 -1.30078125 2.55890625 -1.30078125 1.87890625 C-4.27078125 1.87890625 -7.24078125 1.87890625 -10.30078125 1.87890625 C-10.30078125 1.54890625 -10.30078125 1.21890625 -10.30078125 0.87890625 C-6.75064296 0.04802282 -3.63668758 -0.19140461 0 0 Z " fill="#F3F542" transform="translate(221.30078125,140.12109375)"/>
<path d="M0 0 C0.99 0.66 1.98 1.32 3 2 C3 2.66 3 3.32 3 4 C4.98 4 6.96 4 9 4 C9 4.66 9 5.32 9 6 C5.01976495 7.10562085 3.58342369 6.84290361 0 5 C-2.66341895 4.52787179 -5.30498294 4.26950171 -8 4 C-8 3.34 -8 2.68 -8 2 C-4.75366476 -0.1642235 -3.75698557 -0.37569856 0 0 Z " fill="#FEFE1B" transform="translate(220,142)"/>
<path d="M0 0 C0.33 0.66 0.66 1.32 1 2 C0.16565376 4.01633676 -0.68711186 6.02623634 -1.609375 8.00390625 C-3.38530398 11.83013527 -5.06607214 15.69510179 -6.75 19.5625 C-7.36962693 20.98054074 -7.98940631 22.39851489 -8.609375 23.81640625 C-9.29773438 25.39228516 -9.29773438 25.39228516 -10 27 C-11.03387225 23.8018885 -11.11048522 23.24105866 -9.625 20 C-9.08875 19.01 -8.5525 18.02 -8 17 C-7.19086719 14.42548652 -7 12.73906818 -7 10 C-5.77122777 8.48020276 -4.53746984 6.96306772 -3.24609375 5.49609375 C-1.82326524 3.78780748 -0.8650213 2.04459581 0 0 Z " fill="#42702D" transform="translate(306,271)"/>
<path d="M0 0 C5.72554976 4.25906017 11.37992202 8.60280936 17 13 C13.58389775 13.94314127 10.54865136 14.08065117 7 14 C6.67 13.34 6.34 12.68 6 12 C7.32 11.34 8.64 10.68 10 10 C7.525 9.01 7.525 9.01 5 8 C5 7.34 5 6.68 5 6 C4.360625 5.7525 3.72125 5.505 3.0625 5.25 C1 4 1 4 0.37109375 1.921875 C0.24863281 1.28765625 0.12617188 0.6534375 0 0 Z " fill="#F6F73E" transform="translate(250,151)"/>
<path d="M0 0 C0.33 0 0.66 0 1 0 C1 2.64 1 5.28 1 8 C3.64 7.67 6.28 7.34 9 7 C9 6.34 9 5.68 9 5 C10.32 5 11.64 5 13 5 C13 5.99 13 6.98 13 8 C15.31 8.33 17.62 8.66 20 9 C20 9.33 20 9.66 20 10 C13.07 9.67 6.14 9.34 -1 9 C-0.67 6.03 -0.34 3.06 0 0 Z " fill="#EDF041" transform="translate(119,265)"/>
<path d="M0 0 C1.98 0.99 1.98 0.99 4 2 C3.67 3.65 3.34 5.3 3 7 C3.66 7 4.32 7 5 7 C5.89749822 10.0682638 6.11711768 12.79269976 6.09765625 15.984375 C6.09282227 17.38623047 6.09282227 17.38623047 6.08789062 18.81640625 C6.07951172 19.78449219 6.07113281 20.75257813 6.0625 21.75 C6.05798828 22.73355469 6.05347656 23.71710938 6.04882812 24.73046875 C6.03706483 27.15370791 6.02062684 29.57682273 6 32 C5.67 32 5.34 32 5 32 C4.97421875 30.83984375 4.9484375 29.6796875 4.921875 28.484375 C4.64007267 19.86584344 4.01303391 12.318094 0.83984375 4.1875 C0 2 0 2 0 0 Z " fill="#426F2A" transform="translate(274,172)"/>
<path d="M0 0 C0.66 0 1.32 0 2 0 C0.67429579 8.54730344 -1.51068141 16.72241148 -4 25 C-4.66 24.67 -5.32 24.34 -6 24 C-5.24686454 20.12569739 -4.39103756 16.28232707 -3.5 12.4375 C-3.11328125 10.76494141 -3.11328125 10.76494141 -2.71875 9.05859375 C-2.4815625 8.04925781 -2.244375 7.03992188 -2 6 C-1.8246875 5.24847656 -1.649375 4.49695313 -1.46875 3.72265625 C-1 2 -1 2 0 0 Z " fill="#406F2E" transform="translate(346,148)"/>
<path d="M0 0 C2.97 0 5.94 0 9 0 C10.01973129 3.05919388 10.11533602 5.12418025 10.09765625 8.32421875 C10.09443359 9.35224609 10.09121094 10.38027344 10.08789062 11.43945312 C10.07951172 12.51130859 10.07113281 13.58316406 10.0625 14.6875 C10.05798828 15.77095703 10.05347656 16.85441406 10.04882812 17.97070312 C10.03703743 20.64719085 10.02058063 23.32356777 10 26 C9.67 26 9.34 26 9 26 C8.93941406 24.75863281 8.87882813 23.51726562 8.81640625 22.23828125 C8.73196377 20.59634423 8.64731764 18.95441768 8.5625 17.3125 C8.52318359 16.49587891 8.48386719 15.67925781 8.44335938 14.83789062 C8.23101997 10.80344189 7.95552078 6.94252691 7 3 C4.69 2.34 2.38 1.68 0 1 C0 0.67 0 0.34 0 0 Z " fill="#F3FE43" transform="translate(173,159)"/>
<path d="M0 0 C2.73170893 0.87841198 5.33778494 1.91706506 8 3 C7.01 4.485 7.01 4.485 6 6 C2.875 6.1875 2.875 6.1875 0 6 C-0.33 5.34 -0.66 4.68 -1 4 C-3.3140622 3.26924352 -5.64828869 2.59861742 -8 2 C-4.63547738 -0.24301508 -3.90139118 -0.43348791 0 0 Z " fill="#F5F725" transform="translate(173,138)"/>
<path d="M0 0 C1.125 3.75 1.125 3.75 0 6 C0.66 6 1.32 6 2 6 C1.34 11.94 0.68 17.88 0 24 C-0.33 24 -0.66 24 -1 24 C-1.67453101 16.31516461 -2.1567564 8.71589817 -2 1 C-1.34 0.67 -0.68 0.34 0 0 Z " fill="#FDFE1C" transform="translate(255,213)"/>
<path d="M0 0 C3.81533998 4.85588724 5.2626093 8.5900664 6.125 14.75 C6.29257812 15.92046875 6.46015625 17.0909375 6.6328125 18.296875 C6.75398438 19.18890625 6.87515625 20.0809375 7 21 C6.34 21 5.68 21 5 21 C4.15996552 18.2518872 3.32777849 15.50180419 2.5 12.75 C2.26152344 11.97269531 2.02304687 11.19539062 1.77734375 10.39453125 C1.55175781 9.64042969 1.32617188 8.88632813 1.09375 8.109375 C0.77954102 7.07248535 0.77954102 7.07248535 0.45898438 6.01464844 C0 4 0 4 0 0 Z " fill="#3F6C2B" transform="translate(57,192)"/>
<path d="M0 0 C0.66 0 1.32 0 2 0 C2.10957031 0.54527344 2.21914062 1.09054688 2.33203125 1.65234375 C3.8185251 8.72225354 5.64730001 15.56917458 9 22 C8.01 22 7.02 22 6 22 C0.44419134 7.40318907 0.44419134 7.40318907 0 0 Z " fill="#406A2C" transform="translate(63,214)"/>
<path d="M0 0 C0.33 0 0.66 0 1 0 C1.05784708 4.12494151 1.09354407 8.24977944 1.125 12.375 C1.14175781 13.550625 1.15851563 14.72625 1.17578125 15.9375 C1.18222656 17.05898437 1.18867187 18.18046875 1.1953125 19.3359375 C1.20578613 20.37282715 1.21625977 21.4097168 1.22705078 22.47802734 C1 25 1 25 -1 27 C-3.8319677 18.5040969 -1.28008335 8.67485058 0 0 Z " fill="#EDEE38" transform="translate(122,182)"/>
<path d="M0 0 C0.99 0 1.98 0 3 0 C3 0.99 3 1.98 3 3 C3.66 3 4.32 3 5 3 C5.33 3.99 5.66 4.98 6 6 C5.67 6.66 5.34 7.32 5 8 C3.5164999 7.57742724 2.03823576 7.13643678 0.5625 6.6875 C-0.26121094 6.44386719 -1.08492187 6.20023437 -1.93359375 5.94921875 C-2.61550781 5.63597656 -3.29742187 5.32273437 -4 5 C-4.33 4.01 -4.66 3.02 -5 2 C-2.525 2.495 -2.525 2.495 0 3 C0 2.01 0 1.02 0 0 Z " fill="#FEFE1E" transform="translate(133,263)"/>
<path d="M0 0 C6.6 0 13.2 0 20 0 C19.67 0.66 19.34 1.32 19 2 C17.31970703 1.98259766 17.31970703 1.98259766 15.60546875 1.96484375 C14.13281417 1.95546378 12.66015778 1.9463638 11.1875 1.9375 C10.44951172 1.92912109 9.71152344 1.92074219 8.95117188 1.91210938 C5.70077932 1.89740172 3.10595105 1.96468298 0 3 C0 2.01 0 1.02 0 0 Z " fill="#FEFE17" transform="translate(140,263)"/>
<path d="M0 0 C1.5625 1.1875 1.5625 1.1875 3 3 C2.625 5.4375 2.625 5.4375 2 8 C2.165 8.66 2.33 9.32 2.5 10 C3.14358261 12.57433043 2.63609042 14.4556383 2 17 C1.01 17 0.02 17 -1 17 C-1.02709444 14.91673869 -1.04643873 12.83337559 -1.0625 10.75 C-1.07410156 9.58984375 -1.08570313 8.4296875 -1.09765625 7.234375 C-1.01782092 4.59022872 -0.78643778 2.50173909 0 0 Z " fill="#E5EE1E" transform="translate(185,230)"/>
<path d="M0 0 C1 1 1 1 1.0625 4.5625 C1.041875 5.696875 1.02125 6.83125 1 8 C-1 5 -1 5 -1 2 C-5.95 2 -10.9 2 -16 2 C-16 1.67 -16 1.34 -16 1 C-10.59803219 0.22829031 -5.45878647 -0.19153637 0 0 Z " fill="#2F3C07" transform="translate(181,276)"/>
<path d="M0 0 C2.0625 0.4375 2.0625 0.4375 4 1 C4.85298376 4.67387495 5.10789471 8.0447393 5.0625 11.8125 C5.05347656 12.78832031 5.04445312 13.76414063 5.03515625 14.76953125 C5.02355469 15.50558594 5.01195312 16.24164063 5 17 C4.34 16.67 3.68 16.34 3 16 C2.64175227 12.66693571 2.55539231 9.3536255 2.44140625 6.00390625 C2.22291016 4.51697266 2.22291016 4.51697266 2 3 C1.01 2.34 0.02 1.68 -1 1 C-0.67 0.67 -0.34 0.34 0 0 Z " fill="#5F8807" transform="translate(177,161)"/>
<path d="M0 0 C1.32 0.66 2.64 1.32 4 2 C3.67 8.93 3.34 15.86 3 23 C2.67 23 2.34 23 2 23 C1.67 16.73 1.34 10.46 1 4 C0.34 3.67 -0.32 3.34 -1 3 C-0.67 2.01 -0.34 1.02 0 0 Z " fill="#FDFD31" transform="translate(202,272)"/>
<path d="M0 0 C1.32 0 2.64 0 4 0 C4 1.65 4 3.3 4 5 C1.35261084 6.4606285 0.10551666 7 -3 7 C-3.33 6.01 -3.66 5.02 -4 4 C-2.68 3.67 -1.36 3.34 0 3 C0 2.01 0 1.02 0 0 Z " fill="#FEFE1F" transform="translate(249,263)"/>
<path d="M0 0 C3.98381075 2.16264012 6.88983545 4.71211176 10 8 C8.68 8 7.36 8 6 8 C5.67 8.66 5.34 9.32 5 10 C4.34 9.67 3.68 9.34 3 9 C3 8.34 3 7.68 3 7 C1.68 6.34 0.36 5.68 -1 5 C-0.01 4.67 0.98 4.34 2 4 C2 3.34 2 2.68 2 2 C1.34 2 0.68 2 0 2 C0 1.34 0 0.68 0 0 Z " fill="#FAFB33" transform="translate(239,143)"/>
<path d="M0 0 C0.66 0.66 1.32 1.32 2 2 C-0.58789062 3.07421875 -0.58789062 3.07421875 -3.17578125 4.1484375 C-5.26533932 5.06806692 -5.26533932 5.06806692 -8 7 C-8.99 6.67 -9.98 6.34 -11 6 C-9.72815559 3.61529173 -8.61686803 2.25229776 -6.08984375 1.21875 C-3.9375 0.625 -3.9375 0.625 0 0 Z " fill="#FEFE1D" transform="translate(162,143)"/>
<path d="M0 0 C0.33 0 0.66 0 1 0 C1.33 7.92 1.66 15.84 2 24 C1.01 24.33 0.02 24.66 -1 25 C-0.67 16.75 -0.34 8.5 0 0 Z " fill="#F5FA34" transform="translate(254,237)"/>
<path d="M0 0 C0.99 0.33 1.98 0.66 3 1 C3.33 2.65 3.66 4.3 4 6 C4.66 6 5.32 6 6 6 C6.33 7.32 6.66 8.64 7 10 C6.01 10 5.02 10 4 10 C3.67 9.01 3.34 8.02 3 7 C2.484375 6.525625 1.96875 6.05125 1.4375 5.5625 C0 4 0 4 0 0 Z " fill="#FEFD1C" transform="translate(126,182)"/>
<path d="M0 0 C0.99 0.33 1.98 0.66 3 1 C2.67 1.99 2.34 2.98 2 4 C1.01 4 0.02 4 -1 4 C-1 4.99 -1 5.98 -1 7 C-1.99 7 -2.98 7 -4 7 C-4 7.66 -4 8.32 -4 9 C-4.66 9 -5.32 9 -6 9 C-6 7.68 -6 6.36 -6 5 C-5.38125 4.731875 -4.7625 4.46375 -4.125 4.1875 C-1.7004767 3.04443152 -1.7004767 3.04443152 0 0 Z " fill="#FDFD05" transform="translate(143,164)"/>
<path d="M0 0 C1.32 0 2.64 0 4 0 C3.67 1.65 3.34 3.3 3 5 C-0.3 4.67 -3.6 4.34 -7 4 C-7 3.67 -7 3.34 -7 3 C-4.69 3 -2.38 3 0 3 C0 2.01 0 1.02 0 0 Z " fill="#FEFE17" transform="translate(181,263)"/>
<path d="M0 0 C0.66 0 1.32 0 2 0 C3.75747614 4.50353262 4.19294408 8.17639811 4 13 C1.27835324 10.27835324 0.89427524 7.70485455 0 4 C0 2.68 0 1.36 0 0 Z " fill="#406C2A" transform="translate(53,178)"/>
<path d="M0 0 C0.33 0.99 0.66 1.98 1 3 C-1.31989611 6.35096105 -4.07157569 9.17616228 -7 12 C-6.4739075 8.21213403 -5.61896089 5.82847776 -3 3 C-2.34 3 -1.68 3 -1 3 C-0.67 2.01 -0.34 1.02 0 0 Z " fill="#5E8402" transform="translate(142,171)"/>
<path d="M0 0 C0.66 0 1.32 0 2 0 C1.67 7.26 1.34 14.52 1 22 C0.67 22 0.34 22 0 22 C-0.1964031 18.70880065 -0.38060745 15.41703066 -0.5625 12.125 C-0.61857422 11.18785156 -0.67464844 10.25070313 -0.73242188 9.28515625 C-0.78076172 8.38925781 -0.82910156 7.49335938 -0.87890625 6.5703125 C-0.9260376 5.74289551 -0.97316895 4.91547852 -1.02172852 4.06298828 C-1 2 -1 2 0 0 Z " fill="#4B5800" transform="translate(120,175)"/>
<path d="M0 0 C0.185625 0.639375 0.37125 1.27875 0.5625 1.9375 C1.94246056 4.42126213 1.94246056 4.42126213 5.625 4.75 C6.73875 4.8325 7.8525 4.915 9 5 C6.83304275 7.16695725 6.00388632 7.73495121 3 8 C0.75 6.5625 0.75 6.5625 -1 5 C-0.67 3.35 -0.34 1.7 0 0 Z " fill="#42722A" transform="translate(115,271)"/>
<path d="M0 0 C0 2.31 0 4.62 0 7 C-1.65 7 -3.3 7 -5 7 C-4.67 5.02 -4.34 3.04 -4 1 C-1 0 -1 0 0 0 Z " fill="#EDF12B" transform="translate(276,267)"/>
<path d="M0 0 C0.33 0 0.66 0 1 0 C1 3.96 1 7.92 1 12 C0.34 12 -0.32 12 -1 12 C-1.33 12.99 -1.66 13.98 -2 15 C-2.625 13.1875 -2.625 13.1875 -3 11 C-2.34 10.01 -1.68 9.02 -1 8 C-0.54860541 5.9507906 -0.54860541 5.9507906 -0.375 3.8125 C-0.25125 2.554375 -0.1275 1.29625 0 0 Z " fill="#608E17" transform="translate(183,216)"/>
<path d="M0 0 C0.66 0 1.32 0 2 0 C2 3.3 2 6.6 2 10 C1.01 10 0.02 10 -1 10 C-0.67 6.7 -0.34 3.4 0 0 Z " fill="#FDFF17" transform="translate(186,198)"/>
<path d="M0 0 C-6 4 -6 4 -11 4 C-10.67 3.01 -10.34 2.02 -10 1 C-6.52674819 -0.1577506 -3.63932552 -0.06866652 0 0 Z " fill="#F6F950" transform="translate(168,138)"/>
<path d="M0 0 C0.66 0 1.32 0 2 0 C1.54917531 1.46067199 1.08906463 2.91848032 0.625 4.375 C0.36976563 5.18710937 0.11453125 5.99921875 -0.1484375 6.8359375 C-1 9 -1 9 -3 11 C-3 8.69 -3 6.38 -3 4 C-2.34 3.67 -1.68 3.34 -1 3 C-0.67 2.01 -0.34 1.02 0 0 Z " fill="#417027" transform="translate(310,260)"/>
<path d="M0 0 C2.97 0 5.94 0 9 0 C9 2.64 9 5.28 9 8 C8.67 8 8.34 8 8 8 C7.67 6.35 7.34 4.7 7 3 C4.69 2.34 2.38 1.68 0 1 C0 0.67 0 0.34 0 0 Z " fill="#E1F03F" transform="translate(173,159)"/>
<path d="M0 0 C3.125 0.375 3.125 0.375 6 1 C2.25 4 2.25 4 0 4 C-0.33 4.99 -0.66 5.98 -1 7 C-1.625 4.625 -1.625 4.625 -2 2 C-1.34 1.34 -0.68 0.68 0 0 Z " fill="#3D7022" transform="translate(131,146)"/>
<path d="M0 0 C4.455 0.99 4.455 0.99 9 2 C6.38058783 3.74627478 4.96175123 4.38722388 2 5 C2 4.34 2 3.68 2 3 C1.34 2.67 0.68 2.34 0 2 C0 1.34 0 0.68 0 0 Z " fill="#3F7022" transform="translate(144,138)"/>
<path d="M0 0 C1.48199902 0.44909061 2.96055236 0.90956564 4.4375 1.375 C5.26121094 1.63023437 6.08492188 1.88546875 6.93359375 2.1484375 C9 3 9 3 10 5 C6.7 4.34 3.4 3.68 0 3 C0 2.01 0 1.02 0 0 Z " fill="#406D2C" transform="translate(118,324)"/>
<path d="M0 0 C0.33 0 0.66 0 1 0 C1.33 3.63 1.66 7.26 2 11 C-1.67647059 6.09803922 -1.67647059 6.09803922 -2 2 C-1.34 1.34 -0.68 0.68 0 0 Z " fill="#F1F11E" transform="translate(274,214)"/>
<path d="M0 0 C1.98 0.495 1.98 0.495 4 1 C4 2.32 4 3.64 4 5 C1.525 4.01 1.525 4.01 -1 3 C-0.67 2.01 -0.34 1.02 0 0 Z " fill="#30781B" transform="translate(229,163)"/>
<path d="M0 0 C0.53625 0.226875 1.0725 0.45375 1.625 0.6875 C-5 4.6875 -5 4.6875 -8.375 4.6875 C-8.375 4.0275 -8.375 3.3675 -8.375 2.6875 C-2.95961538 -0.38942308 -2.95961538 -0.38942308 0 0 Z " fill="#EFF250" transform="translate(141.375,148.3125)"/>
<path d="M0 0 C5.75 1.625 5.75 1.625 8 5 C4.7 4.01 1.4 3.02 -2 2 C-1.34 1.34 -0.68 0.68 0 0 Z " fill="#437130" transform="translate(154,337)"/>
<path d="M0 0 C1.98 0.66 3.96 1.32 6 2 C6 2.33 6 2.66 6 3 C2.37 3.33 -1.26 3.66 -5 4 C-3.68 3.01 -2.36 2.02 -1 1 C-0.67 0.67 -0.34 0.34 0 0 Z " fill="#E8E91D" transform="translate(165,272)"/>
<path d="M0 0 C0.1875 2.875 0.1875 2.875 0 6 C-0.99 6.66 -1.98 7.32 -3 8 C-3.33 5.69 -3.66 3.38 -4 1 C-1 0 -1 0 0 0 Z " fill="#DCDE1E" transform="translate(276,261)"/>
<path d="M0 0 C7.42857143 -0.28571429 7.42857143 -0.28571429 11 2 C10.67 2.99 10.34 3.98 10 5 C9.46375 4.525625 8.9275 4.05125 8.375 3.5625 C5.57157164 1.71813924 3.30379742 1.37543153 0 1 C0 0.67 0 0.34 0 0 Z " fill="#EDF93D" transform="translate(221,156)"/>
<path d="M0 0 C1.65 0 3.3 0 5 0 C5.33 0.99 5.66 1.98 6 3 C4.02 3 2.04 3 0 3 C0 2.01 0 1.02 0 0 Z " fill="#FEFE04" transform="translate(223,143)"/>
</svg>
